<?xml version="1.0" encoding="utf-8"?>
<!-- Generator: Adobe Illustrator 23.0.0, SVG Export Plug-In . SVG Version: 6.00 Build 0)  -->
<svg version="1.1" id="Слой_1" xmlns="http://www.w3.org/2000/svg" xmlns:xlink="http://www.w3.org/1999/xlink" x="0px" y="0px"
	 viewBox="0 0 400 397.7" style="enable-background:new 0 0 400 397.7;" xml:space="preserve">
<style type="text/css">
	.st0{fill:url(#triangle36_1_);}
	.st1{fill:url(#SVGID_1_);}
	.st2{fill:url(#SVGID_2_);}
	.st3{fill:url(#SVGID_3_);}
	.st4{fill:url(#SVGID_4_);}
	.st5{fill:url(#SVGID_5_);}
	.st6{fill:url(#SVGID_6_);}
	.st7{fill:url(#SVGID_7_);}
	.st8{fill:url(#SVGID_8_);}
	.st9{fill:url(#SVGID_9_);}
	.st10{fill:url(#SVGID_10_);}
	.st11{fill:url(#SVGID_11_);}
	.st12{fill:url(#SVGID_12_);}
	.st13{fill:url(#SVGID_13_);}
	.st14{fill:url(#SVGID_14_);}
	.st15{fill:url(#SVGID_15_);}
	.st16{fill:url(#SVGID_16_);}
	.st17{fill:url(#SVGID_17_);}
	.st18{fill:url(#SVGID_18_);}
	.st19{fill:url(#SVGID_19_);}
	.st20{fill:url(#SVGID_20_);}
	.st21{fill:url(#SVGID_21_);}
	.st22{fill:url(#SVGID_22_);}
	.st23{fill:url(#SVGID_23_);}
	.st24{fill:url(#SVGID_24_);}
	.st25{fill:url(#SVGID_25_);}
	.st26{fill:url(#SVGID_26_);}
	.st27{fill:url(#SVGID_27_);}
	.st28{fill:url(#SVGID_28_);}
	.st29{fill:url(#SVGID_29_);}
	.st30{fill:url(#SVGID_30_);}
	.st31{fill:url(#SVGID_31_);}
	.st32{fill:url(#SVGID_32_);}
	.st33{fill:url(#SVGID_33_);}
	.st34{fill:url(#SVGID_34_);}
	.st35{fill:url(#SVGID_35_);}
	.st36{fill:url(#SVGID_36_);}
	.st37{fill:url(#SVGID_37_);}
	.st38{fill:url(#SVGID_38_);}
	.st39{fill:url(#SVGID_39_);}
	.st40{fill:url(#SVGID_40_);}
	.st41{fill:url(#SVGID_41_);}
	.st42{fill:url(#SVGID_42_);}
	.st43{fill:url(#SVGID_43_);}
	.st44{fill:url(#SVGID_44_);}
	.st45{fill:url(#SVGID_45_);}
	.st46{fill:url(#SVGID_46_);}
	.st47{fill:url(#SVGID_47_);}
	.st48{fill:url(#SVGID_48_);}
	.st49{fill:url(#SVGID_49_);}
	.st50{fill:url(#SVGID_50_);}
	.st51{fill:url(#SVGID_51_);}
	.st52{fill:url(#SVGID_52_);}
	.st53{fill:url(#SVGID_53_);}
	.st54{fill:url(#SVGID_54_);}
	.st55{fill:url(#SVGID_55_);}
	.st56{fill:url(#SVGID_56_);}
	.st57{fill:url(#SVGID_57_);}
	.st58{fill:url(#SVGID_58_);}
	.st59{fill:url(#SVGID_59_);}
	.st60{fill:url(#SVGID_60_);}
	.st61{fill:url(#SVGID_61_);}
	.st62{fill:url(#SVGID_62_);}
	.st63{fill:url(#SVGID_63_);}
	.st64{fill:url(#SVGID_64_);}
</style>
<linearGradient id="triangle36_1_" gradientUnits="userSpaceOnUse" x1="-95.9876" y1="615.0333" x2="-93.662" y2="612.7078" gradientTransform="matrix(25 0 0 -46 2454 28523.7891)">
	<stop  offset="0" style="stop-color:#C6D33A"/>
	<stop  offset="1" style="stop-color:#BCCF3A"/>
</linearGradient>
<polygon id="triangle36" class="st0" points="60.5,220.9 67.4,279.1 118.6,327.9 "/>
<linearGradient id="SVGID_1_" gradientUnits="userSpaceOnUse" x1="-95.649" y1="618.3595" x2="-93.3234" y2="616.0339" gradientTransform="matrix(25 0 0 -72 2454 44675.6992)">
	<stop  offset="0" style="stop-color:#CED63A"/>
	<stop  offset="1" style="stop-color:#CBD53A"/>
</linearGradient>
<polygon class="st1" points="60.5,220.9 90.7,160.5 118.6,327.9 "/>
<linearGradient id="SVGID_2_" gradientUnits="userSpaceOnUse" x1="-97.2002" y1="618.1036" x2="-94.8746" y2="615.7781" gradientTransform="matrix(39 0 0 -76 3867 47164.6055)">
	<stop  offset="0" style="stop-color:#D3D93C"/>
	<stop  offset="1" style="stop-color:#BCCE3D"/>
</linearGradient>
<polygon class="st2" points="90.7,160.5 118.6,327.9 181.4,337.2 "/>
<linearGradient id="SVGID_3_" gradientUnits="userSpaceOnUse" x1="-98.4386" y1="618.3425" x2="-96.113" y2="616.0168" gradientTransform="matrix(73 0 0 -76 7267 47164.6055)">
	<stop  offset="0" style="stop-color:#D4D93C"/>
	<stop  offset="1" style="stop-color:#CCD774"/>
</linearGradient>
<polygon class="st3" points="90.7,160.5 181.4,337.2 260.5,295.3 "/>
<linearGradient id="SVGID_4_" gradientUnits="userSpaceOnUse" x1="-98.2367" y1="619.2068" x2="-95.9112" y2="616.8812" gradientTransform="matrix(73 0 0 -82 7267 50873.9688)">
	<stop  offset="0" style="stop-color:#DBDB3D"/>
	<stop  offset="1" style="stop-color:#DEDE6D"/>
</linearGradient>
<polygon class="st4" points="90.7,160.5 160.5,104.7 260.5,295.3 "/>
<linearGradient id="SVGID_5_" gradientUnits="userSpaceOnUse" x1="-97.3077" y1="619.1938" x2="-94.9821" y2="616.8682" gradientTransform="matrix(62 0 0 -82 6197 50873.9688)">
	<stop  offset="0" style="stop-color:#D6D939"/>
	<stop  offset="1" style="stop-color:#DCE0A6"/>
</linearGradient>
<polygon class="st5" points="160.5,104.7 260.5,295.3 304.7,218.6 "/>
<linearGradient id="SVGID_6_" gradientUnits="userSpaceOnUse" x1="-97.9947" y1="617.5352" x2="-95.6691" y2="615.2095" gradientTransform="matrix(77 0 0 -49 7697 30318.4707)">
	<stop  offset="0" style="stop-color:#D8DA39"/>
	<stop  offset="1" style="stop-color:#D2D960"/>
</linearGradient>
<polygon class="st6" points="160.5,104.7 204.7,53.5 339.5,167.4 "/>
<linearGradient id="SVGID_7_" gradientUnits="userSpaceOnUse" x1="-97.7293" y1="617.2053" x2="-95.4037" y2="614.8798" gradientTransform="matrix(77 0 0 -49 7697 30340.4707)">
	<stop  offset="0" style="stop-color:#D4D938"/>
	<stop  offset="1" style="stop-color:#D7DE97"/>
</linearGradient>
<polygon class="st7" points="160.5,104.7 304.7,218.6 339.5,167.4 "/>
<linearGradient id="SVGID_8_" gradientUnits="userSpaceOnUse" x1="-87.081" y1="615.7821" x2="-84.7555" y2="613.4565" gradientTransform="matrix(20 0 0 -39 2074 24106.1992)">
	<stop  offset="0" style="stop-color:#BACF6D"/>
	<stop  offset="1" style="stop-color:#CDDE9B"/>
</linearGradient>
<polygon class="st8" points="339.5,167.4 386,132.6 355.8,76.7 "/>
<linearGradient id="SVGID_9_" gradientUnits="userSpaceOnUse" x1="-95.8744" y1="612.0836" x2="-93.5488" y2="609.7581" gradientTransform="matrix(43 0 0 -20 4316 12253.8818)">
	<stop  offset="0" style="stop-color:#BCCE37"/>
	<stop  offset="1" style="stop-color:#BFD274"/>
</linearGradient>
<polygon class="st9" points="204.7,53.5 232.6,7 304.7,27.9 "/>
<linearGradient id="SVGID_10_" gradientUnits="userSpaceOnUse" x1="-96.423" y1="619.0588" x2="-94.0974" y2="616.7333" gradientTransform="matrix(58 0 0 -60 5816 37151.9688)">
	<stop  offset="0" style="stop-color:#C4D134"/>
	<stop  offset="1" style="stop-color:#D1DD8E"/>
</linearGradient>
<polygon class="st10" points="204.7,53.5 339.5,167.4 304.7,27.9 "/>
<linearGradient id="SVGID_11_" gradientUnits="userSpaceOnUse" x1="-88.6411" y1="618.9273" x2="-86.3155" y2="616.6017" gradientTransform="matrix(22 0 0 -60 2259 37151.9688)">
	<stop  offset="0" style="stop-color:#BED170"/>
	<stop  offset="1" style="stop-color:#CBDD98"/>
</linearGradient>
<polygon class="st11" points="339.5,167.4 355.8,76.7 304.7,27.9 "/>
<linearGradient id="SVGID_12_" gradientUnits="userSpaceOnUse" x1="-88.423" y1="612.9966" x2="-86.0975" y2="610.671" gradientTransform="matrix(16 0 0 -21 1612 12875.1094)">
	<stop  offset="0" style="stop-color:#DDE47E"/>
	<stop  offset="1" style="stop-color:#D0DC96"/>
</linearGradient>
<polygon class="st12" points="204.7,53.5 232.6,7 195.3,4.7 "/>
<linearGradient id="SVGID_13_" gradientUnits="userSpaceOnUse" x1="-88.0166" y1="613.5257" x2="-85.691" y2="611.2001" gradientTransform="matrix(14 0 0 -23 1402 14119.5635)">
	<stop  offset="0" style="stop-color:#E6ECD0"/>
	<stop  offset="1" style="stop-color:#EBEFB9"/>
</linearGradient>
<polygon class="st13" points="195.3,4.7 204.7,53.5 172.1,58.1 "/>
<linearGradient id="SVGID_14_" gradientUnits="userSpaceOnUse" x1="-91.3966" y1="612.0385" x2="-89.071" y2="609.713" gradientTransform="matrix(19 0 0 -22 1897 13518.3359)">
	<stop  offset="0" style="stop-color:#ECEB95"/>
	<stop  offset="1" style="stop-color:#F8F8F2"/>
</linearGradient>
<polygon class="st14" points="160.5,104.7 204.7,53.5 172.1,58.1 "/>
<linearGradient id="SVGID_15_" gradientUnits="userSpaceOnUse" x1="-95.8767" y1="611.6725" x2="-93.5512" y2="609.3469" gradientTransform="matrix(30 0 0 -24 2967 14784.791)">
	<stop  offset="0" style="stop-color:#ECEB95"/>
	<stop  offset="1" style="stop-color:#F8F8F2"/>
</linearGradient>
<polygon class="st15" points="90.7,160.5 160.5,104.7 116.3,104.7 "/>
<linearGradient id="SVGID_16_" gradientUnits="userSpaceOnUse" x1="-94.2384" y1="610.8871" x2="-91.9128" y2="608.5615" gradientTransform="matrix(24 0 0 -20 2378 12275.8818)">
	<stop  offset="0" style="stop-color:#ECEB95"/>
	<stop  offset="1" style="stop-color:#F8F8F2"/>
</linearGradient>
<polygon class="st16" points="160.5,104.7 172.1,58.1 116.3,104.7 "/>
<linearGradient id="SVGID_17_" gradientUnits="userSpaceOnUse" x1="-91.8319" y1="611.6945" x2="-89.5063" y2="609.3689" gradientTransform="matrix(13 0 0 -27 1254 16674.4727)">
	<stop  offset="0" style="stop-color:#ECEB95"/>
	<stop  offset="1" style="stop-color:#F8F8F2"/>
</linearGradient>
<polygon class="st17" points="60.5,220.9 90.7,160.5 65.1,158.1 "/>
<linearGradient id="SVGID_18_" gradientUnits="userSpaceOnUse" x1="-95.0159" y1="611.6967" x2="-92.6904" y2="609.3711" gradientTransform="matrix(22 0 0 -24 2156 14784.791)">
	<stop  offset="0" style="stop-color:#EBEB98"/>
	<stop  offset="1" style="stop-color:#F5F7F0"/>
</linearGradient>
<polygon class="st18" points="90.7,160.5 116.3,104.7 65.1,158.1 "/>
<linearGradient id="SVGID_19_" gradientUnits="userSpaceOnUse" x1="-92.4991" y1="609.7745" x2="-90.1735" y2="607.4489" gradientTransform="matrix(13 0 0 -25 1244 15457.0176)">
	<stop  offset="0" style="stop-color:#ECEB95"/>
	<stop  offset="1" style="stop-color:#F8F8F2"/>
</linearGradient>
<polygon class="st19" points="60.5,220.9 67.4,279.1 37.2,232.6 "/>
<linearGradient id="SVGID_20_" gradientUnits="userSpaceOnUse" x1="-91.099" y1="605.0095" x2="-88.7734" y2="602.684" gradientTransform="matrix(10 0 0 -18 944 11088.4268)">
	<stop  offset="0" style="stop-color:#F8F7F6"/>
	<stop  offset="1" style="stop-color:#E2E8A5"/>
</linearGradient>
<polygon class="st20" points="37.2,232.6 60.5,220.9 37.2,190.7 "/>
<linearGradient id="SVGID_21_" gradientUnits="userSpaceOnUse" x1="-91.9526" y1="611.996" x2="-89.627" y2="609.6703" gradientTransform="matrix(12 0 0 -27 1144 16674.4727)">
	<stop  offset="0" style="stop-color:#E1E796"/>
	<stop  offset="1" style="stop-color:#EFF3E2"/>
</linearGradient>
<polygon class="st21" points="60.5,220.9 65.1,158.1 37.2,190.7 "/>
<linearGradient id="SVGID_22_" gradientUnits="userSpaceOnUse" x1="-93.4636" y1="598.8165" x2="-91.138" y2="596.4909" gradientTransform="matrix(19 0 0 -16 1862 9902.9727)">
	<stop  offset="0" style="stop-color:#EDF1E1"/>
	<stop  offset="1" style="stop-color:#D3E19D"/>
</linearGradient>
<polygon class="st22" points="79.1,337.2 118.6,327.9 123.3,365.1 "/>
<linearGradient id="SVGID_23_" gradientUnits="userSpaceOnUse" x1="-94.9317" y1="598.3394" x2="-92.6062" y2="596.0137" gradientTransform="matrix(27 0 0 -16 2679 9902.9727)">
	<stop  offset="0" style="stop-color:#ECEB95"/>
	<stop  offset="1" style="stop-color:#F8F8F2"/>
</linearGradient>
<polygon class="st23" points="118.6,327.9 181.4,337.2 123.3,365.1 "/>
<linearGradient id="SVGID_24_" gradientUnits="userSpaceOnUse" x1="-95.1301" y1="592.5093" x2="-92.8045" y2="590.1837" gradientTransform="matrix(29 0 0 -13 2881 8040.291)">
	<stop  offset="0" style="stop-color:#E1EAD0"/>
	<stop  offset="1" style="stop-color:#CCDB8F"/>
</linearGradient>
<polygon class="st24" points="123.3,365.1 181.4,337.2 190.7,367.4 "/>
<linearGradient id="SVGID_25_" gradientUnits="userSpaceOnUse" x1="-94.704" y1="592.5258" x2="-92.3784" y2="590.2002" gradientTransform="matrix(33 0 0 -13 3306 8040.291)">
	<stop  offset="0" style="stop-color:#D1DD9D"/>
	<stop  offset="1" style="stop-color:#C7D885"/>
</linearGradient>
<polygon class="st25" points="181.4,337.2 190.7,367.4 258.1,341.9 "/>
<linearGradient id="SVGID_26_" gradientUnits="userSpaceOnUse" x1="-94.7832" y1="604.1848" x2="-92.4576" y2="601.8592" gradientTransform="matrix(34 0 0 -20 3406 12377.8818)">
	<stop  offset="0" style="stop-color:#CEDA94"/>
	<stop  offset="1" style="stop-color:#D0DBA1"/>
</linearGradient>
<polygon class="st26" points="181.4,337.2 260.5,295.3 258.1,341.9 "/>
<linearGradient id="SVGID_27_" gradientUnits="userSpaceOnUse" x1="-87.8256" y1="606.6605" x2="-85.5" y2="604.3349" gradientTransform="matrix(18 0 0 -23 1839 14241.5635)">
	<stop  offset="0" style="stop-color:#ECEB95"/>
	<stop  offset="1" style="stop-color:#F8F8F2"/>
</linearGradient>
<polygon class="st27" points="258.1,341.9 260.5,295.3 300,288.4 "/>
<linearGradient id="SVGID_28_" gradientUnits="userSpaceOnUse" x1="-88.3966" y1="612.5828" x2="-86.071" y2="610.2572" gradientTransform="matrix(19 0 0 -33 1940 20433.8359)">
	<stop  offset="0" style="stop-color:#E2E5DA"/>
	<stop  offset="1" style="stop-color:#D2DCA4"/>
</linearGradient>
<polygon class="st28" points="260.5,295.3 304.7,218.6 300,288.4 "/>
<linearGradient id="SVGID_29_" gradientUnits="userSpaceOnUse" x1="-83.8" y1="613.0223" x2="-81.4744" y2="610.6968" gradientTransform="matrix(15 0 0 -34 1557 21052.0625)">
	<stop  offset="0" style="stop-color:#ECEB95"/>
	<stop  offset="1" style="stop-color:#F8F8F2"/>
</linearGradient>
<polygon class="st29" points="300,288.4 304.7,218.6 334.9,209.3 "/>
<linearGradient id="SVGID_30_" gradientUnits="userSpaceOnUse" x1="-83.6233" y1="609.0861" x2="-81.2977" y2="606.7605" gradientTransform="matrix(15 0 0 -22 1559 13567.3359)">
	<stop  offset="0" style="stop-color:#E7E9E8"/>
	<stop  offset="1" style="stop-color:#D8E0B0"/>
</linearGradient>
<polygon class="st30" points="304.7,218.6 339.5,167.4 334.9,209.3 "/>
<linearGradient id="SVGID_31_" gradientUnits="userSpaceOnUse" x1="-86.164" y1="606.1658" x2="-83.8384" y2="603.8403" gradientTransform="matrix(19 0 0 -18 1972 11078.4268)">
	<stop  offset="0" style="stop-color:#D5E0A4"/>
	<stop  offset="1" style="stop-color:#CFDCA1"/>
</linearGradient>
<polygon class="st31" points="334.9,209.3 339.5,167.4 379.1,167.4 "/>
<linearGradient id="SVGID_32_" gradientUnits="userSpaceOnUse" x1="-86.7233" y1="604.2792" x2="-84.3977" y2="601.9536" gradientTransform="matrix(20 0 0 -15 2074 9196.7451)">
	<stop  offset="0" style="stop-color:#E3E9D0"/>
	<stop  offset="1" style="stop-color:#D9E4BC"/>
</linearGradient>
<polygon class="st32" points="339.5,167.4 386,132.6 379.1,167.4 "/>
<linearGradient id="SVGID_33_" gradientUnits="userSpaceOnUse" x1="-68.3798" y1="603.8915" x2="-66.0543" y2="601.566" gradientTransform="matrix(9 0 0 -15 991 9196.7451)">
	<stop  offset="0" style="stop-color:#CDDC9B"/>
	<stop  offset="1" style="stop-color:#EDF0E0"/>
</linearGradient>
<polygon class="st33" points="379.1,167.4 386,132.6 400,160.5 "/>
<linearGradient id="SVGID_34_" gradientUnits="userSpaceOnUse" x1="-94.4537" y1="612.783" x2="-92.1281" y2="610.4574" gradientTransform="matrix(42 0 0 -34 4257 21052.0625)">
	<stop  offset="0" style="stop-color:#ACC630"/>
	<stop  offset="1" style="stop-color:#CCDB89"/>
</linearGradient>
<polygon class="st34" points="300,288.4 334.9,209.3 397.7,241.9 "/>
<linearGradient id="SVGID_35_" gradientUnits="userSpaceOnUse" x1="-90.1815" y1="613.2748" x2="-87.8559" y2="610.9492" gradientTransform="matrix(27 0 0 -32 2772 19789.6074)">
	<stop  offset="0" style="stop-color:#B3CB55"/>
	<stop  offset="1" style="stop-color:#C2D684"/>
</linearGradient>
<polygon class="st35" points="334.9,209.3 379.1,167.4 397.7,241.9 "/>
<linearGradient id="SVGID_36_" gradientUnits="userSpaceOnUse" x1="-67.4754" y1="614.5975" x2="-65.1499" y2="612.2719" gradientTransform="matrix(9 0 0 -35 991 21653.291)">
	<stop  offset="0" style="stop-color:#B4CC6F"/>
	<stop  offset="1" style="stop-color:#DFE8CB"/>
</linearGradient>
<polygon class="st36" points="379.1,167.4 400,160.5 397.7,241.9 "/>
<linearGradient id="SVGID_37_" gradientUnits="userSpaceOnUse" x1="-93.9559" y1="613.2767" x2="-91.6303" y2="610.951" gradientTransform="matrix(42 0 0 -36 4257 22310.5176)">
	<stop  offset="0" style="stop-color:#A7C431"/>
	<stop  offset="1" style="stop-color:#CDDE9F"/>
</linearGradient>
<polygon class="st37" points="300,288.4 397.7,241.9 351.2,325.6 "/>
<linearGradient id="SVGID_38_" gradientUnits="userSpaceOnUse" x1="-87.5961" y1="613.0347" x2="-85.2705" y2="610.7092" gradientTransform="matrix(18 0 0 -38 1839 23574.9727)">
	<stop  offset="0" style="stop-color:#A8C331"/>
	<stop  offset="1" style="stop-color:#BBD063"/>
</linearGradient>
<polygon class="st38" points="258.1,341.9 300,288.4 293,376.7 "/>
<linearGradient id="SVGID_39_" gradientUnits="userSpaceOnUse" x1="-90.6839" y1="612.5604" x2="-88.3583" y2="610.2349" gradientTransform="matrix(25 0 0 -38 2554 23574.9727)">
	<stop  offset="0" style="stop-color:#A6C331"/>
	<stop  offset="1" style="stop-color:#C4D78F"/>
</linearGradient>
<polygon class="st39" points="300,288.4 351.2,325.6 293,376.7 "/>
<linearGradient id="SVGID_40_" gradientUnits="userSpaceOnUse" x1="-93.5886" y1="606.2192" x2="-91.263" y2="603.8936" gradientTransform="matrix(29 0 0 -24 2910 14886.791)">
	<stop  offset="0" style="stop-color:#B1CB51"/>
	<stop  offset="1" style="stop-color:#B0C94E"/>
</linearGradient>
<polygon class="st40" points="190.7,367.4 258.1,341.9 211.6,397.7 "/>
<linearGradient id="SVGID_41_" gradientUnits="userSpaceOnUse" x1="-94.7455" y1="605.7896" x2="-92.4199" y2="603.464" gradientTransform="matrix(35 0 0 -24 3519 14886.791)">
	<stop  offset="0" style="stop-color:#A3C133"/>
	<stop  offset="1" style="stop-color:#BED282"/>
</linearGradient>
<polygon class="st41" points="258.1,341.9 293,376.7 211.6,397.7 "/>
<linearGradient id="SVGID_42_" gradientUnits="userSpaceOnUse" x1="-96.2522" y1="591.3533" x2="-93.9267" y2="589.0278" gradientTransform="matrix(39 0 0 -13 3880 8053.291)">
	<stop  offset="0" style="stop-color:#AEC951"/>
	<stop  offset="1" style="stop-color:#B1C962"/>
</linearGradient>
<polygon class="st42" points="190.7,367.4 211.6,397.7 120.9,383.7 "/>
<linearGradient id="SVGID_43_" gradientUnits="userSpaceOnUse" x1="-93.6365" y1="603.1356" x2="-91.3109" y2="600.81" gradientTransform="matrix(19 0 0 -20 1862 12395.8818)">
	<stop  offset="0" style="stop-color:#B9C839"/>
	<stop  offset="1" style="stop-color:#D3DD89"/>
</linearGradient>
<polygon class="st43" points="79.1,337.2 123.3,365.1 120.9,383.7 "/>
<linearGradient id="SVGID_44_" gradientUnits="userSpaceOnUse" x1="-95.375" y1="571.9322" x2="-93.0494" y2="569.6066" gradientTransform="matrix(30 0 0 -8 2980 4941.1548)">
	<stop  offset="0" style="stop-color:#B9C839"/>
	<stop  offset="1" style="stop-color:#D3DD89"/>
</linearGradient>
<polygon class="st44" points="123.3,365.1 190.7,367.4 120.9,383.7 "/>
<linearGradient id="SVGID_45_" gradientUnits="userSpaceOnUse" x1="-93.7099" y1="607.0097" x2="-91.3843" y2="604.6841" gradientTransform="matrix(15 0 0 -24 1447 14865.791)">
	<stop  offset="0" style="stop-color:#B9C839"/>
	<stop  offset="1" style="stop-color:#D3DD89"/>
</linearGradient>
<polygon class="st45" points="44.2,293 79.1,337.2 60.5,348.8 "/>
<linearGradient id="SVGID_46_" gradientUnits="userSpaceOnUse" x1="-95.8716" y1="602.9672" x2="-93.5461" y2="600.6416" gradientTransform="matrix(26 0 0 -20 2554 12395.8818)">
	<stop  offset="0" style="stop-color:#C3D58C"/>
	<stop  offset="1" style="stop-color:#B0C967"/>
</linearGradient>
<polygon class="st46" points="79.1,337.2 120.9,383.7 60.5,348.8 "/>
<linearGradient id="SVGID_47_" gradientUnits="userSpaceOnUse" x1="-95.7407" y1="610.7311" x2="-93.4151" y2="608.4055" gradientTransform="matrix(20 0 0 -30 1934 18593.1543)">
	<stop  offset="0" style="stop-color:#C4D78C"/>
	<stop  offset="1" style="stop-color:#ACC65D"/>
</linearGradient>
<polygon class="st47" points="44.2,293 60.5,348.8 14,279.1 "/>
<linearGradient id="SVGID_48_" gradientUnits="userSpaceOnUse" x1="-94.9492" y1="606.9341" x2="-92.6236" y2="604.6085" gradientTransform="matrix(16 0 0 -19 1528 11709.6543)">
	<stop  offset="0" style="stop-color:#B9C839"/>
	<stop  offset="1" style="stop-color:#D3DD89"/>
</linearGradient>
<polygon class="st48" points="37.2,232.6 37.2,190.7 0,188.4 "/>
<linearGradient id="SVGID_49_" gradientUnits="userSpaceOnUse" x1="-97.387" y1="601.9971" x2="-95.0615" y2="599.6716" gradientTransform="matrix(28 0 0 -14 2728 8585.5186)">
	<stop  offset="0" style="stop-color:#B9C839"/>
	<stop  offset="1" style="stop-color:#D3DD89"/>
</linearGradient>
<polygon class="st49" points="37.2,190.7 65.1,158.1 0,188.4 "/>
<linearGradient id="SVGID_50_" gradientUnits="userSpaceOnUse" x1="-97.5324" y1="618.0734" x2="-95.2068" y2="615.7478" gradientTransform="matrix(28 0 0 -56 2728 34676.0625)">
	<stop  offset="0" style="stop-color:#B9C839"/>
	<stop  offset="1" style="stop-color:#D3DD89"/>
</linearGradient>
<polygon class="st50" points="0,188.4 65.1,158.1 53.5,58.1 "/>
<linearGradient id="SVGID_51_" gradientUnits="userSpaceOnUse" x1="-96.3669" y1="616.79" x2="-94.0413" y2="614.4644" gradientTransform="matrix(27 0 0 -43 2651 26587.1074)">
	<stop  offset="0" style="stop-color:#B9C839"/>
	<stop  offset="1" style="stop-color:#D3DD89"/>
</linearGradient>
<polygon class="st51" points="65.1,158.1 116.3,104.7 53.5,58.1 "/>
<linearGradient id="SVGID_52_" gradientUnits="userSpaceOnUse" x1="-96.3797" y1="617.0208" x2="-94.0541" y2="614.6952" gradientTransform="matrix(31 0 0 -37 3051 22836.7441)">
	<stop  offset="0" style="stop-color:#C6D352"/>
	<stop  offset="1" style="stop-color:#D1DB71"/>
</linearGradient>
<polygon class="st52" points="53.5,58.1 116.3,104.7 125.6,18.6 "/>
<linearGradient id="SVGID_53_" gradientUnits="userSpaceOnUse" x1="-94.5055" y1="616.4393" x2="-92.1799" y2="614.1138" gradientTransform="matrix(24 0 0 -37 2378 22836.7441)">
	<stop  offset="0" style="stop-color:#B9C839"/>
	<stop  offset="1" style="stop-color:#D3DD89"/>
</linearGradient>
<polygon class="st53" points="116.3,104.7 172.1,58.1 125.6,18.6 "/>
<linearGradient id="SVGID_54_" gradientUnits="userSpaceOnUse" x1="-88.1096" y1="614.6003" x2="-85.784" y2="612.2747" gradientTransform="matrix(14 0 0 -25 1398 15362.0176)">
	<stop  offset="0" style="stop-color:#B9C839"/>
	<stop  offset="1" style="stop-color:#D3DD89"/>
</linearGradient>
<polygon class="st54" points="172.1,58.1 195.3,4.7 162.8,0 "/>
<linearGradient id="SVGID_55_" gradientUnits="userSpaceOnUse" x1="-92.5419" y1="614.7598" x2="-90.2163" y2="612.4342" gradientTransform="matrix(20 0 0 -25 1982 15362.0176)">
	<stop  offset="0" style="stop-color:#B4C832"/>
	<stop  offset="1" style="stop-color:#D7E198"/>
</linearGradient>
<polygon class="st55" points="125.6,18.6 172.1,58.1 162.8,0 "/>
<linearGradient id="SVGID_56_" gradientUnits="userSpaceOnUse" x1="-94.2013" y1="614.3071" x2="-91.8757" y2="611.9816" gradientTransform="matrix(12 0 0 -39 1128 24154.1992)">
	<stop  offset="0" style="stop-color:#A5BE3A"/>
	<stop  offset="1" style="stop-color:#B3CA5D"/>
</linearGradient>
<polygon class="st56" points="0,188.4 14,279.1 27.9,265.1 "/>
<linearGradient id="SVGID_57_" gradientUnits="userSpaceOnUse" x1="-95.3987" y1="613.2062" x2="-93.0731" y2="610.8807" gradientTransform="matrix(16 0 0 -33 1528 20420.8359)">
	<stop  offset="0" style="stop-color:#B9C839"/>
	<stop  offset="1" style="stop-color:#D3DD89"/>
</linearGradient>
<polygon class="st57" points="0,188.4 37.2,232.6 27.9,265.1 "/>
<linearGradient id="SVGID_58_" gradientUnits="userSpaceOnUse" x1="-93.8721" y1="593.4733" x2="-91.5465" y2="591.1477" gradientTransform="matrix(13 0 0 -12 1234 7387.064)">
	<stop  offset="0" style="stop-color:#A8C453"/>
	<stop  offset="1" style="stop-color:#CADB93"/>
</linearGradient>
<polygon class="st58" points="14,279.1 44.2,293 27.9,265.1 "/>
<linearGradient id="SVGID_59_" gradientUnits="userSpaceOnUse" x1="-95.0992" y1="605.646" x2="-92.7736" y2="603.3204" gradientTransform="matrix(17 0 0 -20 1640 12350.8818)">
	<stop  offset="0" style="stop-color:#F8F7F2"/>
	<stop  offset="1" style="stop-color:#D6E194"/>
</linearGradient>
<polygon class="st59" points="37.2,232.6 67.4,279.1 27.9,265.1 "/>
<linearGradient id="SVGID_60_" gradientUnits="userSpaceOnUse" x1="-94.8803" y1="593.4443" x2="-92.5547" y2="591.1188" gradientTransform="matrix(17 0 0 -12 1640 7387.064)">
	<stop  offset="0" style="stop-color:#EFF2E5"/>
	<stop  offset="1" style="stop-color:#D6E196"/>
</linearGradient>
<polygon class="st60" points="44.2,293 67.4,279.1 27.9,265.1 "/>
<linearGradient id="SVGID_61_" gradientUnits="userSpaceOnUse" x1="-94.8281" y1="597.0889" x2="-92.5025" y2="594.7633" gradientTransform="matrix(19 0 0 -14 1847 8637.5186)">
	<stop  offset="0" style="stop-color:#E5ECC4"/>
	<stop  offset="1" style="stop-color:#CBDA69"/>
</linearGradient>
<polygon class="st61" points="44.2,293 67.4,279.1 88.4,311.6 "/>
<linearGradient id="SVGID_62_" gradientUnits="userSpaceOnUse" x1="-94.6707" y1="603.4579" x2="-92.3452" y2="601.1324" gradientTransform="matrix(19 0 0 -19 1847 11754.6543)">
	<stop  offset="0" style="stop-color:#EEF1E6"/>
	<stop  offset="1" style="stop-color:#DEE7B0"/>
</linearGradient>
<polygon class="st62" points="44.2,293 79.1,337.2 88.4,311.6 "/>
<linearGradient id="SVGID_63_" gradientUnits="userSpaceOnUse" x1="-95.1297" y1="605.2807" x2="-92.8041" y2="602.9551" gradientTransform="matrix(22 0 0 -21 2157 12993.1094)">
	<stop  offset="0" style="stop-color:#BCCF39"/>
	<stop  offset="1" style="stop-color:#B9CE3A"/>
</linearGradient>
<polygon class="st63" points="67.4,279.1 118.6,327.9 88.4,311.6 "/>
<linearGradient id="SVGID_64_" gradientUnits="userSpaceOnUse" x1="-93.4835" y1="588.1035" x2="-91.1579" y2="585.778" gradientTransform="matrix(17 0 0 -11 1662 6784.8369)">
	<stop  offset="0" style="stop-color:#E1E8BE"/>
	<stop  offset="1" style="stop-color:#C5D663"/>
</linearGradient>
<polygon class="st64" points="79.1,337.2 118.6,327.9 88.4,311.6 "/>
</svg>
