<?xml version="1.0" encoding="utf-8"?>
<!-- Generator: Adobe Illustrator 23.0.0, SVG Export Plug-In . SVG Version: 6.00 Build 0)  -->
<svg version="1.1" id="Слой_1" xmlns="http://www.w3.org/2000/svg" xmlns:xlink="http://www.w3.org/1999/xlink" x="0px" y="0px"
	 viewBox="0 0 400 180.9" style="enable-background:new 0 0 400 180.9;" xml:space="preserve">
<style type="text/css">
	.st0{fill:url(#triangle36_1_);}
	.st1{fill:url(#SVGID_1_);}
	.st2{fill:url(#SVGID_2_);}
	.st3{fill:url(#SVGID_3_);}
	.st4{fill:url(#SVGID_4_);}
	.st5{fill:url(#SVGID_5_);}
	.st6{fill:url(#SVGID_6_);}
	.st7{fill:url(#SVGID_7_);}
	.st8{fill:url(#SVGID_8_);}
	.st9{fill:url(#SVGID_9_);}
	.st10{fill:url(#SVGID_10_);}
	.st11{fill:url(#SVGID_11_);}
	.st12{fill:url(#SVGID_12_);}
	.st13{fill:url(#SVGID_13_);}
	.st14{fill:url(#SVGID_14_);}
	.st15{fill:url(#SVGID_15_);}
	.st16{fill:url(#SVGID_16_);}
	.st17{fill:url(#SVGID_17_);}
	.st18{fill:url(#SVGID_18_);}
	.st19{fill:url(#SVGID_19_);}
	.st20{fill:url(#SVGID_20_);}
	.st21{fill:url(#SVGID_21_);}
	.st22{fill:url(#SVGID_22_);}
	.st23{fill:url(#SVGID_23_);}
	.st24{fill:url(#SVGID_24_);}
	.st25{fill:url(#SVGID_25_);}
	.st26{fill:url(#SVGID_26_);}
	.st27{fill:url(#SVGID_27_);}
	.st28{fill:url(#SVGID_28_);}
	.st29{fill:url(#SVGID_29_);}
	.st30{fill:url(#SVGID_30_);}
	.st31{fill:url(#SVGID_31_);}
	.st32{fill:url(#SVGID_32_);}
	.st33{fill:url(#SVGID_33_);}
	.st34{fill:url(#SVGID_34_);}
	.st35{fill:url(#SVGID_35_);}
	.st36{fill:url(#SVGID_36_);}
	.st37{fill:url(#SVGID_37_);}
	.st38{fill:url(#SVGID_38_);}
	.st39{fill:url(#SVGID_39_);}
	.st40{fill:url(#SVGID_40_);}
	.st41{fill:url(#SVGID_41_);}
	.st42{fill:url(#SVGID_42_);}
	.st43{fill:url(#SVGID_43_);}
	.st44{fill:url(#SVGID_44_);}
	.st45{fill:url(#SVGID_45_);}
	.st46{fill:url(#SVGID_46_);}
	.st47{fill:url(#SVGID_47_);}
	.st48{fill:url(#SVGID_48_);}
	.st49{fill:url(#SVGID_49_);}
	.st50{fill:url(#SVGID_50_);}
	.st51{fill:url(#SVGID_51_);}
	.st52{fill:url(#SVGID_52_);}
	.st53{fill:url(#SVGID_53_);}
	.st54{fill:url(#SVGID_54_);}
</style>
<linearGradient id="triangle36_1_" gradientUnits="userSpaceOnUse" x1="-87.2591" y1="496.473" x2="-85.5994" y2="494.8132" gradientTransform="matrix(11 0 0 -20 1064 10001.8857)">
	<stop  offset="0" style="stop-color:#362416"/>
	<stop  offset="1" style="stop-color:#503F1D"/>
</linearGradient>
<polygon id="triangle36" class="st0" points="102.9,88 107.9,107.9 121.2,74.7 "/>
<linearGradient id="SVGID_1_" gradientUnits="userSpaceOnUse" x1="-96.2766" y1="496.3598" x2="-94.6168" y2="494.7001" gradientTransform="matrix(42 0 0 -20 4151.5 10001.8857)">
	<stop  offset="0" style="stop-color:#4B3721"/>
	<stop  offset="1" style="stop-color:#85692B"/>
</linearGradient>
<polygon class="st1" points="107.9,107.9 121.2,74.7 177.6,74.7 "/>
<linearGradient id="SVGID_2_" gradientUnits="userSpaceOnUse" x1="-92.9337" y1="490.3884" x2="-91.274" y2="488.7286" gradientTransform="matrix(29 0 0 -14 2931 6936.8066)">
	<stop  offset="0" style="stop-color:#AC9927"/>
	<stop  offset="1" style="stop-color:#AE9F62"/>
</linearGradient>
<polygon class="st2" points="229,74.7 277.2,84.6 277.2,97.9 "/>
<linearGradient id="SVGID_3_" gradientUnits="userSpaceOnUse" x1="-82.8655" y1="487.9995" x2="-81.2057" y2="486.3398" gradientTransform="matrix(12 0 0 -13 1268.5 6431.9604)">
	<stop  offset="0" style="stop-color:#E7E1B4"/>
	<stop  offset="1" style="stop-color:#CFC9C1"/>
</linearGradient>
<polygon class="st3" points="277.2,84.6 277.2,97.9 297.1,106.2 "/>
<linearGradient id="SVGID_4_" gradientUnits="userSpaceOnUse" x1="-84.8155" y1="489.699" x2="-83.1557" y2="488.0392" gradientTransform="matrix(14 0 0 -14 1467.5 6950.8066)">
	<stop  offset="0" style="stop-color:#958573"/>
	<stop  offset="1" style="stop-color:#D0CAC2"/>
</linearGradient>
<polygon class="st4" points="277.2,97.9 297.1,106.2 300.4,121.2 "/>
<linearGradient id="SVGID_5_" gradientUnits="userSpaceOnUse" x1="-93.0724" y1="505.1502" x2="-91.4127" y2="503.4905" gradientTransform="matrix(29 0 0 -50 2931 25327.2793)">
	<stop  offset="0" style="stop-color:#A38B32"/>
	<stop  offset="1" style="stop-color:#98846E"/>
</linearGradient>
<polygon class="st5" points="229,74.7 277.2,97.9 253.9,157.7 "/>
<linearGradient id="SVGID_6_" gradientUnits="userSpaceOnUse" x1="-92.7527" y1="502.3804" x2="-91.093" y2="500.7206" gradientTransform="matrix(28 0 0 -36 2846.5 18189.4277)">
	<stop  offset="0" style="stop-color:#877057"/>
	<stop  offset="1" style="stop-color:#B5A695"/>
</linearGradient>
<polygon class="st6" points="277.2,97.9 300.4,121.2 253.9,157.7 "/>
<linearGradient id="SVGID_7_" gradientUnits="userSpaceOnUse" x1="-94.1854" y1="506.3729" x2="-92.5256" y2="504.7132" gradientTransform="matrix(31 0 0 -64 3099 32479.1289)">
	<stop  offset="0" style="stop-color:#82652F"/>
	<stop  offset="1" style="stop-color:#BDAC6F"/>
</linearGradient>
<polygon class="st7" points="177.6,74.7 229,74.7 184.2,180.9 "/>
<linearGradient id="SVGID_8_" gradientUnits="userSpaceOnUse" x1="-95.7022" y1="506.1712" x2="-94.0424" y2="504.5114" gradientTransform="matrix(42 0 0 -64 4197.5 32479.1289)">
	<stop  offset="0" style="stop-color:#A18930"/>
	<stop  offset="1" style="stop-color:#B3A493"/>
</linearGradient>
<polygon class="st8" points="229,74.7 253.9,157.7 184.2,180.9 "/>
<linearGradient id="SVGID_9_" gradientUnits="userSpaceOnUse" x1="-95.5438" y1="506.3316" x2="-93.8841" y2="504.6719" gradientTransform="matrix(36 0 0 -64 3564.5 32479.1289)">
	<stop  offset="0" style="stop-color:#7D6029"/>
	<stop  offset="1" style="stop-color:#968472"/>
</linearGradient>
<polygon class="st9" points="177.6,74.7 184.2,180.9 124.5,166 "/>
<linearGradient id="SVGID_10_" gradientUnits="userSpaceOnUse" x1="-89.2728" y1="502.1567" x2="-87.613" y2="500.497" gradientTransform="matrix(13 0 0 -35 1263 17684.582)">
	<stop  offset="0" style="stop-color:#3A2414"/>
	<stop  offset="1" style="stop-color:#433022"/>
</linearGradient>
<polygon class="st10" points="102.9,126.1 107.9,107.9 124.5,166 "/>
<linearGradient id="SVGID_11_" gradientUnits="userSpaceOnUse" x1="-96.1778" y1="505.6774" x2="-94.518" y2="504.0176" gradientTransform="matrix(42 0 0 -55 4151.5 27881.5117)">
	<stop  offset="0" style="stop-color:#4C3923"/>
	<stop  offset="1" style="stop-color:#795D32"/>
</linearGradient>
<polygon class="st11" points="107.9,107.9 177.6,74.7 124.5,166 "/>
<linearGradient id="SVGID_12_" gradientUnits="userSpaceOnUse" x1="-92.5347" y1="486.366" x2="-90.8749" y2="484.7062" gradientTransform="matrix(18 0 0 -12 1745.5 5923.1138)">
	<stop  offset="0" style="stop-color:#513E12"/>
	<stop  offset="1" style="stop-color:#6D5F1D"/>
</linearGradient>
<polygon class="st12" points="102.9,88 107.9,107.9 78,99.6 "/>
<linearGradient id="SVGID_13_" gradientUnits="userSpaceOnUse" x1="-92.4223" y1="492.3358" x2="-90.7626" y2="490.676" gradientTransform="matrix(18 0 0 -16 1745.5 7973.4995)">
	<stop  offset="0" style="stop-color:#705C1B"/>
	<stop  offset="1" style="stop-color:#807222"/>
</linearGradient>
<polygon class="st13" points="102.9,126.1 107.9,107.9 78,99.6 "/>
<linearGradient id="SVGID_14_" gradientUnits="userSpaceOnUse" x1="-89.9924" y1="487.9268" x2="-88.3327" y2="486.2671" gradientTransform="matrix(12 0 0 -13 1136.5 6435.9604)">
	<stop  offset="0" style="stop-color:#8E7926"/>
	<stop  offset="1" style="stop-color:#B7A535"/>
</linearGradient>
<polygon class="st14" points="59.8,112.9 78,99.6 58.1,91.3 "/>
<linearGradient id="SVGID_15_" gradientUnits="userSpaceOnUse" x1="-96.6355" y1="495.2205" x2="-94.9757" y2="493.5607" gradientTransform="matrix(30 0 0 -18 2894.5 8960.1924)">
	<stop  offset="0" style="stop-color:#957C2F"/>
	<stop  offset="1" style="stop-color:#8B773C"/>
</linearGradient>
<polygon class="st15" points="21.6,41.5 53.1,68 3.3,71.4 "/>
<linearGradient id="SVGID_16_" gradientUnits="userSpaceOnUse" x1="-96.339" y1="490.6577" x2="-94.6793" y2="488.998" gradientTransform="matrix(33 0 0 -14 3193 6932.8066)">
	<stop  offset="0" style="stop-color:#9B822F"/>
	<stop  offset="1" style="stop-color:#867142"/>
</linearGradient>
<polygon class="st16" points="53.1,68 58.1,91.3 3.3,71.4 "/>
<linearGradient id="SVGID_17_" gradientUnits="userSpaceOnUse" x1="-92.4484" y1="500.3495" x2="-90.7887" y2="498.6898" gradientTransform="matrix(13 0 0 -26 1201 13038.9639)">
	<stop  offset="0" style="stop-color:#897643"/>
	<stop  offset="1" style="stop-color:#87753E"/>
</linearGradient>
<polygon class="st17" points="0,28.2 21.6,41.5 3.3,71.4 "/>
<linearGradient id="SVGID_18_" gradientUnits="userSpaceOnUse" x1="-95.8695" y1="489.6647" x2="-94.2098" y2="488.0049" gradientTransform="matrix(27 0 0 -14 2603 6946.8066)">
	<stop  offset="0" style="stop-color:#947B39"/>
	<stop  offset="1" style="stop-color:#6A5336"/>
</linearGradient>
<polygon class="st18" points="58.1,91.3 59.8,112.9 14.9,114.5 "/>
<linearGradient id="SVGID_19_" gradientUnits="userSpaceOnUse" x1="-96.7605" y1="499.6501" x2="-95.1007" y2="497.9904" gradientTransform="matrix(33 0 0 -26 3193 13064.9639)">
	<stop  offset="0" style="stop-color:#6C5848"/>
	<stop  offset="1" style="stop-color:#867143"/>
</linearGradient>
<polygon class="st19" points="3.3,71.4 58.1,91.3 14.9,114.5 "/>
<linearGradient id="SVGID_20_" gradientUnits="userSpaceOnUse" x1="-95.7312" y1="490.6423" x2="-94.0715" y2="488.9825" gradientTransform="matrix(27 0 0 -15 2603 7470.6533)">
	<stop  offset="0" style="stop-color:#675145"/>
	<stop  offset="1" style="stop-color:#655035"/>
</linearGradient>
<polygon class="st20" points="14.9,114.5 59.8,112.9 28.2,137.8 "/>
<linearGradient id="SVGID_21_" gradientUnits="userSpaceOnUse" x1="-93.8229" y1="466.1873" x2="-92.1631" y2="464.5275" gradientTransform="matrix(19 0 0 -7 1815 3397.8816)">
	<stop  offset="0" style="stop-color:#605347"/>
	<stop  offset="1" style="stop-color:#7F7367"/>
</linearGradient>
<polygon class="st21" points="44.8,147.7 59.8,136.1 28.2,137.8 "/>
<linearGradient id="SVGID_22_" gradientUnits="userSpaceOnUse" x1="-94.0413" y1="490.5193" x2="-92.3815" y2="488.8596" gradientTransform="matrix(19 0 0 -15 1815 7470.6533)">
	<stop  offset="0" style="stop-color:#5F4823"/>
	<stop  offset="1" style="stop-color:#817466"/>
</linearGradient>
<polygon class="st22" points="59.8,112.9 59.8,136.1 28.2,137.8 "/>
<linearGradient id="SVGID_23_" gradientUnits="userSpaceOnUse" x1="-93.5301" y1="487.3347" x2="-91.8704" y2="485.675" gradientTransform="matrix(16 0 0 -11 1499.5 5360.2676)">
	<stop  offset="0" style="stop-color:#CCBD64"/>
	<stop  offset="1" style="stop-color:#DED496"/>
</linearGradient>
<polygon class="st23" points="0,11.6 26.6,1.7 24.9,19.9 "/>
<linearGradient id="SVGID_24_" gradientUnits="userSpaceOnUse" x1="-93.5408" y1="484.1728" x2="-91.8811" y2="482.513" gradientTransform="matrix(15 0 0 -10 1400 4855.4209)">
	<stop  offset="0" style="stop-color:#D5CA7E"/>
	<stop  offset="1" style="stop-color:#D3C88B"/>
</linearGradient>
<polygon class="st24" points="0,11.6 0,28.2 24.9,19.9 "/>
<linearGradient id="SVGID_25_" gradientUnits="userSpaceOnUse" x1="-93.078" y1="490.4894" x2="-91.4182" y2="488.8297" gradientTransform="matrix(15 0 0 -13 1400 6392.9604)">
	<stop  offset="0" style="stop-color:#C9BB5D"/>
	<stop  offset="1" style="stop-color:#DDD17B"/>
</linearGradient>
<polygon class="st25" points="0,28.2 21.6,41.5 24.9,19.9 "/>
<linearGradient id="SVGID_26_" gradientUnits="userSpaceOnUse" x1="-91.2688" y1="486.8444" x2="-89.609" y2="485.1846" gradientTransform="matrix(12 0 0 -11 1116.5 5360.2676)">
	<stop  offset="0" style="stop-color:#DCD09B"/>
	<stop  offset="1" style="stop-color:#DAD092"/>
</linearGradient>
<polygon class="st26" points="24.9,19.9 26.6,1.7 44.8,14.9 "/>
<linearGradient id="SVGID_27_" gradientUnits="userSpaceOnUse" x1="-96.8095" y1="482.0668" x2="-95.1497" y2="480.4071" gradientTransform="matrix(40 0 0 -9 3903.5 4337.5742)">
	<stop  offset="0" style="stop-color:#DDD184"/>
	<stop  offset="1" style="stop-color:#E2DBA3"/>
</linearGradient>
<polygon class="st27" points="26.6,1.7 44.8,14.9 92.9,0 "/>
<linearGradient id="SVGID_28_" gradientUnits="userSpaceOnUse" x1="-95.6961" y1="481.9527" x2="-94.0363" y2="480.293" gradientTransform="matrix(29 0 0 -9 2820 4337.5742)">
	<stop  offset="0" style="stop-color:#D4C887"/>
	<stop  offset="1" style="stop-color:#DED299"/>
</linearGradient>
<polygon class="st28" points="44.8,14.9 84.6,11.6 92.9,0 "/>
<linearGradient id="SVGID_29_" gradientUnits="userSpaceOnUse" x1="-95.6865" y1="481.6969" x2="-94.0268" y2="480.0372" gradientTransform="matrix(31 0 0 -9 3043 4337.5742)">
	<stop  offset="0" style="stop-color:#D9CC80"/>
	<stop  offset="1" style="stop-color:#E0D586"/>
</linearGradient>
<polygon class="st29" points="84.6,11.6 136.1,14.9 92.9,0 "/>
<linearGradient id="SVGID_30_" gradientUnits="userSpaceOnUse" x1="-96.0326" y1="481.9216" x2="-94.3729" y2="480.2618" gradientTransform="matrix(37 0 0 -9 3645 4337.5742)">
	<stop  offset="0" style="stop-color:#E0D375"/>
	<stop  offset="1" style="stop-color:#EAE5B7"/>
</linearGradient>
<polygon class="st30" points="136.1,14.9 154.4,11.6 92.9,0 "/>
<linearGradient id="SVGID_31_" gradientUnits="userSpaceOnUse" x1="-82.4289" y1="499.5967" x2="-80.7692" y2="497.9369" gradientTransform="matrix(12 0 0 -25 1268.5 12550.1172)">
	<stop  offset="0" style="stop-color:#E7DC80"/>
	<stop  offset="1" style="stop-color:#EAE4A9"/>
</linearGradient>
<polygon class="st31" points="277.2,84.6 297.1,106.2 295.4,64.7 "/>
<linearGradient id="SVGID_32_" gradientUnits="userSpaceOnUse" x1="-85.6592" y1="499.2606" x2="-83.9994" y2="497.6008" gradientTransform="matrix(15 0 0 -25 1578 12550.1172)">
	<stop  offset="0" style="stop-color:#E9E1B4"/>
	<stop  offset="1" style="stop-color:#E6DB87"/>
</linearGradient>
<polygon class="st32" points="297.1,106.2 320.3,83 295.4,64.7 "/>
<linearGradient id="SVGID_33_" gradientUnits="userSpaceOnUse" x1="-93.2512" y1="488.8343" x2="-91.5914" y2="487.1745" gradientTransform="matrix(29 0 0 -13 2931 6418.9604)">
	<stop  offset="0" style="stop-color:#DDCB29"/>
	<stop  offset="1" style="stop-color:#ECE173"/>
</linearGradient>
<polygon class="st33" points="229,74.7 277.2,84.6 245.6,63.1 "/>
<linearGradient id="SVGID_34_" gradientUnits="userSpaceOnUse" x1="-92.931" y1="489.1455" x2="-91.2713" y2="487.4857" gradientTransform="matrix(30 0 0 -13 3040.5 6418.9604)">
	<stop  offset="0" style="stop-color:#E7DA5C"/>
	<stop  offset="1" style="stop-color:#ECE37C"/>
</linearGradient>
<polygon class="st34" points="277.2,84.6 295.4,64.7 245.6,63.1 "/>
<linearGradient id="SVGID_35_" gradientUnits="userSpaceOnUse" x1="-94.52" y1="484.8858" x2="-92.8603" y2="483.226" gradientTransform="matrix(31 0 0 -11 3099 5393.2676)">
	<stop  offset="0" style="stop-color:#BBA531"/>
	<stop  offset="1" style="stop-color:#E6DB73"/>
</linearGradient>
<polygon class="st35" points="177.6,74.7 229,74.7 194.2,56.4 "/>
<linearGradient id="SVGID_36_" gradientUnits="userSpaceOnUse" x1="-92.5474" y1="485.4014" x2="-90.8876" y2="483.7417" gradientTransform="matrix(23 0 0 -11 2290 5393.2676)">
	<stop  offset="0" style="stop-color:#BBA845"/>
	<stop  offset="1" style="stop-color:#EFEBAC"/>
</linearGradient>
<polygon class="st36" points="177.6,74.7 194.2,56.4 156,59.8 "/>
<linearGradient id="SVGID_37_" gradientUnits="userSpaceOnUse" x1="-95.5215" y1="479.1551" x2="-93.8618" y2="477.4953" gradientTransform="matrix(34 0 0 -9 3363.5 4373.5742)">
	<stop  offset="0" style="stop-color:#AA932B"/>
	<stop  offset="1" style="stop-color:#C0AE55"/>
</linearGradient>
<polygon class="st37" points="121.2,74.7 177.6,74.7 156,59.8 "/>
<linearGradient id="SVGID_38_" gradientUnits="userSpaceOnUse" x1="-87.5319" y1="488.6535" x2="-85.8722" y2="486.9937" gradientTransform="matrix(11 0 0 -13 1064 6420.9604)">
	<stop  offset="0" style="stop-color:#644F1E"/>
	<stop  offset="1" style="stop-color:#B09D4E"/>
</linearGradient>
<polygon class="st38" points="102.9,88 121.2,74.7 104.6,66.4 "/>
<linearGradient id="SVGID_39_" gradientUnits="userSpaceOnUse" x1="-92.7437" y1="490.413" x2="-91.084" y2="488.7533" gradientTransform="matrix(17 0 0 -14 1631 6932.8066)">
	<stop  offset="0" style="stop-color:#D8C626"/>
	<stop  offset="1" style="stop-color:#D9CB55"/>
</linearGradient>
<polygon class="st39" points="53.1,68 58.1,91.3 81.3,68 "/>
<linearGradient id="SVGID_40_" gradientUnits="userSpaceOnUse" x1="-91.1343" y1="495.8455" x2="-89.4745" y2="494.1857" gradientTransform="matrix(14 0 0 -19 1335.5 9487.0391)">
	<stop  offset="0" style="stop-color:#CEBB34"/>
	<stop  offset="1" style="stop-color:#D5CA53"/>
</linearGradient>
<polygon class="st40" points="58.1,91.3 78,99.6 81.3,68 "/>
<linearGradient id="SVGID_41_" gradientUnits="userSpaceOnUse" x1="-91.5282" y1="495.4742" x2="-89.8684" y2="493.8145" gradientTransform="matrix(15 0 0 -19 1447 9487.0391)">
	<stop  offset="0" style="stop-color:#C9BA2C"/>
	<stop  offset="1" style="stop-color:#AB9D48"/>
</linearGradient>
<polygon class="st41" points="78,99.6 102.9,88 81.3,68 "/>
<linearGradient id="SVGID_42_" gradientUnits="userSpaceOnUse" x1="-90.2007" y1="489.1961" x2="-88.541" y2="487.5363" gradientTransform="matrix(14 0 0 -13 1349.5 6420.9604)">
	<stop  offset="0" style="stop-color:#897925"/>
	<stop  offset="1" style="stop-color:#E7DE7A"/>
</linearGradient>
<polygon class="st42" points="102.9,88 104.6,66.4 81.3,68 "/>
<linearGradient id="SVGID_43_" gradientUnits="userSpaceOnUse" x1="-94.4151" y1="493.8345" x2="-92.7554" y2="492.1748" gradientTransform="matrix(21 0 0 -16 2010 7938.4995)">
	<stop  offset="0" style="stop-color:#D5C43C"/>
	<stop  offset="1" style="stop-color:#E4DA79"/>
</linearGradient>
<polygon class="st43" points="21.6,41.5 53.1,68 56.4,48.1 "/>
<linearGradient id="SVGID_44_" gradientUnits="userSpaceOnUse" x1="-93.1831" y1="487.2156" x2="-91.5233" y2="485.5559" gradientTransform="matrix(17 0 0 -12 1631 5899.1138)">
	<stop  offset="0" style="stop-color:#DACE54"/>
	<stop  offset="1" style="stop-color:#EFEBB0"/>
</linearGradient>
<polygon class="st44" points="53.1,68 81.3,68 56.4,48.1 "/>
<linearGradient id="SVGID_45_" gradientUnits="userSpaceOnUse" x1="-79.5081" y1="490.0107" x2="-77.8483" y2="488.3509" gradientTransform="matrix(5 0 0 -13 418 6392.9604)">
	<stop  offset="0" style="stop-color:#DED382"/>
	<stop  offset="1" style="stop-color:#F4F2DC"/>
</linearGradient>
<polygon class="st45" points="21.6,41.5 24.9,19.9 29.9,31.5 "/>
<linearGradient id="SVGID_46_" gradientUnits="userSpaceOnUse" x1="-94.837" y1="483.4384" x2="-93.1772" y2="481.7787" gradientTransform="matrix(21 0 0 -10 2010 4867.4209)">
	<stop  offset="0" style="stop-color:#DACE6C"/>
	<stop  offset="1" style="stop-color:#F6F4D6"/>
</linearGradient>
<polygon class="st46" points="21.6,41.5 56.4,48.1 29.9,31.5 "/>
<linearGradient id="SVGID_47_" gradientUnits="userSpaceOnUse" x1="-92.745" y1="485.0615" x2="-91.0853" y2="483.4018" gradientTransform="matrix(32 0 0 -11 3269.5 5398.2676)">
	<stop  offset="0" style="stop-color:#E0D361"/>
	<stop  offset="1" style="stop-color:#DCCB53"/>
</linearGradient>
<polygon class="st47" points="295.4,64.7 320.3,83 348.5,64.7 "/>
<linearGradient id="SVGID_48_" gradientUnits="userSpaceOnUse" x1="-71.9387" y1="485.3235" x2="-70.2789" y2="483.6638" gradientTransform="matrix(9 0 0 -11 1035 5395.2676)">
	<stop  offset="0" style="stop-color:#D7CB9C"/>
	<stop  offset="1" style="stop-color:#DCD6C1"/>
</linearGradient>
<polygon class="st48" points="385.1,59.8 400,59.8 395,78 "/>
<linearGradient id="SVGID_49_" gradientUnits="userSpaceOnUse" x1="-88.7607" y1="470.5415" x2="-87.101" y2="468.8817" gradientTransform="matrix(22 0 0 -7 2306.5 3351.8816)">
	<stop  offset="0" style="stop-color:#DBC549"/>
	<stop  offset="1" style="stop-color:#E1D28A"/>
</linearGradient>
<polygon class="st49" points="348.5,64.7 385.1,59.8 380.1,71.4 "/>
<linearGradient id="SVGID_50_" gradientUnits="userSpaceOnUse" x1="-72.561" y1="484.9212" x2="-70.9012" y2="483.2614" gradientTransform="matrix(9 0 0 -11 1032 5395.2676)">
	<stop  offset="0" style="stop-color:#D8CDA1"/>
	<stop  offset="1" style="stop-color:#DCD5B9"/>
</linearGradient>
<polygon class="st50" points="385.1,59.8 395,78 380.1,71.4 "/>
<linearGradient id="SVGID_51_" gradientUnits="userSpaceOnUse" x1="-91.1886" y1="484.7234" x2="-89.5288" y2="483.0636" gradientTransform="matrix(26 0 0 -11 2687.5 5398.2676)">
	<stop  offset="0" style="stop-color:#D9C74C"/>
	<stop  offset="1" style="stop-color:#E0CE5F"/>
</linearGradient>
<polygon class="st51" points="320.3,83 348.5,64.7 363.5,81.3 "/>
<linearGradient id="SVGID_52_" gradientUnits="userSpaceOnUse" x1="-87.309" y1="482.2996" x2="-85.6493" y2="480.6399" gradientTransform="matrix(19 0 0 -10 2008 4887.4209)">
	<stop  offset="0" style="stop-color:#DDC63E"/>
	<stop  offset="1" style="stop-color:#E7DA89"/>
</linearGradient>
<polygon class="st52" points="348.5,64.7 380.1,71.4 363.5,81.3 "/>
<linearGradient id="SVGID_53_" gradientUnits="userSpaceOnUse" x1="-91.1985" y1="485.3878" x2="-89.5388" y2="483.7281" gradientTransform="matrix(21 0 0 -11 2114 5393.2676)">
	<stop  offset="0" style="stop-color:#F5F0C0"/>
	<stop  offset="1" style="stop-color:#E7DD84"/>
</linearGradient>
<polygon class="st53" points="194.2,56.4 229,74.7 219.1,59.8 "/>
<linearGradient id="SVGID_54_" gradientUnits="userSpaceOnUse" x1="-88.2124" y1="479.3771" x2="-86.5527" y2="477.7173" gradientTransform="matrix(16 0 0 -9 1631.5 4373.5742)">
	<stop  offset="0" style="stop-color:#E0D255"/>
	<stop  offset="1" style="stop-color:#F1EBA8"/>
</linearGradient>
<polygon class="st54" points="229,74.7 245.6,63.1 219.1,59.8 "/>
</svg>
