<?xml version="1.0" encoding="utf-8"?>
<!-- Generator: Adobe Illustrator 23.0.0, SVG Export Plug-In . SVG Version: 6.00 Build 0)  -->
<svg version="1.1" id="Слой_1" xmlns="http://www.w3.org/2000/svg" xmlns:xlink="http://www.w3.org/1999/xlink" x="0px" y="0px"
	 viewBox="0 0 400 385.4" style="enable-background:new 0 0 400 385.4;" xml:space="preserve">
<style type="text/css">
	.st0{fill:url(#triangle36_1_);}
	.st1{fill:url(#SVGID_1_);}
	.st2{fill:url(#SVGID_2_);}
	.st3{fill:url(#SVGID_3_);}
	.st4{fill:url(#SVGID_4_);}
	.st5{fill:url(#SVGID_5_);}
	.st6{fill:url(#SVGID_6_);}
	.st7{fill:url(#SVGID_7_);}
	.st8{fill:url(#SVGID_8_);}
	.st9{fill:url(#SVGID_9_);}
	.st10{fill:url(#SVGID_10_);}
	.st11{fill:url(#SVGID_11_);}
	.st12{fill:url(#SVGID_12_);}
	.st13{fill:url(#SVGID_13_);}
	.st14{fill:url(#SVGID_14_);}
	.st15{fill:url(#SVGID_15_);}
	.st16{fill:url(#SVGID_16_);}
	.st17{fill:url(#SVGID_17_);}
	.st18{fill:url(#SVGID_18_);}
	.st19{fill:url(#SVGID_19_);}
	.st20{fill:url(#SVGID_20_);}
	.st21{fill:url(#SVGID_21_);}
	.st22{fill:url(#SVGID_22_);}
	.st23{fill:url(#SVGID_23_);}
	.st24{fill:url(#SVGID_24_);}
	.st25{fill:url(#SVGID_25_);}
	.st26{fill:url(#SVGID_26_);}
	.st27{fill:url(#SVGID_27_);}
	.st28{fill:url(#SVGID_28_);}
	.st29{fill:url(#SVGID_29_);}
	.st30{fill:url(#SVGID_30_);}
	.st31{fill:url(#SVGID_31_);}
	.st32{fill:url(#SVGID_32_);}
	.st33{fill:url(#SVGID_33_);}
	.st34{fill:url(#SVGID_34_);}
	.st35{fill:url(#SVGID_35_);}
	.st36{fill:url(#SVGID_36_);}
	.st37{fill:url(#SVGID_37_);}
	.st38{fill:url(#SVGID_38_);}
	.st39{fill:url(#SVGID_39_);}
	.st40{fill:url(#SVGID_40_);}
	.st41{fill:url(#SVGID_41_);}
	.st42{fill:url(#SVGID_42_);}
	.st43{fill:url(#SVGID_43_);}
	.st44{fill:url(#SVGID_44_);}
	.st45{fill:url(#SVGID_45_);}
	.st46{fill:url(#SVGID_46_);}
	.st47{fill:url(#SVGID_47_);}
	.st48{fill:url(#SVGID_48_);}
	.st49{fill:url(#SVGID_49_);}
	.st50{fill:url(#SVGID_50_);}
	.st51{fill:url(#SVGID_51_);}
	.st52{fill:url(#SVGID_52_);}
	.st53{fill:url(#SVGID_53_);}
	.st54{fill:url(#SVGID_54_);}
	.st55{fill:url(#SVGID_55_);}
	.st56{fill:url(#SVGID_56_);}
	.st57{fill:url(#SVGID_57_);}
	.st58{fill:url(#SVGID_58_);}
	.st59{fill:url(#SVGID_59_);}
	.st60{fill:url(#SVGID_60_);}
	.st61{fill:url(#SVGID_61_);}
	.st62{fill:url(#SVGID_62_);}
	.st63{fill:url(#SVGID_63_);}
	.st64{fill:url(#SVGID_64_);}
	.st65{fill:url(#SVGID_65_);}
	.st66{fill:url(#SVGID_66_);}
	.st67{fill:url(#SVGID_67_);}
	.st68{fill:url(#SVGID_68_);}
	.st69{fill:url(#SVGID_69_);}
	.st70{fill:url(#SVGID_70_);}
	.st71{fill:url(#SVGID_71_);}
	.st72{fill:url(#SVGID_72_);}
	.st73{fill:url(#SVGID_73_);}
	.st74{fill:url(#SVGID_74_);}
	.st75{fill:url(#SVGID_75_);}
	.st76{fill:url(#SVGID_76_);}
	.st77{fill:url(#SVGID_77_);}
	.st78{fill:url(#SVGID_78_);}
	.st79{fill:url(#SVGID_79_);}
	.st80{fill:url(#SVGID_80_);}
	.st81{fill:url(#SVGID_81_);}
	.st82{fill:url(#SVGID_82_);}
	.st83{fill:url(#SVGID_83_);}
	.st84{fill:url(#SVGID_84_);}
	.st85{fill:url(#SVGID_85_);}
	.st86{fill:url(#SVGID_86_);}
	.st87{fill:url(#SVGID_87_);}
	.st88{fill:url(#SVGID_88_);}
	.st89{fill:url(#SVGID_89_);}
	.st90{fill:url(#SVGID_90_);}
	.st91{fill:url(#SVGID_91_);}
	.st92{fill:url(#SVGID_92_);}
</style>
<linearGradient id="triangle36_1_" gradientUnits="userSpaceOnUse" x1="-107.207" y1="591.0417" x2="-106.5125" y2="590.3473" gradientTransform="matrix(42 0 0 -8 4651 4727.9951)">
	<stop  offset="0" style="stop-color:#FB0000"/>
	<stop  offset="1" style="stop-color:#B10000"/>
</linearGradient>
<polygon id="triangle36" class="st0" points="146.5,2.1 164.6,0 175.7,5.6 "/>
<linearGradient id="SVGID_1_" gradientUnits="userSpaceOnUse" x1="-109.8333" y1="606.999" x2="-109.1389" y2="606.3046" gradientTransform="matrix(25 0 0 -39 2875 23675.043)">
	<stop  offset="0" style="stop-color:#BB0000"/>
	<stop  offset="1" style="stop-color:#DD0000"/>
</linearGradient>
<polygon class="st1" points="131.3,13.2 146.5,2.1 129.2,29.2 "/>
<linearGradient id="SVGID_2_" gradientUnits="userSpaceOnUse" x1="-109.7708" y1="608.5399" x2="-109.0764" y2="607.8455" gradientTransform="matrix(25 0 0 -61 2875 37119.207)">
	<stop  offset="0" style="stop-color:#E90000"/>
	<stop  offset="1" style="stop-color:#E00000"/>
</linearGradient>
<polygon class="st2" points="129.2,29.2 146.5,2.1 135.4,44.4 "/>
<linearGradient id="SVGID_3_" gradientUnits="userSpaceOnUse" x1="-105.5162" y1="608.3721" x2="-104.8217" y2="607.6777" gradientTransform="matrix(72 0 0 -61 7725 37119.207)">
	<stop  offset="0" style="stop-color:#980000"/>
	<stop  offset="1" style="stop-color:#BA0000"/>
</linearGradient>
<polygon class="st3" points="135.4,44.4 146.5,2.1 185.4,27.8 "/>
<linearGradient id="SVGID_4_" gradientUnits="userSpaceOnUse" x1="-106.0803" y1="606.8842" x2="-105.3858" y2="606.1897" gradientTransform="matrix(56 0 0 -37 6093 22452.8477)">
	<stop  offset="0" style="stop-color:#FB0000"/>
	<stop  offset="1" style="stop-color:#AC0000"/>
</linearGradient>
<polygon class="st4" points="146.5,2.1 175.7,5.6 185.4,27.8 "/>
<linearGradient id="SVGID_5_" gradientUnits="userSpaceOnUse" x1="-105.4036" y1="607.0902" x2="-104.7092" y2="606.3958" gradientTransform="matrix(72 0 0 -37 7725 22489.8477)">
	<stop  offset="0" style="stop-color:#D00000"/>
	<stop  offset="1" style="stop-color:#DD0000"/>
</linearGradient>
<polygon class="st5" points="135.4,44.4 185.4,27.8 137.5,53.5 "/>
<linearGradient id="SVGID_6_" gradientUnits="userSpaceOnUse" x1="-105.0204" y1="607.0455" x2="-104.326" y2="606.351" gradientTransform="matrix(88 0 0 -37 9376 22489.8477)">
	<stop  offset="0" style="stop-color:#9F0000"/>
	<stop  offset="1" style="stop-color:#C50000"/>
</linearGradient>
<polygon class="st6" points="185.4,27.8 198.6,37.5 137.5,53.5 "/>
<linearGradient id="SVGID_7_" gradientUnits="userSpaceOnUse" x1="-124.5721" y1="605.9891" x2="-123.8776" y2="605.2947" gradientTransform="matrix(8 0 0 -28 1128 17013.9629)">
	<stop  offset="0" style="stop-color:#D40000"/>
	<stop  offset="1" style="stop-color:#C60000"/>
</linearGradient>
<polygon class="st7" points="135.4,44.4 137.5,53.5 131.9,63.9 "/>
<linearGradient id="SVGID_8_" gradientUnits="userSpaceOnUse" x1="-106.0936" y1="575.1325" x2="-105.3991" y2="574.438" gradientTransform="matrix(76 0 0 -4 8327 2339.6018)">
	<stop  offset="0" style="stop-color:#E50000"/>
	<stop  offset="1" style="stop-color:#CA0000"/>
</linearGradient>
<polygon class="st8" points="267.4,38.9 293.1,41.7 320.1,41 "/>
<linearGradient id="SVGID_9_" gradientUnits="userSpaceOnUse" x1="-109.924" y1="607.1031" x2="-109.2296" y2="606.4088" gradientTransform="matrix(38 0 0 -36 4525 21885.748)">
	<stop  offset="0" style="stop-color:#D40000"/>
	<stop  offset="1" style="stop-color:#A90000"/>
</linearGradient>
<polygon class="st9" points="345.1,47.2 371.5,32.6 371.5,57.6 "/>
<linearGradient id="SVGID_10_" gradientUnits="userSpaceOnUse" x1="-116.9652" y1="606.9392" x2="-116.2708" y2="606.2448" gradientTransform="matrix(20 0 0 -36 2709 21885.748)">
	<stop  offset="0" style="stop-color:#B40000"/>
	<stop  offset="1" style="stop-color:#D40000"/>
</linearGradient>
<polygon class="st10" points="371.5,32.6 385.4,45.8 371.5,57.6 "/>
<linearGradient id="SVGID_11_" gradientUnits="userSpaceOnUse" x1="-109.9724" y1="606.4466" x2="-109.278" y2="605.7522" gradientTransform="matrix(36 0 0 -30 4283 18231.1582)">
	<stop  offset="0" style="stop-color:#DE0000"/>
	<stop  offset="1" style="stop-color:#C80000"/>
</linearGradient>
<polygon class="st11" points="320.1,41 345.1,47.2 343.1,61.8 "/>
<linearGradient id="SVGID_12_" gradientUnits="userSpaceOnUse" x1="-112.2583" y1="605.5909" x2="-111.5638" y2="604.8965" gradientTransform="matrix(29 0 0 -26 3595 15795.7656)">
	<stop  offset="0" style="stop-color:#DF0000"/>
	<stop  offset="1" style="stop-color:#AA0000"/>
</linearGradient>
<polygon class="st12" points="343.1,61.8 345.1,47.2 363.2,65.3 "/>
<linearGradient id="SVGID_13_" gradientUnits="userSpaceOnUse" x1="-109.9777" y1="605.7318" x2="-109.2833" y2="605.0374" gradientTransform="matrix(38 0 0 -26 4525 15795.7656)">
	<stop  offset="0" style="stop-color:#D40000"/>
	<stop  offset="1" style="stop-color:#A20000"/>
</linearGradient>
<polygon class="st13" points="345.1,47.2 371.5,57.6 363.2,65.3 "/>
<linearGradient id="SVGID_14_" gradientUnits="userSpaceOnUse" x1="-116.7597" y1="598.717" x2="-116.0653" y2="598.0226" gradientTransform="matrix(20 0 0 -11 2697 6644.29)">
	<stop  offset="0" style="stop-color:#AA0000"/>
	<stop  offset="1" style="stop-color:#A00000"/>
</linearGradient>
<polygon class="st14" points="363.2,65.3 371.5,57.6 377.1,65.3 "/>
<linearGradient id="SVGID_15_" gradientUnits="userSpaceOnUse" x1="-121.4845" y1="598.8002" x2="-120.79" y2="598.1057" gradientTransform="matrix(15 0 0 -11 2194 6644.29)">
	<stop  offset="0" style="stop-color:#C90000"/>
	<stop  offset="1" style="stop-color:#6E0000"/>
</linearGradient>
<polygon class="st15" points="371.5,57.6 381.9,61.1 377.1,65.3 "/>
<linearGradient id="SVGID_16_" gradientUnits="userSpaceOnUse" x1="-110.7684" y1="608.0787" x2="-110.074" y2="607.3843" gradientTransform="matrix(33 0 0 -48 3974 29230.9297)">
	<stop  offset="0" style="stop-color:#E60000"/>
	<stop  offset="1" style="stop-color:#A70000"/>
</linearGradient>
<polygon class="st16" points="320.1,41 343.1,61.8 328.5,74.3 "/>
<linearGradient id="SVGID_17_" gradientUnits="userSpaceOnUse" x1="-109.1581" y1="608.132" x2="-108.4637" y2="607.4376" gradientTransform="matrix(39 0 0 -47 4553 28619.8301)">
	<stop  offset="0" style="stop-color:#DF0000"/>
	<stop  offset="1" style="stop-color:#E70000"/>
</linearGradient>
<polygon class="st17" points="293.1,41.7 320.1,41 304.2,73.6 "/>
<linearGradient id="SVGID_18_" gradientUnits="userSpaceOnUse" x1="-110.1369" y1="608.0682" x2="-109.4424" y2="607.3738" gradientTransform="matrix(35 0 0 -48 4157 29230.9297)">
	<stop  offset="0" style="stop-color:#E60000"/>
	<stop  offset="1" style="stop-color:#B50000"/>
</linearGradient>
<polygon class="st18" points="320.1,41 328.5,74.3 304.2,73.6 "/>
<linearGradient id="SVGID_19_" gradientUnits="userSpaceOnUse" x1="-109.2562" y1="608.1093" x2="-108.5618" y2="607.4149" gradientTransform="matrix(37 0 0 -48 4310 29227.9297)">
	<stop  offset="0" style="stop-color:#DB0000"/>
	<stop  offset="1" style="stop-color:#D40000"/>
</linearGradient>
<polygon class="st19" points="267.4,38.9 293.1,41.7 270.1,72.2 "/>
<linearGradient id="SVGID_20_" gradientUnits="userSpaceOnUse" x1="-107.8014" y1="607.9523" x2="-107.107" y2="607.2578" gradientTransform="matrix(49 0 0 -46 5550 28009.7324)">
	<stop  offset="0" style="stop-color:#DF0000"/>
	<stop  offset="1" style="stop-color:#F70000"/>
</linearGradient>
<polygon class="st20" points="293.1,41.7 304.2,73.6 270.1,72.2 "/>
<linearGradient id="SVGID_21_" gradientUnits="userSpaceOnUse" x1="-106.6899" y1="609.0134" x2="-105.9954" y2="608.3189" gradientTransform="matrix(57 0 0 -68 6313 41440.8945)">
	<stop  offset="0" style="stop-color:#D40000"/>
	<stop  offset="1" style="stop-color:#F20000"/>
</linearGradient>
<polygon class="st21" points="227.8,32.6 267.4,38.9 248.6,79.9 "/>
<linearGradient id="SVGID_22_" gradientUnits="userSpaceOnUse" x1="-110.2285" y1="608.6407" x2="-109.534" y2="607.9462" gradientTransform="matrix(31 0 0 -59 3665 35950.0117)">
	<stop  offset="0" style="stop-color:#FB0000"/>
	<stop  offset="1" style="stop-color:#F50000"/>
</linearGradient>
<polygon class="st22" points="267.4,38.9 270.1,72.2 248.6,79.9 "/>
<linearGradient id="SVGID_23_" gradientUnits="userSpaceOnUse" x1="-104.3247" y1="608.3662" x2="-103.6302" y2="607.6718" gradientTransform="matrix(134 0 0 -51 14106 31082.2246)">
	<stop  offset="0" style="stop-color:#980000"/>
	<stop  offset="1" style="stop-color:#BE0000"/>
</linearGradient>
<polygon class="st23" points="131.9,63.9 137.5,53.5 225,88.9 "/>
<linearGradient id="SVGID_24_" gradientUnits="userSpaceOnUse" x1="-104.3176" y1="609.2158" x2="-103.6232" y2="608.5213" gradientTransform="matrix(126 0 0 -74 13290 45114.4844)">
	<stop  offset="0" style="stop-color:#F70000"/>
	<stop  offset="1" style="stop-color:#C60000"/>
</linearGradient>
<polygon class="st24" points="137.5,53.5 198.6,37.5 225,88.9 "/>
<linearGradient id="SVGID_25_" gradientUnits="userSpaceOnUse" x1="-107.6379" y1="609.4476" x2="-106.9435" y2="608.7532" gradientTransform="matrix(42 0 0 -81 4726 49385.1758)">
	<stop  offset="0" style="stop-color:#E90000"/>
	<stop  offset="1" style="stop-color:#B80000"/>
</linearGradient>
<polygon class="st25" points="198.6,37.5 227.8,32.6 225,88.9 "/>
<linearGradient id="SVGID_26_" gradientUnits="userSpaceOnUse" x1="-109.4105" y1="609.1448" x2="-108.716" y2="608.4504" gradientTransform="matrix(34 0 0 -81 3940 49385.1758)">
	<stop  offset="0" style="stop-color:#D40000"/>
	<stop  offset="1" style="stop-color:#CA0000"/>
</linearGradient>
<polygon class="st26" points="227.8,32.6 248.6,79.9 225,88.9 "/>
<linearGradient id="SVGID_27_" gradientUnits="userSpaceOnUse" x1="-110.1449" y1="609.4275" x2="-109.4505" y2="608.7331" gradientTransform="matrix(23 0 0 -78 2650 47596.8789)">
	<stop  offset="0" style="stop-color:#FB0000"/>
	<stop  offset="1" style="stop-color:#C10000"/>
</linearGradient>
<polygon class="st27" points="116,74.3 131.9,63.9 118.8,118.1 "/>
<linearGradient id="SVGID_28_" gradientUnits="userSpaceOnUse" x1="-105.4836" y1="608.4408" x2="-104.7891" y2="607.7464" gradientTransform="matrix(59 0 0 -42 6303 25662.3398)">
	<stop  offset="0" style="stop-color:#FB0000"/>
	<stop  offset="1" style="stop-color:#D90000"/>
</linearGradient>
<polygon class="st28" points="97.2,138.2 118.8,118.1 77.8,109 "/>
<linearGradient id="SVGID_29_" gradientUnits="userSpaceOnUse" x1="-105.4882" y1="609.0891" x2="-104.7937" y2="608.3947" gradientTransform="matrix(59 0 0 -63 6303 38445.4023)">
	<stop  offset="0" style="stop-color:#FB0000"/>
	<stop  offset="1" style="stop-color:#D90000"/>
</linearGradient>
<polygon class="st29" points="116,74.3 118.8,118.1 77.8,109 "/>
<linearGradient id="SVGID_30_" gradientUnits="userSpaceOnUse" x1="-105.6946" y1="608.3701" x2="-105.0002" y2="607.6756" gradientTransform="matrix(53 0 0 -42 5660 25662.3398)">
	<stop  offset="0" style="stop-color:#D40000"/>
	<stop  offset="1" style="stop-color:#EB0000"/>
</linearGradient>
<polygon class="st30" points="77.8,109 97.2,138.2 60.4,129.9 "/>
<linearGradient id="SVGID_31_" gradientUnits="userSpaceOnUse" x1="-105.604" y1="607.6917" x2="-104.9096" y2="606.9973" gradientTransform="matrix(53 0 0 -30 5660 18359.1582)">
	<stop  offset="0" style="stop-color:#C90000"/>
	<stop  offset="1" style="stop-color:#EB0000"/>
</linearGradient>
<polygon class="st31" points="85.4,150.7 97.2,138.2 60.4,129.9 "/>
<linearGradient id="SVGID_32_" gradientUnits="userSpaceOnUse" x1="-105.4516" y1="609.9476" x2="-104.7572" y2="609.2532" gradientTransform="matrix(50 0 0 -86 5301 52580.668)">
	<stop  offset="0" style="stop-color:#CD0000"/>
	<stop  offset="1" style="stop-color:#CA0000"/>
</linearGradient>
<polygon class="st32" points="25.7,170.8 60.4,129.9 43.1,189.6 "/>
<linearGradient id="SVGID_33_" gradientUnits="userSpaceOnUse" x1="-105.24" y1="609.8325" x2="-104.5455" y2="609.1381" gradientTransform="matrix(61 0 0 -86 6459 52580.668)">
	<stop  offset="0" style="stop-color:#E60000"/>
	<stop  offset="1" style="stop-color:#B70000"/>
</linearGradient>
<polygon class="st33" points="60.4,129.9 85.4,150.7 43.1,189.6 "/>
<linearGradient id="SVGID_34_" gradientUnits="userSpaceOnUse" x1="-108.0552" y1="607.8841" x2="-107.3607" y2="607.1896" gradientTransform="matrix(25 0 0 -27 2726 16584.8633)">
	<stop  offset="0" style="stop-color:#CD0000"/>
	<stop  offset="1" style="stop-color:#DB0000"/>
</linearGradient>
<polygon class="st34" points="25.7,170.8 43.1,189.6 28.5,178.5 "/>
<linearGradient id="SVGID_35_" gradientUnits="userSpaceOnUse" x1="-109.7623" y1="606.023" x2="-109.0679" y2="605.3286" gradientTransform="matrix(18 0 0 -17 1991 10473.8799)">
	<stop  offset="0" style="stop-color:#820000"/>
	<stop  offset="1" style="stop-color:#BF0000"/>
</linearGradient>
<polygon class="st35" points="25.7,170.8 28.5,178.5 16,182.6 "/>
<linearGradient id="SVGID_36_" gradientUnits="userSpaceOnUse" x1="-106.2746" y1="608.6519" x2="-105.5802" y2="607.9575" gradientTransform="matrix(35 0 0 -35 3721 21473.6504)">
	<stop  offset="0" style="stop-color:#B00000"/>
	<stop  offset="1" style="stop-color:#B50000"/>
</linearGradient>
<polygon class="st36" points="16,182.6 25.7,170.8 1.4,195.1 "/>
<linearGradient id="SVGID_37_" gradientUnits="userSpaceOnUse" x1="-104.3484" y1="609.9957" x2="-103.6539" y2="609.3012" gradientTransform="matrix(85 0 0 -94 8871 57469.4531)">
	<stop  offset="0" style="stop-color:#B70000"/>
	<stop  offset="1" style="stop-color:#DD0000"/>
</linearGradient>
<polygon class="st37" points="25.7,170.8 60.4,129.9 1.4,195.1 "/>
<linearGradient id="SVGID_38_" gradientUnits="userSpaceOnUse" x1="-106.2704" y1="607.265" x2="-105.576" y2="606.5706" gradientTransform="matrix(36 0 0 -20 3824 12342.1758)">
	<stop  offset="0" style="stop-color:#FB0000"/>
	<stop  offset="1" style="stop-color:#FF0000"/>
</linearGradient>
<polygon class="st38" points="1.4,195.1 1.4,209 26.4,202.1 "/>
<linearGradient id="SVGID_39_" gradientUnits="userSpaceOnUse" x1="-106.194" y1="608.2155" x2="-105.4995" y2="607.5211" gradientTransform="matrix(36 0 0 -28 3824 17212.9629)">
	<stop  offset="0" style="stop-color:#FB0000"/>
	<stop  offset="1" style="stop-color:#F00000"/>
</linearGradient>
<polygon class="st39" points="1.4,195.1 16,182.6 26.4,202.1 "/>
<linearGradient id="SVGID_40_" gradientUnits="userSpaceOnUse" x1="-106.1306" y1="608.2764" x2="-105.4361" y2="607.582" gradientTransform="matrix(36 0 0 -25 3824 15407.667)">
	<stop  offset="0" style="stop-color:#FF0000"/>
	<stop  offset="1" style="stop-color:#D90000"/>
</linearGradient>
<polygon class="st40" points="1.4,209 9,219.4 26.4,202.1 "/>
<linearGradient id="SVGID_41_" gradientUnits="userSpaceOnUse" x1="-109.5808" y1="608.8218" x2="-108.8863" y2="608.1274" gradientTransform="matrix(18 0 0 -34 1991 20873.5527)">
	<stop  offset="0" style="stop-color:#BB0000"/>
	<stop  offset="1" style="stop-color:#E00000"/>
</linearGradient>
<polygon class="st41" points="16,182.6 28.5,178.5 26.4,202.1 "/>
<linearGradient id="SVGID_42_" gradientUnits="userSpaceOnUse" x1="-108.3155" y1="608.5971" x2="-107.621" y2="607.9026" gradientTransform="matrix(24 0 0 -34 2624 20873.5527)">
	<stop  offset="0" style="stop-color:#F00000"/>
	<stop  offset="1" style="stop-color:#D10000"/>
</linearGradient>
<polygon class="st42" points="28.5,178.5 43.1,189.6 26.4,202.1 "/>
<linearGradient id="SVGID_43_" gradientUnits="userSpaceOnUse" x1="-108.1759" y1="609.065" x2="-107.4815" y2="608.3705" gradientTransform="matrix(24 0 0 -37 2624 22722.8477)">
	<stop  offset="0" style="stop-color:#F70000"/>
	<stop  offset="1" style="stop-color:#8D0000"/>
</linearGradient>
<polygon class="st43" points="26.4,202.1 43.1,189.6 31.9,215.3 "/>
<linearGradient id="SVGID_44_" gradientUnits="userSpaceOnUse" x1="-111.7189" y1="609.7328" x2="-111.0245" y2="609.0383" gradientTransform="matrix(19 0 0 -95 2242 57985.5508)">
	<stop  offset="0" style="stop-color:#F00000"/>
	<stop  offset="1" style="stop-color:#C60000"/>
</linearGradient>
<polygon class="st44" points="118.8,118.1 131.9,63.9 130.6,129.9 "/>
<linearGradient id="SVGID_45_" gradientUnits="userSpaceOnUse" x1="-104.3264" y1="609.6359" x2="-103.632" y2="608.9415" gradientTransform="matrix(136 0 0 -95 14310 57985.5508)">
	<stop  offset="0" style="stop-color:#B10000"/>
	<stop  offset="1" style="stop-color:#CF0000"/>
</linearGradient>
<polygon class="st45" points="131.9,63.9 225,88.9 130.6,129.9 "/>
<linearGradient id="SVGID_46_" gradientUnits="userSpaceOnUse" x1="-104.1514" y1="608.4084" x2="-103.4569" y2="607.714" gradientTransform="matrix(148 0 0 -39 15546 23854.043)">
	<stop  offset="0" style="stop-color:#F70000"/>
	<stop  offset="1" style="stop-color:#D20000"/>
</linearGradient>
<polygon class="st46" points="130.6,129.9 134.7,153.5 233.3,126.4 "/>
<linearGradient id="SVGID_47_" gradientUnits="userSpaceOnUse" x1="-104.1725" y1="609.0219" x2="-103.478" y2="608.3275" gradientTransform="matrix(148 0 0 -59 15546 36022.0117)">
	<stop  offset="0" style="stop-color:#F70000"/>
	<stop  offset="1" style="stop-color:#B80000"/>
</linearGradient>
<polygon class="st47" points="130.6,129.9 225,88.9 233.3,126.4 "/>
<linearGradient id="SVGID_48_" gradientUnits="userSpaceOnUse" x1="-104.105" y1="610.3069" x2="-103.4106" y2="609.6124" gradientTransform="matrix(142 0 0 -116 14934 70908.6172)">
	<stop  offset="0" style="stop-color:#6A0000"/>
	<stop  offset="1" style="stop-color:#7D0000"/>
</linearGradient>
<polygon class="st48" points="134.7,153.5 233.3,126.4 210.4,206.9 "/>
<linearGradient id="SVGID_49_" gradientUnits="userSpaceOnUse" x1="-107.1907" y1="610.1326" x2="-106.4962" y2="609.4382" gradientTransform="matrix(50 0 0 -116 5567 70908.6172)">
	<stop  offset="0" style="stop-color:#B40000"/>
	<stop  offset="1" style="stop-color:#BE0000"/>
</linearGradient>
<polygon class="st49" points="210.4,206.9 233.3,126.4 245.1,188.9 "/>
<linearGradient id="SVGID_50_" gradientUnits="userSpaceOnUse" x1="-108.6511" y1="609.9803" x2="-107.9566" y2="609.2859" gradientTransform="matrix(38 0 0 -90 4364 55020.0586)">
	<stop  offset="0" style="stop-color:#D40000"/>
	<stop  offset="1" style="stop-color:#D10000"/>
</linearGradient>
<polygon class="st50" points="233.3,126.4 259.7,136.1 245.1,188.9 "/>
<linearGradient id="SVGID_51_" gradientUnits="userSpaceOnUse" x1="-106.8983" y1="609.6976" x2="-106.2038" y2="609.0031" gradientTransform="matrix(58 0 0 -76 6441 46478.6836)">
	<stop  offset="0" style="stop-color:#C20000"/>
	<stop  offset="1" style="stop-color:#AC0000"/>
</linearGradient>
<polygon class="st51" points="259.7,136.1 285.4,158.3 245.1,188.9 "/>
<linearGradient id="SVGID_52_" gradientUnits="userSpaceOnUse" x1="-105.168" y1="609.7316" x2="-104.4736" y2="609.0372" gradientTransform="matrix(80 0 0 -66 8534 40414.6992)">
	<stop  offset="0" style="stop-color:#CD0000"/>
	<stop  offset="1" style="stop-color:#D40000"/>
</linearGradient>
<polygon class="st52" points="125,190.3 133.3,168.8 180.6,214.6 "/>
<linearGradient id="SVGID_53_" gradientUnits="userSpaceOnUse" x1="-105.1812" y1="609.7451" x2="-104.4868" y2="609.0507" gradientTransform="matrix(80 0 0 -60 8534 36779.1094)">
	<stop  offset="0" style="stop-color:#CD0000"/>
	<stop  offset="1" style="stop-color:#E20000"/>
</linearGradient>
<polygon class="st53" points="125,190.3 135.4,231.9 180.6,214.6 "/>
<linearGradient id="SVGID_54_" gradientUnits="userSpaceOnUse" x1="-105.5775" y1="610.0002" x2="-104.8831" y2="609.3058" gradientTransform="matrix(68 0 0 -88 7310 53836.8633)">
	<stop  offset="0" style="stop-color:#C90000"/>
	<stop  offset="1" style="stop-color:#BC0000"/>
</linearGradient>
<polygon class="st54" points="133.3,168.8 134.7,153.5 180.6,214.6 "/>
<linearGradient id="SVGID_55_" gradientUnits="userSpaceOnUse" x1="-104.6365" y1="609.9918" x2="-103.942" y2="609.2973" gradientTransform="matrix(109 0 0 -88 11535 53836.8633)">
	<stop  offset="0" style="stop-color:#E60000"/>
	<stop  offset="1" style="stop-color:#CF0000"/>
</linearGradient>
<polygon class="st55" points="134.7,153.5 210.4,206.9 180.6,214.6 "/>
<linearGradient id="SVGID_56_" gradientUnits="userSpaceOnUse" x1="-105.3156" y1="609.7484" x2="-104.6212" y2="609.0539" gradientTransform="matrix(73 0 0 -47 7828 28869.8301)">
	<stop  offset="0" style="stop-color:#B10000"/>
	<stop  offset="1" style="stop-color:#730000"/>
</linearGradient>
<polygon class="st56" points="135.4,231.9 180.6,214.6 186.1,247.2 "/>
<linearGradient id="SVGID_57_" gradientUnits="userSpaceOnUse" x1="-142.841" y1="609.6142" x2="-142.1465" y2="608.9198" gradientTransform="matrix(5 0 0 -28 907 17344.9629)">
	<stop  offset="0" style="stop-color:#8D0000"/>
	<stop  offset="1" style="stop-color:#880000"/>
</linearGradient>
<polygon class="st57" points="193.1,274.3 196.5,284 193.8,293.8 "/>
<linearGradient id="SVGID_58_" gradientUnits="userSpaceOnUse" x1="-106.7639" y1="609.8195" x2="-106.0695" y2="609.1251" gradientTransform="matrix(58 0 0 -68 6441 41621.8945)">
	<stop  offset="0" style="stop-color:#F70000"/>
	<stop  offset="1" style="stop-color:#B10000"/>
</linearGradient>
<polygon class="st58" points="245.1,188.9 285.4,158.3 266.7,205.6 "/>
<linearGradient id="SVGID_59_" gradientUnits="userSpaceOnUse" x1="-106.0067" y1="609.6432" x2="-105.3122" y2="608.9488" gradientTransform="matrix(80 0 0 -68 8738 41621.8945)">
	<stop  offset="0" style="stop-color:#FF0000"/>
	<stop  offset="1" style="stop-color:#840000"/>
</linearGradient>
<polygon class="st59" points="266.7,205.6 285.4,158.3 322.2,198.6 "/>
<linearGradient id="SVGID_60_" gradientUnits="userSpaceOnUse" x1="-105.8309" y1="608.9348" x2="-105.1365" y2="608.2404" gradientTransform="matrix(80 0 0 -33 8738 20291.4531)">
	<stop  offset="0" style="stop-color:#B40000"/>
	<stop  offset="1" style="stop-color:#A00000"/>
</linearGradient>
<polygon class="st60" points="266.7,205.6 286.1,221.5 322.2,198.6 "/>
<linearGradient id="SVGID_61_" gradientUnits="userSpaceOnUse" x1="-107.5729" y1="609.4317" x2="-106.8784" y2="608.7372" gradientTransform="matrix(52 0 0 -43 5882 26402.4375)">
	<stop  offset="0" style="stop-color:#D00000"/>
	<stop  offset="1" style="stop-color:#B30000"/>
</linearGradient>
<polygon class="st61" points="286.1,221.5 300.7,228.5 322.2,198.6 "/>
<linearGradient id="SVGID_62_" gradientUnits="userSpaceOnUse" x1="-105.3794" y1="610.4514" x2="-104.685" y2="609.7569" gradientTransform="matrix(73 0 0 -91 7828 55783.1563)">
	<stop  offset="0" style="stop-color:#FF0000"/>
	<stop  offset="1" style="stop-color:#C30000"/>
</linearGradient>
<polygon class="st62" points="135.4,231.9 186.1,247.2 147.2,295.1 "/>
<linearGradient id="SVGID_63_" gradientUnits="userSpaceOnUse" x1="-105.7351" y1="610.3182" x2="-105.0406" y2="609.6238" gradientTransform="matrix(66 0 0 -69 7124 42360.9961)">
	<stop  offset="0" style="stop-color:#A60000"/>
	<stop  offset="1" style="stop-color:#C10000"/>
</linearGradient>
<polygon class="st63" points="186.1,247.2 193.1,274.3 147.2,295.1 "/>
<linearGradient id="SVGID_64_" gradientUnits="userSpaceOnUse" x1="-105.6591" y1="610.1932" x2="-104.9647" y2="609.4988" gradientTransform="matrix(66 0 0 -42 7124 25900.3398)">
	<stop  offset="0" style="stop-color:#FF0000"/>
	<stop  offset="1" style="stop-color:#B30000"/>
</linearGradient>
<polygon class="st64" points="147.2,295.1 193.1,274.3 164.6,303.5 "/>
<linearGradient id="SVGID_65_" gradientUnits="userSpaceOnUse" x1="-107.4426" y1="610.1395" x2="-106.7482" y2="609.4451" gradientTransform="matrix(42 0 0 -42 4677 25900.3398)">
	<stop  offset="0" style="stop-color:#820000"/>
	<stop  offset="1" style="stop-color:#AC0000"/>
</linearGradient>
<polygon class="st65" points="193.1,274.3 193.8,293.8 164.6,303.5 "/>
<linearGradient id="SVGID_66_" gradientUnits="userSpaceOnUse" x1="-110.0519" y1="610.0929" x2="-109.3575" y2="609.3984" gradientTransform="matrix(25 0 0 -28 2901 17374.9629)">
	<stop  offset="0" style="stop-color:#F40000"/>
	<stop  offset="1" style="stop-color:#C80000"/>
</linearGradient>
<polygon class="st66" points="147.2,295.1 164.6,303.5 164.6,314.6 "/>
<linearGradient id="SVGID_67_" gradientUnits="userSpaceOnUse" x1="-107.4385" y1="610.0469" x2="-106.744" y2="609.3525" gradientTransform="matrix(42 0 0 -30 4677 18595.1582)">
	<stop  offset="0" style="stop-color:#E90000"/>
	<stop  offset="1" style="stop-color:#AE0000"/>
</linearGradient>
<polygon class="st67" points="164.6,303.5 193.8,293.8 164.6,314.6 "/>
<linearGradient id="SVGID_68_" gradientUnits="userSpaceOnUse" x1="-106.041" y1="610.0192" x2="-105.3465" y2="609.3248" gradientTransform="matrix(61 0 0 -23 6631 14339.4707)">
	<stop  offset="0" style="stop-color:#FF0000"/>
	<stop  offset="1" style="stop-color:#A50000"/>
</linearGradient>
<polygon class="st68" points="162.5,325 164.6,314.6 204.9,309 "/>
<linearGradient id="SVGID_69_" gradientUnits="userSpaceOnUse" x1="-106.262" y1="609.9991" x2="-105.5675" y2="609.3046" gradientTransform="matrix(58 0 0 -30 6325 18595.1582)">
	<stop  offset="0" style="stop-color:#CD0000"/>
	<stop  offset="1" style="stop-color:#970000"/>
</linearGradient>
<polygon class="st69" points="164.6,314.6 193.8,293.8 204.9,309 "/>
<linearGradient id="SVGID_70_" gradientUnits="userSpaceOnUse" x1="-106.5193" y1="609.4904" x2="-105.8249" y2="608.796" gradientTransform="matrix(69 0 0 -38 7654 23380.9453)">
	<stop  offset="0" style="stop-color:#F40000"/>
	<stop  offset="1" style="stop-color:#A70000"/>
</linearGradient>
<polygon class="st70" points="300.7,228.5 314.6,248.6 348.6,222.2 "/>
<linearGradient id="SVGID_71_" gradientUnits="userSpaceOnUse" x1="-106.6653" y1="609.2957" x2="-105.9708" y2="608.6013" gradientTransform="matrix(69 0 0 -43 7654 26402.4375)">
	<stop  offset="0" style="stop-color:#FF0000"/>
	<stop  offset="1" style="stop-color:#810000"/>
</linearGradient>
<polygon class="st71" points="300.7,228.5 322.2,198.6 348.6,222.2 "/>
<linearGradient id="SVGID_72_" gradientUnits="userSpaceOnUse" x1="-107.2551" y1="609.809" x2="-106.5607" y2="609.1146" gradientTransform="matrix(62 0 0 -52 7002 31913.3223)">
	<stop  offset="0" style="stop-color:#860000"/>
	<stop  offset="1" style="stop-color:#9E0000"/>
</linearGradient>
<polygon class="st72" points="348.6,222.2 381.9,206.3 391.7,242.4 "/>
<linearGradient id="SVGID_73_" gradientUnits="userSpaceOnUse" x1="-106.8223" y1="610.1431" x2="-106.1279" y2="609.4486" gradientTransform="matrix(63 0 0 -53 7021 32585.4199)">
	<stop  offset="0" style="stop-color:#FF0000"/>
	<stop  offset="1" style="stop-color:#E20000"/>
</linearGradient>
<polygon class="st73" points="290.3,266 314.6,248.6 334,285.4 "/>
<linearGradient id="SVGID_74_" gradientUnits="userSpaceOnUse" x1="-108.0522" y1="610.5051" x2="-107.3577" y2="609.8107" gradientTransform="matrix(49 0 0 -91 5614 55769.1563)">
	<stop  offset="0" style="stop-color:#FF0000"/>
	<stop  offset="1" style="stop-color:#920000"/>
</linearGradient>
<polygon class="st74" points="314.6,248.6 348.6,222.2 334,285.4 "/>
<linearGradient id="SVGID_75_" gradientUnits="userSpaceOnUse" x1="-106.1996" y1="610.3506" x2="-105.5051" y2="609.6561" gradientTransform="matrix(83 0 0 -91 9144 55769.1563)">
	<stop  offset="0" style="stop-color:#860000"/>
	<stop  offset="1" style="stop-color:#900000"/>
</linearGradient>
<polygon class="st75" points="348.6,222.2 391.7,242.4 334,285.4 "/>
<linearGradient id="SVGID_76_" gradientUnits="userSpaceOnUse" x1="-104.9568" y1="610.5215" x2="-104.2624" y2="609.8271" gradientTransform="matrix(103 0 0 -59 11018 36304.0117)">
	<stop  offset="0" style="stop-color:#AA0000"/>
	<stop  offset="1" style="stop-color:#C60000"/>
</linearGradient>
<polygon class="st76" points="204.9,309 257.6,284.7 276.4,325.7 "/>
<linearGradient id="SVGID_77_" gradientUnits="userSpaceOnUse" x1="-107.7377" y1="610.6892" x2="-107.0433" y2="609.9948" gradientTransform="matrix(47 0 0 -86 5326 52776.668)">
	<stop  offset="0" style="stop-color:#F70000"/>
	<stop  offset="1" style="stop-color:#CB0000"/>
</linearGradient>
<polygon class="st77" points="257.6,284.7 290.3,266 276.4,325.7 "/>
<linearGradient id="SVGID_78_" gradientUnits="userSpaceOnUse" x1="-105.8952" y1="610.533" x2="-105.2008" y2="609.8385" gradientTransform="matrix(83 0 0 -86 9061 52776.668)">
	<stop  offset="0" style="stop-color:#FF0000"/>
	<stop  offset="1" style="stop-color:#AE0000"/>
</linearGradient>
<polygon class="st78" points="290.3,266 334,285.4 276.4,325.7 "/>
<linearGradient id="SVGID_79_" gradientUnits="userSpaceOnUse" x1="-105.6247" y1="610.875" x2="-104.9303" y2="610.1805" gradientTransform="matrix(68 0 0 -76 7352 46727.6836)">
	<stop  offset="0" style="stop-color:#FF0000"/>
	<stop  offset="1" style="stop-color:#B10000"/>
</linearGradient>
<polygon class="st79" points="162.5,325 204.9,309 209.7,361.8 "/>
<linearGradient id="SVGID_80_" gradientUnits="userSpaceOnUse" x1="-105.025" y1="610.7288" x2="-104.3305" y2="610.0343" gradientTransform="matrix(103 0 0 -76 11018 46727.6836)">
	<stop  offset="0" style="stop-color:#AA0000"/>
	<stop  offset="1" style="stop-color:#B50000"/>
</linearGradient>
<polygon class="st80" points="204.9,309 276.4,325.7 209.7,361.8 "/>
<linearGradient id="SVGID_81_" gradientUnits="userSpaceOnUse" x1="-105.5877" y1="610.7881" x2="-104.8933" y2="610.0936" gradientTransform="matrix(74 0 0 -87 7964 53472.7656)">
	<stop  offset="0" style="stop-color:#FF0000"/>
	<stop  offset="1" style="stop-color:#990000"/>
</linearGradient>
<polygon class="st81" points="162.5,325 209.7,361.8 158.3,385.4 "/>
<linearGradient id="SVGID_82_" gradientUnits="userSpaceOnUse" x1="-110.1949" y1="610.7957" x2="-109.5004" y2="610.1013" gradientTransform="matrix(24 0 0 -59 2769 36384.0117)">
	<stop  offset="0" style="stop-color:#F40000"/>
	<stop  offset="1" style="stop-color:#CD0000"/>
</linearGradient>
<polygon class="st82" points="127.1,340.3 128.5,370.8 143.8,381.3 "/>
<linearGradient id="SVGID_83_" gradientUnits="userSpaceOnUse" x1="-106.25" y1="610.9604" x2="-105.5556" y2="610.2659" gradientTransform="matrix(51 0 0 -81 5550 49806.1758)">
	<stop  offset="0" style="stop-color:#F40000"/>
	<stop  offset="1" style="stop-color:#FA0000"/>
</linearGradient>
<polygon class="st83" points="127.1,340.3 162.5,325 143.8,381.3 "/>
<linearGradient id="SVGID_84_" gradientUnits="userSpaceOnUse" x1="-109.5528" y1="610.9058" x2="-108.8584" y2="610.2114" gradientTransform="matrix(27 0 0 -87 3102 53472.7656)">
	<stop  offset="0" style="stop-color:#860000"/>
	<stop  offset="1" style="stop-color:#FA0000"/>
</linearGradient>
<polygon class="st84" points="158.3,385.4 162.5,325 143.8,381.3 "/>
<linearGradient id="SVGID_85_" gradientUnits="userSpaceOnUse" x1="-122.9999" y1="609.8983" x2="-122.3055" y2="609.2039" gradientTransform="matrix(14 0 0 -52 2106 31913.3223)">
	<stop  offset="0" style="stop-color:#A20000"/>
	<stop  offset="1" style="stop-color:#6C0000"/>
</linearGradient>
<polygon class="st85" points="381.9,206.3 391.7,242.4 391.7,211.8 "/>
<linearGradient id="SVGID_86_" gradientUnits="userSpaceOnUse" x1="-126.9676" y1="609.4555" x2="-126.2732" y2="608.761" gradientTransform="matrix(12 0 0 -44 1914 27032.5352)">
	<stop  offset="0" style="stop-color:#830000"/>
	<stop  offset="1" style="stop-color:#990000"/>
</linearGradient>
<polygon class="st86" points="391.7,242.4 391.7,211.8 400,230.6 "/>
<linearGradient id="SVGID_87_" gradientUnits="userSpaceOnUse" x1="-126.7663" y1="608.6896" x2="-126.0718" y2="607.9951" gradientTransform="matrix(12 0 0 -27 1914 16643.8633)">
	<stop  offset="0" style="stop-color:#A20000"/>
	<stop  offset="1" style="stop-color:#280000"/>
</linearGradient>
<polygon class="st87" points="391.7,211.8 399.3,218.8 400,230.6 "/>
<linearGradient id="SVGID_88_" gradientUnits="userSpaceOnUse" x1="-116.7773" y1="604.1927" x2="-116.0829" y2="603.4982" gradientTransform="matrix(20 0 0 -21 2709 12717.2734)">
	<stop  offset="0" style="stop-color:#910000"/>
	<stop  offset="1" style="stop-color:#920000"/>
</linearGradient>
<polygon class="st88" points="371.5,32.6 385.4,45.8 380.6,31.3 "/>
<linearGradient id="SVGID_89_" gradientUnits="userSpaceOnUse" x1="-128.5415" y1="604.1407" x2="-127.8471" y2="603.4463" gradientTransform="matrix(11 0 0 -21 1795 12717.2734)">
	<stop  offset="0" style="stop-color:#F00000"/>
	<stop  offset="1" style="stop-color:#6E0000"/>
</linearGradient>
<polygon class="st89" points="385.4,45.8 388.2,36.8 380.6,31.3 "/>
<linearGradient id="SVGID_90_" gradientUnits="userSpaceOnUse" x1="-128.8871" y1="599.8687" x2="-128.1927" y2="599.1742" gradientTransform="matrix(11 0 0 -13 1802 7836.4868)">
	<stop  offset="0" style="stop-color:#E90000"/>
	<stop  offset="1" style="stop-color:#620000"/>
</linearGradient>
<polygon class="st90" points="385.4,45.8 388.2,36.8 393.1,42.4 "/>
<linearGradient id="SVGID_91_" gradientUnits="userSpaceOnUse" x1="-160" y1="608.8277" x2="-159.3056" y2="608.1333" gradientTransform="matrix(2 0 0 -33 320 20286.4531)">
	<stop  offset="0" style="stop-color:#FB0000"/>
	<stop  offset="1" style="stop-color:#BE0000"/>
</linearGradient>
<polygon class="st91" points="1.4,209 1.4,195.1 0,218.1 "/>
<linearGradient id="SVGID_92_" gradientUnits="userSpaceOnUse" x1="-111.893" y1="606.3867" x2="-111.1985" y2="605.6922" gradientTransform="matrix(13 0 0 -15 1453 9306.6836)">
	<stop  offset="0" style="stop-color:#FF0000"/>
	<stop  offset="1" style="stop-color:#9D0000"/>
</linearGradient>
<polygon class="st92" points="1.4,209 9,219.4 0,218.1 "/>
</svg>
