<?xml version="1.0" encoding="utf-8"?>
<!-- Generator: Adobe Illustrator 23.0.0, SVG Export Plug-In . SVG Version: 6.00 Build 0)  -->
<svg version="1.1" id="Слой_1" xmlns="http://www.w3.org/2000/svg" xmlns:xlink="http://www.w3.org/1999/xlink" x="0px" y="0px"
	 viewBox="0 0 400 287.1" style="enable-background:new 0 0 400 287.1;" xml:space="preserve">
<style type="text/css">
	.st0{fill:url(#triangle36_1_);}
	.st1{fill:url(#SVGID_1_);}
	.st2{fill:url(#SVGID_2_);}
	.st3{fill:url(#SVGID_3_);}
	.st4{fill:url(#SVGID_4_);}
	.st5{fill:url(#SVGID_5_);}
	.st6{fill:url(#SVGID_6_);}
	.st7{fill:url(#SVGID_7_);}
	.st8{fill:url(#SVGID_8_);}
	.st9{fill:url(#SVGID_9_);}
	.st10{fill:url(#SVGID_10_);}
	.st11{fill:url(#SVGID_11_);}
	.st12{fill:url(#SVGID_12_);}
	.st13{fill:url(#SVGID_13_);}
	.st14{fill:url(#SVGID_14_);}
	.st15{fill:url(#SVGID_15_);}
	.st16{fill:url(#SVGID_16_);}
	.st17{fill:url(#SVGID_17_);}
	.st18{fill:url(#SVGID_18_);}
	.st19{fill:url(#SVGID_19_);}
	.st20{fill:url(#SVGID_20_);}
	.st21{fill:url(#SVGID_21_);}
	.st22{fill:url(#SVGID_22_);}
	.st23{fill:url(#SVGID_23_);}
	.st24{fill:url(#SVGID_24_);}
	.st25{fill:url(#SVGID_25_);}
</style>
<linearGradient id="triangle36_1_" gradientUnits="userSpaceOnUse" x1="-86.7682" y1="520.8447" x2="-84.4152" y2="518.4917" gradientTransform="matrix(17 0 0 -9 1728 4921.3042)">
	<stop  offset="0" style="stop-color:#96CF95"/>
	<stop  offset="1" style="stop-color:#AFDAAD"/>
</linearGradient>
<polygon id="triangle36" class="st0" points="258.8,251.8 275.3,230.6 298.8,249.4 "/>
<linearGradient id="SVGID_1_" gradientUnits="userSpaceOnUse" x1="-86.6629" y1="536.3699" x2="-84.31" y2="534.017" gradientTransform="matrix(18 0 0 -14 1828 7751.4014)">
	<stop  offset="0" style="stop-color:#4CAB4A"/>
	<stop  offset="1" style="stop-color:#5EB25A"/>
</linearGradient>
<polygon class="st1" points="258.8,251.8 298.8,249.4 301.2,282.4 "/>
<linearGradient id="SVGID_2_" gradientUnits="userSpaceOnUse" x1="-92.2906" y1="549.6816" x2="-89.9376" y2="547.3287" gradientTransform="matrix(33 0 0 -26 3345 14512.4346)">
	<stop  offset="0" style="stop-color:#3B9E36"/>
	<stop  offset="1" style="stop-color:#7FBD7D"/>
</linearGradient>
<polygon class="st2" points="298.8,249.4 376.5,221.2 301.2,282.4 "/>
<linearGradient id="SVGID_3_" gradientUnits="userSpaceOnUse" x1="-94.0644" y1="549.5237" x2="-91.7115" y2="547.1708" gradientTransform="matrix(42 0 0 -26 4246 14512.4346)">
	<stop  offset="0" style="stop-color:#6FAD6C"/>
	<stop  offset="1" style="stop-color:#8CBF8A"/>
</linearGradient>
<polygon class="st3" points="376.5,221.2 400,247.1 301.2,282.4 "/>
<linearGradient id="SVGID_4_" gradientUnits="userSpaceOnUse" x1="-82.3155" y1="524.9156" x2="-79.9626" y2="522.5626" gradientTransform="matrix(11 0 0 -9 1099 4898.3042)">
	<stop  offset="0" style="stop-color:#CAA17F"/>
	<stop  offset="1" style="stop-color:#DDC4AE"/>
</linearGradient>
<polygon class="st4" points="190.6,183.5 216.5,176.5 202.4,197.6 "/>
<linearGradient id="SVGID_5_" gradientUnits="userSpaceOnUse" x1="-87.7803" y1="521.1705" x2="-85.4274" y2="518.8176" gradientTransform="matrix(13 0 0 -9 1275 4921.3042)">
	<stop  offset="0" style="stop-color:#E2CEBE"/>
	<stop  offset="1" style="stop-color:#E7DED0"/>
</linearGradient>
<polygon class="st5" points="134.1,230.6 136.5,251.8 164.7,232.9 "/>
<linearGradient id="SVGID_6_" gradientUnits="userSpaceOnUse" x1="-87.8676" y1="516.8634" x2="-85.5147" y2="514.5105" gradientTransform="matrix(13 0 0 -8 1275 4349.8848)">
	<stop  offset="0" style="stop-color:#E7D2C3"/>
	<stop  offset="1" style="stop-color:#F1E1D6"/>
</linearGradient>
<polygon class="st6" points="134.1,230.6 164.7,232.9 155.3,214.1 "/>
<linearGradient id="SVGID_7_" gradientUnits="userSpaceOnUse" x1="-90.6941" y1="529.0112" x2="-88.3412" y2="526.6583" gradientTransform="matrix(15 0 0 -11 1461 6050.1431)">
	<stop  offset="0" style="stop-color:#BECDA8"/>
	<stop  offset="1" style="stop-color:#A6CB98"/>
</linearGradient>
<polygon class="st7" points="134.1,230.6 136.5,251.8 101.2,256.5 "/>
<linearGradient id="SVGID_8_" gradientUnits="userSpaceOnUse" x1="-90.6157" y1="537.7096" x2="-88.2627" y2="535.3567" gradientTransform="matrix(15 0 0 -15 1461 8316.8213)">
	<stop  offset="0" style="stop-color:#58B253"/>
	<stop  offset="1" style="stop-color:#95C78A"/>
</linearGradient>
<polygon class="st8" points="101.2,256.5 136.5,251.8 103.5,287.1 "/>
<linearGradient id="SVGID_9_" gradientUnits="userSpaceOnUse" x1="-96.9728" y1="544.8398" x2="-94.6199" y2="542.4869" gradientTransform="matrix(26 0 0 -20 2518 11129.918)">
	<stop  offset="0" style="stop-color:#2F832A"/>
	<stop  offset="1" style="stop-color:#479843"/>
</linearGradient>
<polygon class="st9" points="0,258.8 23.5,230.6 61.2,277.6 "/>
<linearGradient id="SVGID_10_" gradientUnits="userSpaceOnUse" x1="-97.1435" y1="544.9282" x2="-94.7906" y2="542.5752" gradientTransform="matrix(33 0 0 -20 3228 11129.918)">
	<stop  offset="0" style="stop-color:#57A552"/>
	<stop  offset="1" style="stop-color:#46A041"/>
</linearGradient>
<polygon class="st10" points="23.5,230.6 101.2,256.5 61.2,277.6 "/>
<linearGradient id="SVGID_11_" gradientUnits="userSpaceOnUse" x1="-93.3419" y1="533.4954" x2="-90.9889" y2="531.1424" gradientTransform="matrix(18 0 0 -13 1744 7189.9819)">
	<stop  offset="0" style="stop-color:#4DAB48"/>
	<stop  offset="1" style="stop-color:#55AA51"/>
</linearGradient>
<polygon class="st11" points="101.2,256.5 103.5,287.1 61.2,277.6 "/>
<linearGradient id="SVGID_12_" gradientUnits="userSpaceOnUse" x1="-87.9723" y1="547.7577" x2="-85.6194" y2="545.4047" gradientTransform="matrix(17 0 0 -20 1710 11086.918)">
	<stop  offset="0" style="stop-color:#E0CBB9"/>
	<stop  offset="1" style="stop-color:#DEC8B5"/>
</linearGradient>
<polygon class="st12" points="216.5,176.5 237.6,129.4 256.5,138.8 "/>
<linearGradient id="SVGID_13_" gradientUnits="userSpaceOnUse" x1="-96.3153" y1="560.0148" x2="-93.9624" y2="557.6618" gradientTransform="matrix(60 0 0 -58 6019 32480.8555)">
	<stop  offset="0" style="stop-color:#BD9B7B"/>
	<stop  offset="1" style="stop-color:#D3C0AE"/>
</linearGradient>
<polygon class="st13" points="237.6,129.4 378.8,2.4 256.5,138.8 "/>
<linearGradient id="SVGID_14_" gradientUnits="userSpaceOnUse" x1="-84.2139" y1="517.1848" x2="-81.861" y2="514.8318" gradientTransform="matrix(11 0 0 -8 1084 4349.8848)">
	<stop  offset="0" style="stop-color:#F1DED1"/>
	<stop  offset="1" style="stop-color:#F8F0EA"/>
</linearGradient>
<polygon class="st14" points="155.3,214.1 164.7,232.9 181.2,214.1 "/>
<linearGradient id="SVGID_15_" gradientUnits="userSpaceOnUse" x1="-88.5804" y1="536.5732" x2="-86.2274" y2="534.2203" gradientTransform="matrix(15 0 0 -13 1484 7158.9819)">
	<stop  offset="0" style="stop-color:#E2C6B1"/>
	<stop  offset="1" style="stop-color:#DCC0AA"/>
</linearGradient>
<polygon class="st15" points="155.3,214.1 190.6,183.5 181.2,214.1 "/>
<linearGradient id="SVGID_16_" gradientUnits="userSpaceOnUse" x1="-79.5852" y1="536.3018" x2="-77.2323" y2="533.9489" gradientTransform="matrix(9 0 0 -13 895 7158.9819)">
	<stop  offset="0" style="stop-color:#D5B49A"/>
	<stop  offset="1" style="stop-color:#E7D4C5"/>
</linearGradient>
<polygon class="st16" points="190.6,183.5 202.4,197.6 181.2,214.1 "/>
<linearGradient id="SVGID_17_" gradientUnits="userSpaceOnUse" x1="-83.7059" y1="528.39" x2="-81.3529" y2="526.037" gradientTransform="matrix(12 0 0 -10 1204 5462.7236)">
	<stop  offset="0" style="stop-color:#E2CCB9"/>
	<stop  offset="1" style="stop-color:#F2E9E2"/>
</linearGradient>
<polygon class="st17" points="202.4,197.6 216.5,176.5 230.6,200 "/>
<linearGradient id="SVGID_18_" gradientUnits="userSpaceOnUse" x1="-83.1373" y1="527.741" x2="-80.7843" y2="525.3881" gradientTransform="matrix(12 0 0 -10 1204 5471.7236)">
	<stop  offset="0" style="stop-color:#DEC0A8"/>
	<stop  offset="1" style="stop-color:#F0E0D5"/>
</linearGradient>
<polygon class="st18" points="202.4,197.6 230.6,200 221.2,221.2 "/>
<linearGradient id="SVGID_19_" gradientUnits="userSpaceOnUse" x1="-91.2103" y1="535.5399" x2="-88.8574" y2="533.1869" gradientTransform="matrix(23 0 0 -13 2312 7165.9819)">
	<stop  offset="0" style="stop-color:#EFE4DD"/>
	<stop  offset="1" style="stop-color:#F1E9E2"/>
</linearGradient>
<polygon class="st19" points="230.6,200 275.3,230.6 221.2,221.2 "/>
<linearGradient id="SVGID_20_" gradientUnits="userSpaceOnUse" x1="-90.6772" y1="535.1364" x2="-88.3242" y2="532.7834" gradientTransform="matrix(23 0 0 -13 2312 7174.9819)">
	<stop  offset="0" style="stop-color:#ABC395"/>
	<stop  offset="1" style="stop-color:#EEE3D8"/>
</linearGradient>
<polygon class="st20" points="258.8,251.8 275.3,230.6 221.2,221.2 "/>
<linearGradient id="SVGID_21_" gradientUnits="userSpaceOnUse" x1="-90.1559" y1="548.14" x2="-87.8029" y2="545.787" gradientTransform="matrix(20 0 0 -20 1999 11086.918)">
	<stop  offset="0" style="stop-color:#E6D5C5"/>
	<stop  offset="1" style="stop-color:#E4D3C3"/>
</linearGradient>
<polygon class="st21" points="216.5,176.5 237.6,129.4 190.6,155.3 "/>
<linearGradient id="SVGID_22_" gradientUnits="userSpaceOnUse" x1="-83.0241" y1="535.1646" x2="-80.6711" y2="532.8116" gradientTransform="matrix(11 0 0 -12 1099 6582.5625)">
	<stop  offset="0" style="stop-color:#CCA585"/>
	<stop  offset="1" style="stop-color:#EBDDD1"/>
</linearGradient>
<polygon class="st22" points="190.6,183.5 216.5,176.5 190.6,155.3 "/>
<linearGradient id="SVGID_23_" gradientUnits="userSpaceOnUse" x1="-98.7727" y1="560.757" x2="-96.4198" y2="558.4041" gradientTransform="matrix(68 0 0 -70 6719 39252.8906)">
	<stop  offset="0" style="stop-color:#9B7756"/>
	<stop  offset="1" style="stop-color:#D0BBA6"/>
</linearGradient>
<polygon class="st23" points="2.4,14.1 16.5,0 162.4,164.7 "/>
<linearGradient id="SVGID_24_" gradientUnits="userSpaceOnUse" x1="-98.8257" y1="560.6938" x2="-96.4727" y2="558.3408" gradientTransform="matrix(74 0 0 -70 7325 39252.8906)">
	<stop  offset="0" style="stop-color:#EDE4DA"/>
	<stop  offset="1" style="stop-color:#E8DBCD"/>
</linearGradient>
<polygon class="st24" points="16.5,0 190.6,155.3 162.4,164.7 "/>
<linearGradient id="SVGID_25_" gradientUnits="userSpaceOnUse" x1="-84.9951" y1="535.9979" x2="-82.6422" y2="533.6449" gradientTransform="matrix(12 0 0 -12 1187 6582.5625)">
	<stop  offset="0" style="stop-color:#E5D2C2"/>
	<stop  offset="1" style="stop-color:#D0AD90"/>
</linearGradient>
<polygon class="st25" points="190.6,155.3 190.6,183.5 162.4,164.7 "/>
</svg>
