<?xml version="1.0" encoding="utf-8"?>
<!-- Generator: Adobe Illustrator 23.0.0, SVG Export Plug-In . SVG Version: 6.00 Build 0)  -->
<svg version="1.1" id="Слой_1" xmlns="http://www.w3.org/2000/svg" xmlns:xlink="http://www.w3.org/1999/xlink" x="0px" y="0px"
	 viewBox="0 0 400 301.3" style="enable-background:new 0 0 400 301.3;" xml:space="preserve">
<style type="text/css">
	.st0{fill:url(#triangle36_1_);}
	.st1{fill:url(#SVGID_1_);}
	.st2{fill:url(#SVGID_2_);}
	.st3{fill:url(#SVGID_3_);}
	.st4{fill:url(#SVGID_4_);}
	.st5{fill:url(#SVGID_5_);}
	.st6{fill:url(#SVGID_6_);}
	.st7{fill:url(#SVGID_7_);}
	.st8{fill:url(#SVGID_8_);}
	.st9{fill:url(#SVGID_9_);}
	.st10{fill:url(#SVGID_10_);}
	.st11{fill:url(#SVGID_11_);}
	.st12{fill:url(#SVGID_12_);}
	.st13{fill:url(#SVGID_13_);}
	.st14{fill:url(#SVGID_14_);}
	.st15{fill:url(#SVGID_15_);}
	.st16{fill:url(#SVGID_16_);}
	.st17{fill:url(#SVGID_17_);}
	.st18{fill:url(#SVGID_18_);}
	.st19{fill:url(#SVGID_19_);}
	.st20{fill:url(#SVGID_20_);}
	.st21{fill:url(#SVGID_21_);}
	.st22{fill:url(#SVGID_22_);}
	.st23{fill:url(#SVGID_23_);}
	.st24{fill:url(#SVGID_24_);}
	.st25{fill:url(#SVGID_25_);}
	.st26{fill:url(#SVGID_26_);}
	.st27{fill:url(#SVGID_27_);}
	.st28{fill:url(#SVGID_28_);}
	.st29{fill:url(#SVGID_29_);}
	.st30{fill:url(#SVGID_30_);}
	.st31{fill:url(#SVGID_31_);}
	.st32{fill:url(#SVGID_32_);}
	.st33{fill:url(#SVGID_33_);}
	.st34{fill:url(#SVGID_34_);}
	.st35{fill:url(#SVGID_35_);}
	.st36{fill:url(#SVGID_36_);}
	.st37{fill:url(#SVGID_37_);}
	.st38{fill:url(#SVGID_38_);}
	.st39{fill:url(#SVGID_39_);}
	.st40{fill:url(#SVGID_40_);}
	.st41{fill:url(#SVGID_41_);}
	.st42{fill:url(#SVGID_42_);}
	.st43{fill:url(#SVGID_43_);}
	.st44{fill:url(#SVGID_44_);}
	.st45{fill:url(#SVGID_45_);}
	.st46{fill:url(#SVGID_46_);}
</style>
<linearGradient id="triangle36_1_" gradientUnits="userSpaceOnUse" x1="69.0417" y1="548.0545" x2="70.3404" y2="546.7558" gradientTransform="matrix(200 0 0 -19 -13671 10406.8975)">
	<stop  offset="0" style="stop-color:#DE70A7"/>
	<stop  offset="1" style="stop-color:#DE5F9D"/>
</linearGradient>
<polygon id="triangle36" class="st0" points="331.2,0 332.5,24.7 72.7,0 "/>
<linearGradient id="SVGID_1_" gradientUnits="userSpaceOnUse" x1="68.41" y1="547.9134" x2="69.7087" y2="546.6147" gradientTransform="matrix(202 0 0 -20 -13811 10964.4365)">
	<stop  offset="0" style="stop-color:#CC106A"/>
	<stop  offset="1" style="stop-color:#E45F9F"/>
</linearGradient>
<polygon class="st1" points="70.1,26 332.5,24.7 72.7,0 "/>
<linearGradient id="SVGID_2_" gradientUnits="userSpaceOnUse" x1="69.0046" y1="556.2769" x2="70.3033" y2="554.9781" gradientTransform="matrix(202 0 0 -124 -13811 68967.5313)">
	<stop  offset="0" style="stop-color:#742748"/>
	<stop  offset="1" style="stop-color:#4E2236"/>
</linearGradient>
<polygon class="st2" points="70.1,26 332.5,24.7 301.3,185.7 "/>
<linearGradient id="SVGID_3_" gradientUnits="userSpaceOnUse" x1="69.1774" y1="555.8394" x2="70.4761" y2="554.5408" gradientTransform="matrix(15 0 0 -113 -710 62844.5977)">
	<stop  offset="0" style="stop-color:#742748"/>
	<stop  offset="1" style="stop-color:#4E2236"/>
</linearGradient>
<polygon class="st3" points="327.3,172.7 345.5,184.4 346.8,37.7 "/>
<linearGradient id="SVGID_4_" gradientUnits="userSpaceOnUse" x1="68.877" y1="555.751" x2="70.1757" y2="554.4523" gradientTransform="matrix(42 0 0 -129 -2559 71765.2266)">
	<stop  offset="0" style="stop-color:#742748"/>
	<stop  offset="1" style="stop-color:#4E2236"/>
</linearGradient>
<polygon class="st4" points="345.5,184.4 346.8,37.7 400,205.2 "/>
<linearGradient id="SVGID_5_" gradientUnits="userSpaceOnUse" x1="68.9403" y1="545.8877" x2="70.239" y2="544.589" gradientTransform="matrix(42 0 0 -20 -2559 11106.4365)">
	<stop  offset="0" style="stop-color:#621034"/>
	<stop  offset="1" style="stop-color:#865C64"/>
</linearGradient>
<polygon class="st5" points="345.5,184.4 353.2,210.4 400,205.2 "/>
<linearGradient id="SVGID_6_" gradientUnits="userSpaceOnUse" x1="69.4095" y1="531.7703" x2="70.7082" y2="530.4716" gradientTransform="matrix(36 0 0 -9 -2139 4989.5034)">
	<stop  offset="0" style="stop-color:#621034"/>
	<stop  offset="1" style="stop-color:#865C64"/>
</linearGradient>
<polygon class="st6" points="353.2,210.4 400,205.2 387,216.9 "/>
<linearGradient id="SVGID_7_" gradientUnits="userSpaceOnUse" x1="69.2131" y1="546.9261" x2="70.5118" y2="545.6274" gradientTransform="matrix(26 0 0 -22 -1463 12241.5156)">
	<stop  offset="0" style="stop-color:#621034"/>
	<stop  offset="1" style="stop-color:#865C64"/>
</linearGradient>
<polygon class="st7" points="335.1,220.8 353.2,210.4 368.8,239 "/>
<linearGradient id="SVGID_8_" gradientUnits="userSpaceOnUse" x1="69.3932" y1="546.9454" x2="70.6919" y2="545.6467" gradientTransform="matrix(26 0 0 -22 -1449 12241.5156)">
	<stop  offset="0" style="stop-color:#621034"/>
	<stop  offset="1" style="stop-color:#865C64"/>
</linearGradient>
<polygon class="st8" points="353.2,210.4 387,216.9 368.8,239 "/>
<linearGradient id="SVGID_9_" gradientUnits="userSpaceOnUse" x1="69.493" y1="548.5568" x2="70.7917" y2="547.2581" gradientTransform="matrix(24 0 0 -26 -1299 14467.6729)">
	<stop  offset="0" style="stop-color:#621034"/>
	<stop  offset="1" style="stop-color:#865C64"/>
</linearGradient>
<polygon class="st9" points="387,216.9 400,205.2 368.8,239 "/>
<linearGradient id="SVGID_10_" gradientUnits="userSpaceOnUse" x1="66.9343" y1="556.034" x2="68.233" y2="554.7353" gradientTransform="matrix(35 0 0 -130 -2342 72333.7656)">
	<stop  offset="0" style="stop-color:#742748"/>
	<stop  offset="1" style="stop-color:#4E2236"/>
</linearGradient>
<polygon class="st10" points="0,210.4 45.5,51.9 10.4,220.8 "/>
<linearGradient id="SVGID_11_" gradientUnits="userSpaceOnUse" x1="66.4036" y1="556.1212" x2="67.7023" y2="554.8225" gradientTransform="matrix(27 0 0 -138 -1782 76794.0781)">
	<stop  offset="0" style="stop-color:#742748"/>
	<stop  offset="1" style="stop-color:#4E2236"/>
</linearGradient>
<polygon class="st11" points="10.4,220.8 45.5,51.9 23.4,231.2 "/>
<linearGradient id="SVGID_12_" gradientUnits="userSpaceOnUse" x1="65.9413" y1="545.6942" x2="67.24" y2="544.3954" gradientTransform="matrix(23 0 0 -20 -1506 11134.4365)">
	<stop  offset="0" style="stop-color:#C05F8D"/>
	<stop  offset="1" style="stop-color:#A92362"/>
</linearGradient>
<polygon class="st12" points="10.4,220.8 23.4,231.2 40.3,246.8 "/>
<linearGradient id="SVGID_13_" gradientUnits="userSpaceOnUse" x1="65.0481" y1="556.2433" x2="66.3468" y2="554.9446" gradientTransform="matrix(17 0 0 -150 -1082 83484.5547)">
	<stop  offset="0" style="stop-color:#742748"/>
	<stop  offset="1" style="stop-color:#4E2236"/>
</linearGradient>
<polygon class="st13" points="23.4,231.2 45.5,51.9 40.3,246.8 "/>
<linearGradient id="SVGID_14_" gradientUnits="userSpaceOnUse" x1="68.787" y1="552.1885" x2="70.0857" y2="550.8899" gradientTransform="matrix(127 0 0 -43 -8659 23975.8418)">
	<stop  offset="0" style="stop-color:#742748"/>
	<stop  offset="1" style="stop-color:#4E2236"/>
</linearGradient>
<polygon class="st14" points="40.3,246.8 187,300 205.2,244.2 "/>
<linearGradient id="SVGID_15_" gradientUnits="userSpaceOnUse" x1="68.1837" y1="555.903" x2="69.4824" y2="554.6042" gradientTransform="matrix(127 0 0 -150 -8659 83484.5547)">
	<stop  offset="0" style="stop-color:#742748"/>
	<stop  offset="1" style="stop-color:#4E2236"/>
</linearGradient>
<polygon class="st15" points="40.3,246.8 45.5,51.9 205.2,244.2 "/>
<linearGradient id="SVGID_16_" gradientUnits="userSpaceOnUse" x1="68.503" y1="556.4061" x2="69.8017" y2="555.1074" gradientTransform="matrix(123 0 0 -168 -8379 93500.2656)">
	<stop  offset="0" style="stop-color:#742748"/>
	<stop  offset="1" style="stop-color:#4E2236"/>
</linearGradient>
<polygon class="st16" points="45.5,51.9 70.1,26 205.2,244.2 "/>
<linearGradient id="SVGID_17_" gradientUnits="userSpaceOnUse" x1="68.6325" y1="556.3466" x2="69.9312" y2="555.0479" gradientTransform="matrix(178 0 0 -168 -12155 93500.2656)">
	<stop  offset="0" style="stop-color:#742748"/>
	<stop  offset="1" style="stop-color:#4E2236"/>
</linearGradient>
<polygon class="st17" points="70.1,26 301.3,185.7 205.2,244.2 "/>
<linearGradient id="SVGID_18_" gradientUnits="userSpaceOnUse" x1="68.5896" y1="551.9175" x2="69.8883" y2="550.6188" gradientTransform="matrix(86 0 0 -44 -5703 24533.3809)">
	<stop  offset="0" style="stop-color:#742748"/>
	<stop  offset="1" style="stop-color:#4E2236"/>
</linearGradient>
<polygon class="st18" points="205.2,244.2 210.4,301.3 316.9,266.2 "/>
<linearGradient id="SVGID_19_" gradientUnits="userSpaceOnUse" x1="68.8227" y1="551.2693" x2="70.1214" y2="549.9706" gradientTransform="matrix(86 0 0 -37 -5703 20610.6055)">
	<stop  offset="0" style="stop-color:#742748"/>
	<stop  offset="1" style="stop-color:#4E2236"/>
</linearGradient>
<polygon class="st19" points="205.2,244.2 307.8,218.2 316.9,266.2 "/>
<linearGradient id="SVGID_20_" gradientUnits="userSpaceOnUse" x1="68.9855" y1="551.2372" x2="70.2842" y2="549.9386" gradientTransform="matrix(21 0 0 -37 -1139 20610.6055)">
	<stop  offset="0" style="stop-color:#621034"/>
	<stop  offset="1" style="stop-color:#865C64"/>
</linearGradient>
<polygon class="st20" points="307.8,218.2 335.1,220.8 316.9,266.2 "/>
<linearGradient id="SVGID_21_" gradientUnits="userSpaceOnUse" x1="68.8672" y1="550.6343" x2="70.1659" y2="549.3356" gradientTransform="matrix(40 0 0 -35 -2443 19497.5273)">
	<stop  offset="0" style="stop-color:#621034"/>
	<stop  offset="1" style="stop-color:#865C64"/>
</linearGradient>
<polygon class="st21" points="335.1,220.8 368.8,239 316.9,266.2 "/>
<linearGradient id="SVGID_22_" gradientUnits="userSpaceOnUse" x1="68.6519" y1="552.4405" x2="69.9506" y2="551.1418" gradientTransform="matrix(76 0 0 -45 -5013 25045.9199)">
	<stop  offset="0" style="stop-color:#742748"/>
	<stop  offset="1" style="stop-color:#4E2236"/>
</linearGradient>
<polygon class="st22" points="205.2,244.2 301.3,185.7 303.9,207.8 "/>
<linearGradient id="SVGID_23_" gradientUnits="userSpaceOnUse" x1="68.661" y1="549.1648" x2="69.9597" y2="547.8661" gradientTransform="matrix(79 0 0 -28 -5220 15584.752)">
	<stop  offset="0" style="stop-color:#742748"/>
	<stop  offset="1" style="stop-color:#4E2236"/>
</linearGradient>
<polygon class="st23" points="205.2,244.2 307.8,218.2 303.9,207.8 "/>
<linearGradient id="SVGID_24_" gradientUnits="userSpaceOnUse" x1="68.1224" y1="544.1127" x2="69.4211" y2="542.814" gradientTransform="matrix(4 0 0 -17 29 9434.8184)">
	<stop  offset="0" style="stop-color:#D6B611"/>
	<stop  offset="1" style="stop-color:#F3C718"/>
</linearGradient>
<polygon class="st24" points="301.3,185.7 303.9,207.8 306.5,193.5 "/>
<linearGradient id="SVGID_25_" gradientUnits="userSpaceOnUse" x1="68.898" y1="534.1282" x2="70.1967" y2="532.8295" gradientTransform="matrix(21 0 0 -10 -1139 5549.043)">
	<stop  offset="0" style="stop-color:#CA1966"/>
	<stop  offset="1" style="stop-color:#C13D4D"/>
</linearGradient>
<polygon class="st25" points="307.8,218.2 335.1,220.8 329.9,207.8 "/>
<linearGradient id="SVGID_26_" gradientUnits="userSpaceOnUse" x1="69.1667" y1="534.1323" x2="70.4654" y2="532.8336" gradientTransform="matrix(18 0 0 -10 -915 5549.043)">
	<stop  offset="0" style="stop-color:#AD1E54"/>
	<stop  offset="1" style="stop-color:#952E3E"/>
</linearGradient>
<polygon class="st26" points="335.1,220.8 353.2,210.4 329.9,207.8 "/>
<linearGradient id="SVGID_27_" gradientUnits="userSpaceOnUse" x1="69.0837" y1="546.0253" x2="70.3824" y2="544.7266" gradientTransform="matrix(18 0 0 -20 -915 11106.4365)">
	<stop  offset="0" style="stop-color:#8C1049"/>
	<stop  offset="1" style="stop-color:#9B2F41"/>
</linearGradient>
<polygon class="st27" points="345.5,184.4 353.2,210.4 329.9,207.8 "/>
<linearGradient id="SVGID_28_" gradientUnits="userSpaceOnUse" x1="69.0232" y1="532.2805" x2="70.3219" y2="530.9818" gradientTransform="matrix(14 0 0 -9 -641 4964.5034)">
	<stop  offset="0" style="stop-color:#710F3C"/>
	<stop  offset="1" style="stop-color:#8B1248"/>
</linearGradient>
<polygon class="st28" points="327.3,172.7 345.5,184.4 337.7,184.4 "/>
<linearGradient id="SVGID_29_" gradientUnits="userSpaceOnUse" x1="69.3653" y1="544.9113" x2="70.664" y2="543.6126" gradientTransform="matrix(8 0 0 -18 -227 9991.3584)">
	<stop  offset="0" style="stop-color:#CE2662"/>
	<stop  offset="1" style="stop-color:#D1325D"/>
</linearGradient>
<polygon class="st29" points="327.3,194.8 329.9,207.8 337.7,184.4 "/>
<linearGradient id="SVGID_30_" gradientUnits="userSpaceOnUse" x1="69.2392" y1="544.8301" x2="70.5379" y2="543.5314" gradientTransform="matrix(12 0 0 -18 -501 9991.3584)">
	<stop  offset="0" style="stop-color:#DB3F5A"/>
	<stop  offset="1" style="stop-color:#9F1253"/>
</linearGradient>
<polygon class="st30" points="329.9,207.8 345.5,184.4 337.7,184.4 "/>
<linearGradient id="SVGID_31_" gradientUnits="userSpaceOnUse" x1="68.889" y1="534.6954" x2="70.1877" y2="533.3967" gradientTransform="matrix(11 0 0 -10 -437 5522.043)">
	<stop  offset="0" style="stop-color:#91104C"/>
	<stop  offset="1" style="stop-color:#DF4558"/>
</linearGradient>
<polygon class="st31" points="327.3,172.7 337.7,184.4 323.4,185.7 "/>
<linearGradient id="SVGID_32_" gradientUnits="userSpaceOnUse" x1="69.2137" y1="529.0321" x2="70.5124" y2="527.7335" gradientTransform="matrix(11 0 0 -8 -437 4415.9644)">
	<stop  offset="0" style="stop-color:#DB7B38"/>
	<stop  offset="1" style="stop-color:#E17E3A"/>
</linearGradient>
<polygon class="st32" points="327.3,194.8 337.7,184.4 323.4,185.7 "/>
<linearGradient id="SVGID_33_" gradientUnits="userSpaceOnUse" x1="68.8458" y1="555.9908" x2="70.1445" y2="554.6921" gradientTransform="matrix(24 0 0 -124 -1351 68967.5313)">
	<stop  offset="0" style="stop-color:#742748"/>
	<stop  offset="1" style="stop-color:#4E2236"/>
</linearGradient>
<polygon class="st33" points="301.3,185.7 332.5,24.7 316.9,168.8 "/>
<linearGradient id="SVGID_34_" gradientUnits="userSpaceOnUse" x1="69.1134" y1="540.3457" x2="70.4121" y2="539.047" gradientTransform="matrix(8 0 0 -13 -235 7191.6611)">
	<stop  offset="0" style="stop-color:#BC5B3A"/>
	<stop  offset="1" style="stop-color:#4B0E27"/>
</linearGradient>
<polygon class="st34" points="323.4,185.7 327.3,172.7 316.9,168.8 "/>
<linearGradient id="SVGID_35_" gradientUnits="userSpaceOnUse" x1="69.0043" y1="555.6736" x2="70.303" y2="554.3749" gradientTransform="matrix(23 0 0 -104 -1270 57826.7422)">
	<stop  offset="0" style="stop-color:#742748"/>
	<stop  offset="1" style="stop-color:#4E2236"/>
</linearGradient>
<polygon class="st35" points="327.3,172.7 346.8,37.7 316.9,168.8 "/>
<linearGradient id="SVGID_36_" gradientUnits="userSpaceOnUse" x1="68.9657" y1="555.7802" x2="70.2644" y2="554.4814" gradientTransform="matrix(23 0 0 -111 -1270 61719.5195)">
	<stop  offset="0" style="stop-color:#742748"/>
	<stop  offset="1" style="stop-color:#4E2236"/>
</linearGradient>
<polygon class="st36" points="332.5,24.7 346.8,37.7 316.9,168.8 "/>
<linearGradient id="SVGID_37_" gradientUnits="userSpaceOnUse" x1="68.6568" y1="529.1664" x2="69.9555" y2="527.8677" gradientTransform="matrix(7 0 0 -8 -178 4414.9644)">
	<stop  offset="0" style="stop-color:#D4BE0B"/>
	<stop  offset="1" style="stop-color:#F7E509"/>
</linearGradient>
<polygon class="st37" points="301.3,185.7 306.5,193.5 310.4,183.1 "/>
<linearGradient id="SVGID_38_" gradientUnits="userSpaceOnUse" x1="68.6916" y1="540.2177" x2="69.9903" y2="538.919" gradientTransform="matrix(12 0 0 -13 -523 7191.6611)">
	<stop  offset="0" style="stop-color:#B1950F"/>
	<stop  offset="1" style="stop-color:#947C0E"/>
</linearGradient>
<polygon class="st38" points="301.3,185.7 316.9,168.8 310.4,183.1 "/>
<linearGradient id="SVGID_39_" gradientUnits="userSpaceOnUse" x1="68.7266" y1="540.1053" x2="70.0253" y2="538.8066" gradientTransform="matrix(10 0 0 -13 -378 7191.6611)">
	<stop  offset="0" style="stop-color:#79471E"/>
	<stop  offset="1" style="stop-color:#E9AD23"/>
</linearGradient>
<polygon class="st39" points="316.9,168.8 323.4,185.7 310.4,183.1 "/>
<linearGradient id="SVGID_40_" gradientUnits="userSpaceOnUse" x1="68.542" y1="536.4048" x2="69.8407" y2="535.1061" gradientTransform="matrix(10 0 0 -11 -383 6095.5825)">
	<stop  offset="0" style="stop-color:#F0C419"/>
	<stop  offset="1" style="stop-color:#FBF502"/>
</linearGradient>
<polygon class="st40" points="303.9,207.8 306.5,193.5 316.9,200 "/>
<linearGradient id="SVGID_41_" gradientUnits="userSpaceOnUse" x1="68.787" y1="541.0403" x2="70.0857" y2="539.7416" gradientTransform="matrix(10 0 0 -14 -383 7773.2007)">
	<stop  offset="0" style="stop-color:#DA6843"/>
	<stop  offset="1" style="stop-color:#D26B3C"/>
</linearGradient>
<polygon class="st41" points="303.9,207.8 307.8,218.2 316.9,200 "/>
<linearGradient id="SVGID_42_" gradientUnits="userSpaceOnUse" x1="68.6086" y1="539.8869" x2="69.9073" y2="538.5882" gradientTransform="matrix(8 0 0 -13 -243 7202.6611)">
	<stop  offset="0" style="stop-color:#FDF701"/>
	<stop  offset="1" style="stop-color:#FAEE05"/>
</linearGradient>
<polygon class="st42" points="306.5,193.5 310.4,183.1 316.9,200 "/>
<linearGradient id="SVGID_43_" gradientUnits="userSpaceOnUse" x1="68.731" y1="540.8038" x2="70.0297" y2="539.5051" gradientTransform="matrix(17 0 0 -14 -863 7773.2007)">
	<stop  offset="0" style="stop-color:#CD4051"/>
	<stop  offset="1" style="stop-color:#EA9A2D"/>
</linearGradient>
<polygon class="st43" points="307.8,218.2 329.9,207.8 316.9,200 "/>
<linearGradient id="SVGID_44_" gradientUnits="userSpaceOnUse" x1="68.9513" y1="540.0773" x2="70.2501" y2="538.7786" gradientTransform="matrix(10 0 0 -13 -378 7202.6611)">
	<stop  offset="0" style="stop-color:#FAEB07"/>
	<stop  offset="1" style="stop-color:#F6DC0E"/>
</linearGradient>
<polygon class="st44" points="310.4,183.1 323.4,185.7 316.9,200 "/>
<linearGradient id="SVGID_45_" gradientUnits="userSpaceOnUse" x1="68.8636" y1="536.5935" x2="70.1623" y2="535.2948" gradientTransform="matrix(8 0 0 -11 -235 6089.5825)">
	<stop  offset="0" style="stop-color:#EEBD1D"/>
	<stop  offset="1" style="stop-color:#E7AB22"/>
</linearGradient>
<polygon class="st45" points="323.4,185.7 327.3,194.8 316.9,200 "/>
<linearGradient id="SVGID_46_" gradientUnits="userSpaceOnUse" x1="69.1182" y1="534.5536" x2="70.4169" y2="533.2549" gradientTransform="matrix(10 0 0 -10 -373 5539.043)">
	<stop  offset="0" style="stop-color:#D26142"/>
	<stop  offset="1" style="stop-color:#E3A325"/>
</linearGradient>
<polygon class="st46" points="327.3,194.8 329.9,207.8 316.9,200 "/>
</svg>
