<?xml version="1.0" encoding="utf-8"?>
<!-- Generator: Adobe Illustrator 23.0.0, SVG Export Plug-In . SVG Version: 6.00 Build 0)  -->
<svg version="1.1" id="Слой_1" xmlns="http://www.w3.org/2000/svg" xmlns:xlink="http://www.w3.org/1999/xlink" x="0px" y="0px"
	 viewBox="0 0 400 488.1" style="enable-background:new 0 0 400 488.1;" xml:space="preserve">
<style type="text/css">
	.st0{fill:url(#triangle36_1_);}
	.st1{fill:url(#SVGID_1_);}
	.st2{fill:url(#SVGID_2_);}
	.st3{fill:url(#SVGID_3_);}
	.st4{fill:url(#SVGID_4_);}
	.st5{fill:url(#SVGID_5_);}
	.st6{fill:url(#SVGID_6_);}
	.st7{fill:url(#SVGID_7_);}
	.st8{fill:url(#SVGID_8_);}
	.st9{fill:url(#SVGID_9_);}
	.st10{fill:url(#SVGID_10_);}
	.st11{fill:url(#SVGID_11_);}
	.st12{fill:url(#SVGID_12_);}
	.st13{fill:url(#SVGID_13_);}
	.st14{fill:url(#SVGID_14_);}
	.st15{fill:url(#SVGID_15_);}
	.st16{fill:url(#SVGID_16_);}
	.st17{fill:url(#SVGID_17_);}
	.st18{fill:url(#SVGID_18_);}
	.st19{fill:url(#SVGID_19_);}
	.st20{fill:url(#SVGID_20_);}
	.st21{fill:url(#SVGID_21_);}
	.st22{fill:url(#SVGID_22_);}
	.st23{fill:url(#SVGID_23_);}
	.st24{fill:url(#SVGID_24_);}
	.st25{fill:url(#SVGID_25_);}
	.st26{fill:url(#SVGID_26_);}
	.st27{fill:url(#SVGID_27_);}
	.st28{fill:url(#SVGID_28_);}
	.st29{fill:url(#SVGID_29_);}
	.st30{fill:url(#SVGID_30_);}
	.st31{fill:url(#SVGID_31_);}
	.st32{fill:url(#SVGID_32_);}
	.st33{fill:url(#SVGID_33_);}
	.st34{fill:url(#SVGID_34_);}
	.st35{fill:url(#SVGID_35_);}
	.st36{fill:url(#SVGID_36_);}
	.st37{fill:url(#SVGID_37_);}
	.st38{fill:url(#SVGID_38_);}
	.st39{fill:url(#SVGID_39_);}
	.st40{fill:url(#SVGID_40_);}
	.st41{fill:url(#SVGID_41_);}
	.st42{fill:url(#SVGID_42_);}
	.st43{fill:url(#SVGID_43_);}
	.st44{fill:url(#SVGID_44_);}
	.st45{fill:url(#SVGID_45_);}
	.st46{fill:url(#SVGID_46_);}
	.st47{fill:url(#SVGID_47_);}
	.st48{fill:url(#SVGID_48_);}
	.st49{fill:url(#SVGID_49_);}
	.st50{fill:url(#SVGID_50_);}
	.st51{fill:url(#SVGID_51_);}
	.st52{fill:url(#SVGID_52_);}
	.st53{fill:url(#SVGID_53_);}
	.st54{fill:url(#SVGID_54_);}
	.st55{fill:url(#SVGID_55_);}
	.st56{fill:url(#SVGID_56_);}
	.st57{fill:url(#SVGID_57_);}
	.st58{fill:url(#SVGID_58_);}
	.st59{fill:url(#SVGID_59_);}
	.st60{fill:url(#SVGID_60_);}
	.st61{fill:url(#SVGID_61_);}
	.st62{fill:url(#SVGID_62_);}
	.st63{fill:url(#SVGID_63_);}
	.st64{fill:url(#SVGID_64_);}
	.st65{fill:url(#SVGID_65_);}
	.st66{fill:url(#SVGID_66_);}
	.st67{fill:url(#SVGID_67_);}
	.st68{fill:url(#SVGID_68_);}
	.st69{fill:url(#SVGID_69_);}
	.st70{fill:url(#SVGID_70_);}
	.st71{fill:url(#SVGID_71_);}
	.st72{fill:url(#SVGID_72_);}
	.st73{fill:url(#SVGID_73_);}
	.st74{fill:url(#SVGID_74_);}
	.st75{fill:url(#SVGID_75_);}
	.st76{fill:url(#SVGID_76_);}
	.st77{fill:url(#SVGID_77_);}
	.st78{fill:url(#SVGID_78_);}
	.st79{fill:url(#SVGID_79_);}
	.st80{fill:url(#SVGID_80_);}
	.st81{fill:url(#SVGID_81_);}
	.st82{fill:url(#SVGID_82_);}
	.st83{fill:url(#SVGID_83_);}
	.st84{fill:url(#SVGID_84_);}
	.st85{fill:url(#SVGID_85_);}
	.st86{fill:url(#SVGID_86_);}
	.st87{fill:url(#SVGID_87_);}
	.st88{fill:url(#SVGID_88_);}
	.st89{fill:url(#SVGID_89_);}
	.st90{fill:url(#SVGID_90_);}
</style>
<linearGradient id="triangle36_1_" gradientUnits="userSpaceOnUse" x1="-158.8593" y1="662.3681" x2="-158.375" y2="661.8839" gradientTransform="matrix(124 0 0 -106 19931 70223.5938)">
	<stop  offset="0" style="stop-color:#FFC13E"/>
	<stop  offset="1" style="stop-color:#F5AE14"/>
</linearGradient>
<polygon id="triangle36" class="st0" points="239.2,58.1 299.3,42.6 272.2,6.8 "/>
<linearGradient id="SVGID_1_" gradientUnits="userSpaceOnUse" x1="-159.9997" y1="661.7691" x2="-159.5154" y2="661.2849" gradientTransform="matrix(86 0 0 -74 14033 48976.9453)">
	<stop  offset="0" style="stop-color:#FFB211"/>
	<stop  offset="1" style="stop-color:#F5CA45"/>
</linearGradient>
<polygon class="st1" points="299.3,42.6 313.8,27.1 272.2,6.8 "/>
<linearGradient id="SVGID_2_" gradientUnits="userSpaceOnUse" x1="-158.4479" y1="662.4428" x2="-157.9637" y2="661.9586" gradientTransform="matrix(120 0 0 -120 19183 79505.0078)">
	<stop  offset="0" style="stop-color:#FFA40D"/>
	<stop  offset="1" style="stop-color:#F6BE32"/>
</linearGradient>
<polygon class="st2" points="181.1,52.3 239.2,58.1 186,0 "/>
<linearGradient id="SVGID_3_" gradientUnits="userSpaceOnUse" x1="-157.8778" y1="662.6024" x2="-157.3935" y2="662.1182" gradientTransform="matrix(178 0 0 -120 28299 79505.0078)">
	<stop  offset="0" style="stop-color:#FFC83C"/>
	<stop  offset="1" style="stop-color:#ECB712"/>
</linearGradient>
<polygon class="st3" points="239.2,58.1 272.2,6.8 186,0 "/>
<linearGradient id="SVGID_4_" gradientUnits="userSpaceOnUse" x1="-158.1425" y1="662.0042" x2="-157.6582" y2="661.5199" gradientTransform="matrix(62 0 0 -80 9907 52964.6914)">
	<stop  offset="0" style="stop-color:#FFB308"/>
	<stop  offset="1" style="stop-color:#F8AD08"/>
</linearGradient>
<polygon class="st4" points="98.8,30 124,47.5 128.8,8.7 "/>
<linearGradient id="SVGID_5_" gradientUnits="userSpaceOnUse" x1="-157.9535" y1="662.0754" x2="-157.4693" y2="661.5912" gradientTransform="matrix(118 0 0 -90 18751 59604.2695)">
	<stop  offset="0" style="stop-color:#FFA70D"/>
	<stop  offset="1" style="stop-color:#F8A909"/>
</linearGradient>
<polygon class="st5" points="124,47.5 181.1,52.3 128.8,8.7 "/>
<linearGradient id="SVGID_6_" gradientUnits="userSpaceOnUse" x1="-157.799" y1="662.4852" x2="-157.3147" y2="662.001" gradientTransform="matrix(118 0 0 -108 18761 71537.5078)">
	<stop  offset="0" style="stop-color:#FFAC0B"/>
	<stop  offset="1" style="stop-color:#EFB80B"/>
</linearGradient>
<polygon class="st6" points="181.1,52.3 186,0 128.8,8.7 "/>
<linearGradient id="SVGID_7_" gradientUnits="userSpaceOnUse" x1="-157.6852" y1="660.3405" x2="-157.2009" y2="659.8562" gradientTransform="matrix(86 0 0 -44 13651 29062.2109)">
	<stop  offset="0" style="stop-color:#FFB707"/>
	<stop  offset="1" style="stop-color:#F8C728"/>
</linearGradient>
<polygon class="st7" points="98.8,30 128.8,8.7 87.2,23.2 "/>
<linearGradient id="SVGID_8_" gradientUnits="userSpaceOnUse" x1="-158.744" y1="657.2818" x2="-158.2597" y2="656.7975" gradientTransform="matrix(34 0 0 -22 5477 14485.1396)">
	<stop  offset="0" style="stop-color:#FFE872"/>
	<stop  offset="1" style="stop-color:#FFD64F"/>
</linearGradient>
<polygon class="st8" points="87.2,23.2 98.8,30 82.3,33.9 "/>
<linearGradient id="SVGID_9_" gradientUnits="userSpaceOnUse" x1="-158.6456" y1="662.2547" x2="-158.1613" y2="661.7704" gradientTransform="matrix(34 0 0 -80 5477 53008.6914)">
	<stop  offset="0" style="stop-color:#FFE872"/>
	<stop  offset="1" style="stop-color:#E8BE29"/>
</linearGradient>
<polygon class="st9" points="82.3,33.9 98.8,30 85.2,68.8 "/>
<linearGradient id="SVGID_10_" gradientUnits="userSpaceOnUse" x1="-157.8016" y1="662.1789" x2="-157.3173" y2="661.6946" gradientTransform="matrix(80 0 0 -80 12705 53008.6914)">
	<stop  offset="0" style="stop-color:#FFCE40"/>
	<stop  offset="1" style="stop-color:#E8B82C"/>
</linearGradient>
<polygon class="st10" points="98.8,30 124,47.5 85.2,68.8 "/>
<linearGradient id="SVGID_11_" gradientUnits="userSpaceOnUse" x1="-159.3738" y1="660.063" x2="-158.8895" y2="659.5788" gradientTransform="matrix(110 0 0 -42 17801 27730.2949)">
	<stop  offset="0" style="stop-color:#EAB10D"/>
	<stop  offset="1" style="stop-color:#AF9643"/>
</linearGradient>
<polygon class="st11" points="272.2,6.8 313.8,27.1 325.4,26.2 "/>
<linearGradient id="SVGID_12_" gradientUnits="userSpaceOnUse" x1="-158.7345" y1="662.3891" x2="-158.2503" y2="661.9048" gradientTransform="matrix(124 0 0 -76 19931 50378.8633)">
	<stop  offset="0" style="stop-color:#FFE58C"/>
	<stop  offset="1" style="stop-color:#FBC945"/>
</linearGradient>
<polygon class="st12" points="239.2,58.1 299.3,42.6 278.9,79.4 "/>
<linearGradient id="SVGID_13_" gradientUnits="userSpaceOnUse" x1="-159.7841" y1="662.2499" x2="-159.2999" y2="661.7656" gradientTransform="matrix(98 0 0 -76 15931 50378.8633)">
	<stop  offset="0" style="stop-color:#FFB319"/>
	<stop  offset="1" style="stop-color:#A67C0B"/>
</linearGradient>
<polygon class="st13" points="299.3,42.6 326.4,67.8 278.9,79.4 "/>
<linearGradient id="SVGID_14_" gradientUnits="userSpaceOnUse" x1="-158.117" y1="662.689" x2="-157.6327" y2="662.2048" gradientTransform="matrix(134 0 0 -84 21381 55710.5234)">
	<stop  offset="0" style="stop-color:#FFC042"/>
	<stop  offset="1" style="stop-color:#F7C751"/>
</linearGradient>
<polygon class="st14" points="181.1,52.3 239.2,58.1 246,93 "/>
<linearGradient id="SVGID_15_" gradientUnits="userSpaceOnUse" x1="-159.7823" y1="662.4039" x2="-159.298" y2="661.9196" gradientTransform="matrix(82 0 0 -72 13337 47755.0313)">
	<stop  offset="0" style="stop-color:#FFC645"/>
	<stop  offset="1" style="stop-color:#F3AE11"/>
</linearGradient>
<polygon class="st15" points="239.2,58.1 278.9,79.4 246,93 "/>
<linearGradient id="SVGID_16_" gradientUnits="userSpaceOnUse" x1="-157.4349" y1="662.7321" x2="-156.9507" y2="662.2478" gradientTransform="matrix(132 0 0 -96 20869 63668.0195)">
	<stop  offset="0" style="stop-color:#DCBE45"/>
	<stop  offset="1" style="stop-color:#F8BA34"/>
</linearGradient>
<polygon class="st16" points="85.2,68.8 124,47.5 149.2,93.9 "/>
<linearGradient id="SVGID_17_" gradientUnits="userSpaceOnUse" x1="-157.8154" y1="662.7549" x2="-157.3312" y2="662.2706" gradientTransform="matrix(118 0 0 -96 18751 63668.0195)">
	<stop  offset="0" style="stop-color:#FFC545"/>
	<stop  offset="1" style="stop-color:#F8BC30"/>
</linearGradient>
<polygon class="st17" points="124,47.5 181.1,52.3 149.2,93.9 "/>
<linearGradient id="SVGID_18_" gradientUnits="userSpaceOnUse" x1="-157.7204" y1="662.5484" x2="-157.2361" y2="662.0641" gradientTransform="matrix(200 0 0 -86 31677 57038.4414)">
	<stop  offset="0" style="stop-color:#FFB50D"/>
	<stop  offset="1" style="stop-color:#F0B209"/>
</linearGradient>
<polygon class="st18" points="181.1,52.3 246,93 149.2,93.9 "/>
<linearGradient id="SVGID_19_" gradientUnits="userSpaceOnUse" x1="-157.495" y1="662.9858" x2="-157.0107" y2="662.5016" gradientTransform="matrix(132 0 0 -104 20869 69023.6797)">
	<stop  offset="0" style="stop-color:#DCB300"/>
	<stop  offset="1" style="stop-color:#F4BC01"/>
</linearGradient>
<polygon class="st19" points="85.2,68.8 149.2,93.9 94.9,119.1 "/>
<linearGradient id="SVGID_20_" gradientUnits="userSpaceOnUse" x1="-157.3866" y1="663.5806" x2="-156.9023" y2="663.0964" gradientTransform="matrix(256 0 0 -188 40413 124846.1328)">
	<stop  offset="0" style="stop-color:#F5C104"/>
	<stop  offset="1" style="stop-color:#F6BC07"/>
</linearGradient>
<polygon class="st20" points="149.2,93.9 246,93 122,184 "/>
<linearGradient id="SVGID_21_" gradientUnits="userSpaceOnUse" x1="-158.7449" y1="663.1995" x2="-158.2607" y2="662.7152" gradientTransform="matrix(130 0 0 -108 20887 71701.5078)">
	<stop  offset="0" style="stop-color:#EDAB0E"/>
	<stop  offset="1" style="stop-color:#A77F09"/>
</linearGradient>
<polygon class="st21" points="246,93 278.9,79.4 309,131.7 "/>
<linearGradient id="SVGID_22_" gradientUnits="userSpaceOnUse" x1="-157.3431" y1="663.7318" x2="-156.8589" y2="663.2474" gradientTransform="matrix(262 0 0 -272 41355 180618.5938)">
	<stop  offset="0" style="stop-color:#FEC608"/>
	<stop  offset="1" style="stop-color:#F4AC0D"/>
</linearGradient>
<polygon class="st22" points="122,184 246,93 248.9,224.7 "/>
<linearGradient id="SVGID_23_" gradientUnits="userSpaceOnUse" x1="-159.8972" y1="663.6169" x2="-159.4129" y2="663.1327" gradientTransform="matrix(82 0 0 -272 13351 180618.5938)">
	<stop  offset="0" style="stop-color:#EDAD14"/>
	<stop  offset="1" style="stop-color:#A4750C"/>
</linearGradient>
<polygon class="st23" points="246,93 285.7,189.8 248.9,224.7 "/>
<linearGradient id="SVGID_24_" gradientUnits="userSpaceOnUse" x1="-157.4242" y1="664.1439" x2="-156.9399" y2="663.6597" gradientTransform="matrix(262 0 0 -112 41355 74573.3438)">
	<stop  offset="0" style="stop-color:#FECB05"/>
	<stop  offset="1" style="stop-color:#FBC107"/>
</linearGradient>
<polygon class="st24" points="122,184 248.9,224.7 168.5,238.3 "/>
<linearGradient id="SVGID_25_" gradientUnits="userSpaceOnUse" x1="-157.9924" y1="664.1696" x2="-157.5082" y2="663.6854" gradientTransform="matrix(98 0 0 -134 15607 89180.4141)">
	<stop  offset="0" style="stop-color:#F7BB04"/>
	<stop  offset="1" style="stop-color:#F4C302"/>
</linearGradient>
<polygon class="st25" points="122,184 168.5,238.3 169.5,248.9 "/>
<linearGradient id="SVGID_26_" gradientUnits="userSpaceOnUse" x1="-157.8339" y1="665.2571" x2="-157.3496" y2="664.7728" gradientTransform="matrix(166 0 0 -56 26379 37475.707)">
	<stop  offset="0" style="stop-color:#FCCA09"/>
	<stop  offset="1" style="stop-color:#EDA10D"/>
</linearGradient>
<polygon class="st26" points="168.5,238.3 248.9,224.7 233.4,251.8 "/>
<linearGradient id="SVGID_27_" gradientUnits="userSpaceOnUse" x1="-159.0147" y1="664.2097" x2="-158.5304" y2="663.7254" gradientTransform="matrix(108 0 0 -128 17407 85208.6641)">
	<stop  offset="0" style="stop-color:#EA950B"/>
	<stop  offset="1" style="stop-color:#8E5708"/>
</linearGradient>
<polygon class="st27" points="248.9,224.7 285.7,189.8 233.4,251.8 "/>
<linearGradient id="SVGID_28_" gradientUnits="userSpaceOnUse" x1="-161.9966" y1="665.6564" x2="-161.5124" y2="665.1722" gradientTransform="matrix(30 0 0 -48 5027 32192.043)">
	<stop  offset="0" style="stop-color:#FCD716"/>
	<stop  offset="1" style="stop-color:#FACB11"/>
</linearGradient>
<polygon class="st28" points="168.5,238.3 169.5,248.9 183.1,261.5 "/>
<linearGradient id="SVGID_29_" gradientUnits="userSpaceOnUse" x1="-158.3765" y1="665.6298" x2="-157.8922" y2="665.1456" gradientTransform="matrix(114 0 0 -48 18215 32192.043)">
	<stop  offset="0" style="stop-color:#FCCF06"/>
	<stop  offset="1" style="stop-color:#F9B60A"/>
</linearGradient>
<polygon class="st29" points="168.5,238.3 183.1,261.5 223.7,258.6 "/>
<linearGradient id="SVGID_30_" gradientUnits="userSpaceOnUse" x1="-158.0858" y1="665.9756" x2="-157.6015" y2="665.4913" gradientTransform="matrix(134 0 0 -42 21355 28208.2949)">
	<stop  offset="0" style="stop-color:#FCCC08"/>
	<stop  offset="1" style="stop-color:#E99E0D"/>
</linearGradient>
<polygon class="st30" points="168.5,238.3 233.4,251.8 223.7,258.6 "/>
<linearGradient id="SVGID_31_" gradientUnits="userSpaceOnUse" x1="-158.9201" y1="664.8685" x2="-158.4358" y2="664.3842" gradientTransform="matrix(84 0 0 -120 13535 80039.0078)">
	<stop  offset="0" style="stop-color:#FFC40A"/>
	<stop  offset="1" style="stop-color:#F9BF26"/>
</linearGradient>
<polygon class="st31" points="183.1,261.5 223.7,258.6 193.7,316.7 "/>
<linearGradient id="SVGID_32_" gradientUnits="userSpaceOnUse" x1="-159.8031" y1="664.6852" x2="-159.3189" y2="664.2009" gradientTransform="matrix(62 0 0 -150 10103 99957.7422)">
	<stop  offset="0" style="stop-color:#FAD048"/>
	<stop  offset="1" style="stop-color:#F6AB19"/>
</linearGradient>
<polygon class="st32" points="193.7,316.7 223.7,258.6 216.9,331.2 "/>
<linearGradient id="SVGID_33_" gradientUnits="userSpaceOnUse" x1="-159.1445" y1="665.2173" x2="-158.6602" y2="664.733" gradientTransform="matrix(76 0 0 -130 12273 86798.5859)">
	<stop  offset="0" style="stop-color:#FFD433"/>
	<stop  offset="1" style="stop-color:#FFCA33"/>
</linearGradient>
<polygon class="st33" points="193.7,316.7 216.9,331.2 180.1,379.7 "/>
<linearGradient id="SVGID_34_" gradientUnits="userSpaceOnUse" x1="-158.9885" y1="664.9423" x2="-158.5042" y2="664.458" gradientTransform="matrix(70 0 0 -170 11289 113356.8984)">
	<stop  offset="0" style="stop-color:#FFD643"/>
	<stop  offset="1" style="stop-color:#FFD028"/>
</linearGradient>
<polygon class="st34" points="180.1,379.7 193.7,316.7 159.8,399 "/>
<linearGradient id="SVGID_35_" gradientUnits="userSpaceOnUse" x1="-158.188" y1="665.2798" x2="-157.7037" y2="664.7956" gradientTransform="matrix(138 0 0 -136 22007 90812.3281)">
	<stop  offset="0" style="stop-color:#FECB48"/>
	<stop  offset="1" style="stop-color:#CA850C"/>
</linearGradient>
<polygon class="st35" points="180.1,379.7 216.9,331.2 247,397.1 "/>
<linearGradient id="SVGID_36_" gradientUnits="userSpaceOnUse" x1="-158.0995" y1="666.8826" x2="-157.6152" y2="666.3983" gradientTransform="matrix(138 0 0 -82 22007 55058.6094)">
	<stop  offset="0" style="stop-color:#FBD355"/>
	<stop  offset="1" style="stop-color:#C78716"/>
</linearGradient>
<polygon class="st36" points="180.1,379.7 247,397.1 246,419.4 "/>
<linearGradient id="SVGID_37_" gradientUnits="userSpaceOnUse" x1="-160.3141" y1="666.8879" x2="-159.8299" y2="666.4036" gradientTransform="matrix(42 0 0 -80 6893 53730.6914)">
	<stop  offset="0" style="stop-color:#FFCE0E"/>
	<stop  offset="1" style="stop-color:#F8CF2C"/>
</linearGradient>
<polygon class="st37" points="159.8,399 180.1,379.7 159.8,418.4 "/>
<linearGradient id="SVGID_38_" gradientUnits="userSpaceOnUse" x1="-157.8715" y1="666.7269" x2="-157.3873" y2="666.2426" gradientTransform="matrix(178 0 0 -82 28245 55058.6094)">
	<stop  offset="0" style="stop-color:#FFDB46"/>
	<stop  offset="1" style="stop-color:#F7B709"/>
</linearGradient>
<polygon class="st38" points="180.1,379.7 246,419.4 159.8,418.4 "/>
<linearGradient id="SVGID_39_" gradientUnits="userSpaceOnUse" x1="-159.9731" y1="666.9678" x2="-159.4888" y2="666.4835" gradientTransform="matrix(76 0 0 -94 12409 63108.1016)">
	<stop  offset="0" style="stop-color:#FD9C10"/>
	<stop  offset="1" style="stop-color:#BE780F"/>
</linearGradient>
<polygon class="st39" points="246,419.4 281.8,438.7 282.8,464.9 "/>
<linearGradient id="SVGID_40_" gradientUnits="userSpaceOnUse" x1="-159.5013" y1="665.8262" x2="-159.017" y2="665.342" gradientTransform="matrix(92 0 0 -142 14905 94978.0781)">
	<stop  offset="0" style="stop-color:#FBBB32"/>
	<stop  offset="1" style="stop-color:#E0A025"/>
</linearGradient>
<polygon class="st40" points="246,419.4 282.8,464.9 238.3,488.1 "/>
<linearGradient id="SVGID_41_" gradientUnits="userSpaceOnUse" x1="-158.0282" y1="667.1608" x2="-157.544" y2="666.6765" gradientTransform="matrix(108 0 0 -92 17185 61828.1875)">
	<stop  offset="0" style="stop-color:#FFDC6E"/>
	<stop  offset="1" style="stop-color:#FCD62F"/>
</linearGradient>
<polygon class="st41" points="125.9,442.6 125.9,469.7 178.2,487.2 "/>
<linearGradient id="SVGID_42_" gradientUnits="userSpaceOnUse" x1="-157.9187" y1="665.9349" x2="-157.4344" y2="665.4507" gradientTransform="matrix(108 0 0 -142 17185 94976.0781)">
	<stop  offset="0" style="stop-color:#FFDD6D"/>
	<stop  offset="1" style="stop-color:#F7CE2E"/>
</linearGradient>
<polygon class="st42" points="125.9,442.6 159.8,418.4 178.2,487.2 "/>
<linearGradient id="SVGID_43_" gradientUnits="userSpaceOnUse" x1="-157.7578" y1="665.9233" x2="-157.2736" y2="665.439" gradientTransform="matrix(178 0 0 -142 28245 94976.0781)">
	<stop  offset="0" style="stop-color:#F5C305"/>
	<stop  offset="1" style="stop-color:#FDBD0A"/>
</linearGradient>
<polygon class="st43" points="159.8,418.4 246,419.4 178.2,487.2 "/>
<linearGradient id="SVGID_44_" gradientUnits="userSpaceOnUse" x1="-158.1325" y1="665.9081" x2="-157.6483" y2="665.4238" gradientTransform="matrix(140 0 0 -142 22317 94978.0781)">
	<stop  offset="0" style="stop-color:#E9AE2F"/>
	<stop  offset="1" style="stop-color:#FDC123"/>
</linearGradient>
<polygon class="st44" points="238.3,488.1 246,419.4 178.2,487.2 "/>
<linearGradient id="SVGID_45_" gradientUnits="userSpaceOnUse" x1="-160.7986" y1="661.7411" x2="-160.3144" y2="661.2569" gradientTransform="matrix(76 0 0 -64 12519 42379.3672)">
	<stop  offset="0" style="stop-color:#FFD168"/>
	<stop  offset="1" style="stop-color:#AAA478"/>
</linearGradient>
<polygon class="st45" points="299.3,42.6 313.8,27.1 336.1,58.1 "/>
<linearGradient id="SVGID_46_" gradientUnits="userSpaceOnUse" x1="-160.7712" y1="661.5774" x2="-160.2869" y2="661.0931" gradientTransform="matrix(76 0 0 -52 12519 34443.875)">
	<stop  offset="0" style="stop-color:#FFB21A"/>
	<stop  offset="1" style="stop-color:#553D08"/>
</linearGradient>
<polygon class="st46" points="299.3,42.6 326.4,67.8 336.1,58.1 "/>
<linearGradient id="SVGID_47_" gradientUnits="userSpaceOnUse" x1="-163.5318" y1="661.8646" x2="-163.0475" y2="661.3803" gradientTransform="matrix(46 0 0 -66 7839 43705.2852)">
	<stop  offset="0" style="stop-color:#FFEB96"/>
	<stop  offset="1" style="stop-color:#5E542E"/>
</linearGradient>
<polygon class="st47" points="313.8,27.1 325.4,26.2 336.1,58.1 "/>
<linearGradient id="SVGID_48_" gradientUnits="userSpaceOnUse" x1="-164.4833" y1="661.8354" x2="-163.9991" y2="661.3512" gradientTransform="matrix(42 0 0 -66 7235 43705.2852)">
	<stop  offset="0" style="stop-color:#8D750D"/>
	<stop  offset="1" style="stop-color:#866C04"/>
</linearGradient>
<polygon class="st48" points="325.4,26.2 336.1,58.1 345.8,34.9 "/>
<linearGradient id="SVGID_49_" gradientUnits="userSpaceOnUse" x1="-163.5104" y1="659.6003" x2="-163.0262" y2="659.116" gradientTransform="matrix(48 0 0 -34 8177 22442.6328)">
	<stop  offset="0" style="stop-color:#8D8141"/>
	<stop  offset="1" style="stop-color:#DBB927"/>
</linearGradient>
<polygon class="st49" points="325.4,26.2 345.8,34.9 348.7,18.4 "/>
<linearGradient id="SVGID_50_" gradientUnits="userSpaceOnUse" x1="-162.5461" y1="659.4294" x2="-162.0619" y2="658.9451" gradientTransform="matrix(62 0 0 -34 10417 22442.6328)">
	<stop  offset="0" style="stop-color:#C99E0A"/>
	<stop  offset="1" style="stop-color:#FFC60B"/>
</linearGradient>
<polygon class="st50" points="345.8,34.9 348.7,18.4 375.8,32.9 "/>
<linearGradient id="SVGID_51_" gradientUnits="userSpaceOnUse" x1="-159.9783" y1="663.1456" x2="-159.494" y2="662.6613" gradientTransform="matrix(90 0 0 -108 14675 71701.5078)">
	<stop  offset="0" style="stop-color:#F9AA0F"/>
	<stop  offset="1" style="stop-color:#7C4C07"/>
</linearGradient>
<polygon class="st51" points="278.9,79.4 309,131.7 322.5,124.9 "/>
<linearGradient id="SVGID_52_" gradientUnits="userSpaceOnUse" x1="-159.6185" y1="663.226" x2="-159.1342" y2="662.7418" gradientTransform="matrix(98 0 0 -118 15931 78317.0859)">
	<stop  offset="0" style="stop-color:#F9A90F"/>
	<stop  offset="1" style="stop-color:#784907"/>
</linearGradient>
<polygon class="st52" points="278.9,79.4 326.4,67.8 322.5,124.9 "/>
<linearGradient id="SVGID_53_" gradientUnits="userSpaceOnUse" x1="-159.7411" y1="662.7047" x2="-159.2568" y2="662.2204" gradientTransform="matrix(114 0 0 -50 18533 33235.957)">
	<stop  offset="0" style="stop-color:#B48509"/>
	<stop  offset="1" style="stop-color:#AA810B"/>
</linearGradient>
<polygon class="st53" points="322.5,124.9 377.7,100.7 370.9,122 "/>
<linearGradient id="SVGID_54_" gradientUnits="userSpaceOnUse" x1="-166.3243" y1="662.7603" x2="-165.84" y2="662.2761" gradientTransform="matrix(40 0 0 -98 7029 65007.9336)">
	<stop  offset="0" style="stop-color:#FFBB15"/>
	<stop  offset="1" style="stop-color:#AA7B0F"/>
</linearGradient>
<polygon class="st54" points="377.7,100.7 390.3,53.3 397.1,88.1 "/>
<linearGradient id="SVGID_55_" gradientUnits="userSpaceOnUse" x1="-164.3693" y1="660.7618" x2="-163.885" y2="660.2775" gradientTransform="matrix(50 0 0 -42 8595 27784.2949)">
	<stop  offset="0" style="stop-color:#FFBB14"/>
	<stop  offset="1" style="stop-color:#FCBB0F"/>
</linearGradient>
<polygon class="st55" points="375.8,32.9 390.3,53.3 400,42.6 "/>
<linearGradient id="SVGID_56_" gradientUnits="userSpaceOnUse" x1="-176.1495" y1="662.7176" x2="-175.6653" y2="662.2333" gradientTransform="matrix(20 0 0 -94 3915 62330.1016)">
	<stop  offset="0" style="stop-color:#FFB717"/>
	<stop  offset="1" style="stop-color:#A77D08"/>
</linearGradient>
<polygon class="st56" points="390.3,53.3 397.1,88.1 400,42.6 "/>
<linearGradient id="SVGID_57_" gradientUnits="userSpaceOnUse" x1="-161.4292" y1="658.9955" x2="-160.9449" y2="658.5113" gradientTransform="matrix(76 0 0 -30 12621 19786.8027)">
	<stop  offset="0" style="stop-color:#FFD229"/>
	<stop  offset="1" style="stop-color:#ECBC22"/>
</linearGradient>
<polygon class="st57" points="348.7,18.4 375.8,32.9 385.5,23.2 "/>
<linearGradient id="SVGID_58_" gradientUnits="userSpaceOnUse" x1="-164.3964" y1="660.3163" x2="-163.9121" y2="659.832" gradientTransform="matrix(50 0 0 -40 8595 26436.3809)">
	<stop  offset="0" style="stop-color:#FFD44E"/>
	<stop  offset="1" style="stop-color:#E9C42E"/>
</linearGradient>
<polygon class="st58" points="375.8,32.9 400,42.6 385.5,23.2 "/>
<linearGradient id="SVGID_59_" gradientUnits="userSpaceOnUse" x1="-164.102" y1="663.3343" x2="-163.6177" y2="662.85" gradientTransform="matrix(42 0 0 -48 7201 31972.043)">
	<stop  offset="0" style="stop-color:#866E02"/>
	<stop  offset="1" style="stop-color:#574901"/>
</linearGradient>
<polygon class="st59" points="309,131.7 314.8,155 329.3,139.5 "/>
<linearGradient id="SVGID_60_" gradientUnits="userSpaceOnUse" x1="-164.072" y1="662.753" x2="-163.5877" y2="662.2687" gradientTransform="matrix(42 0 0 -30 7201 20006.8027)">
	<stop  offset="0" style="stop-color:#867321"/>
	<stop  offset="1" style="stop-color:#7A6317"/>
</linearGradient>
<polygon class="st60" points="309,131.7 322.5,124.9 329.3,139.5 "/>
<linearGradient id="SVGID_61_" gradientUnits="userSpaceOnUse" x1="-160.1079" y1="662.8646" x2="-159.6236" y2="662.3803" gradientTransform="matrix(100 0 0 -36 16335 23984.5488)">
	<stop  offset="0" style="stop-color:#B48807"/>
	<stop  offset="1" style="stop-color:#574503"/>
</linearGradient>
<polygon class="st61" points="322.5,124.9 370.9,122 329.3,139.5 "/>
<linearGradient id="SVGID_62_" gradientUnits="userSpaceOnUse" x1="-170.035" y1="662.5007" x2="-169.5508" y2="662.0165" gradientTransform="matrix(28 0 0 -44 5131 29252.2109)">
	<stop  offset="0" style="stop-color:#000000"/>
	<stop  offset="1" style="stop-color:#553F06"/>
</linearGradient>
<polygon class="st62" points="370.9,122 377.7,100.7 384.5,106.5 "/>
<linearGradient id="SVGID_63_" gradientUnits="userSpaceOnUse" x1="-166.2437" y1="661.9943" x2="-165.7594" y2="661.51" gradientTransform="matrix(40 0 0 -38 7029 25242.4648)">
	<stop  offset="0" style="stop-color:#A2750B"/>
	<stop  offset="1" style="stop-color:#170E00"/>
</linearGradient>
<polygon class="st63" points="377.7,100.7 397.1,88.1 384.5,106.5 "/>
<linearGradient id="SVGID_64_" gradientUnits="userSpaceOnUse" x1="-157.8285" y1="657.9088" x2="-157.3442" y2="657.4245" gradientTransform="matrix(46 0 0 -24 7325 15813.0557)">
	<stop  offset="0" style="stop-color:#E9CD49"/>
	<stop  offset="1" style="stop-color:#F0CA36"/>
</linearGradient>
<polygon class="st64" points="82.3,33.9 87.2,23.2 64.9,34.9 "/>
<linearGradient id="SVGID_65_" gradientUnits="userSpaceOnUse" x1="-157.1602" y1="660.2308" x2="-156.6759" y2="659.7465" gradientTransform="matrix(66 0 0 -42 10399 27750.2949)">
	<stop  offset="0" style="stop-color:#7F6605"/>
	<stop  offset="1" style="stop-color:#D9AC08"/>
</linearGradient>
<polygon class="st65" points="35.8,36.8 64.9,34.9 32.9,16.5 "/>
<linearGradient id="SVGID_66_" gradientUnits="userSpaceOnUse" x1="-157.0096" y1="659.9741" x2="-156.5253" y2="659.4899" gradientTransform="matrix(112 0 0 -38 17621 25094.4648)">
	<stop  offset="0" style="stop-color:#FFD645"/>
	<stop  offset="1" style="stop-color:#D9C14F"/>
</linearGradient>
<polygon class="st66" points="64.9,34.9 87.2,23.2 32.9,16.5 "/>
<linearGradient id="SVGID_67_" gradientUnits="userSpaceOnUse" x1="-156.5909" y1="661.5668" x2="-156.1066" y2="661.0825" gradientTransform="matrix(74 0 0 -64 11587 42357.3672)">
	<stop  offset="0" style="stop-color:#C6A502"/>
	<stop  offset="1" style="stop-color:#5E4F01"/>
</linearGradient>
<polygon class="st67" points="32.9,16.5 35.8,36.8 0,47.5 "/>
<linearGradient id="SVGID_68_" gradientUnits="userSpaceOnUse" x1="-156.1578" y1="662.326" x2="-155.6736" y2="661.8417" gradientTransform="matrix(38 0 0 -72 5935 47733.0313)">
	<stop  offset="0" style="stop-color:#8D7900"/>
	<stop  offset="1" style="stop-color:#AA8E01"/>
</linearGradient>
<polygon class="st68" points="0,47.5 18.4,60 10.7,82.3 "/>
<linearGradient id="SVGID_69_" gradientUnits="userSpaceOnUse" x1="-156.4014" y1="661.5974" x2="-155.9171" y2="661.1131" gradientTransform="matrix(30 0 0 -46 4701 30496.127)">
	<stop  offset="0" style="stop-color:#383100"/>
	<stop  offset="1" style="stop-color:#7A6601"/>
</linearGradient>
<polygon class="st69" points="18.4,60 25.2,77.5 10.7,82.3 "/>
<linearGradient id="SVGID_70_" gradientUnits="userSpaceOnUse" x1="-156.2633" y1="659.4286" x2="-155.7791" y2="658.9444" gradientTransform="matrix(46 0 0 -26 7191 17190.9707)">
	<stop  offset="0" style="stop-color:#8D7801"/>
	<stop  offset="1" style="stop-color:#554800"/>
</linearGradient>
<polygon class="st70" points="0,47.5 18.4,60 22.3,51.3 "/>
<linearGradient id="SVGID_71_" gradientUnits="userSpaceOnUse" x1="-156.5488" y1="659.6322" x2="-156.0645" y2="659.1479" gradientTransform="matrix(74 0 0 -30 11587 19824.8027)">
	<stop  offset="0" style="stop-color:#8D7701"/>
	<stop  offset="1" style="stop-color:#554701"/>
</linearGradient>
<polygon class="st71" points="0,47.5 35.8,36.8 22.3,51.3 "/>
<linearGradient id="SVGID_72_" gradientUnits="userSpaceOnUse" x1="-157.6633" y1="663.1788" x2="-157.179" y2="662.6946" gradientTransform="matrix(50 0 0 -42 7953 27974.2949)">
	<stop  offset="0" style="stop-color:#FFC211"/>
	<stop  offset="1" style="stop-color:#AA7E0D"/>
</linearGradient>
<polygon class="st72" points="64.9,127.8 88.1,124.9 89.1,145.3 "/>
<linearGradient id="SVGID_73_" gradientUnits="userSpaceOnUse" x1="-157.3092" y1="663.6804" x2="-156.825" y2="663.1961" gradientTransform="matrix(118 0 0 -116 18629 77113.1719)">
	<stop  offset="0" style="stop-color:#F4B610"/>
	<stop  offset="1" style="stop-color:#F7B70E"/>
</linearGradient>
<polygon class="st73" points="64.9,127.8 122,184 89.1,145.3 "/>
<linearGradient id="SVGID_74_" gradientUnits="userSpaceOnUse" x1="-159.7276" y1="662.6689" x2="-159.2433" y2="662.1846" gradientTransform="matrix(14 0 0 -44 2301 29264.2109)">
	<stop  offset="0" style="stop-color:#7F6207"/>
	<stop  offset="1" style="stop-color:#000000"/>
</linearGradient>
<polygon class="st74" points="64.9,127.8 65.9,106.5 71.7,107.5 "/>
<linearGradient id="SVGID_75_" gradientUnits="userSpaceOnUse" x1="-157.8797" y1="662.5521" x2="-157.3954" y2="662.0678" gradientTransform="matrix(48 0 0 -42 7639 27938.2949)">
	<stop  offset="0" style="stop-color:#8D6C07"/>
	<stop  offset="1" style="stop-color:#090600"/>
</linearGradient>
<polygon class="st75" points="64.9,127.8 88.1,124.9 71.7,107.5 "/>
<linearGradient id="SVGID_76_" gradientUnits="userSpaceOnUse" x1="-157.9393" y1="662.4229" x2="-157.455" y2="661.9387" gradientTransform="matrix(48 0 0 -36 7653 23954.5488)">
	<stop  offset="0" style="stop-color:#000000"/>
	<stop  offset="1" style="stop-color:#513F00"/>
</linearGradient>
<polygon class="st76" points="88.1,124.9 94.9,119.1 71.7,107.5 "/>
<linearGradient id="SVGID_77_" gradientUnits="userSpaceOnUse" x1="-156.6624" y1="660.3256" x2="-156.1781" y2="659.8414" gradientTransform="matrix(60 0 0 -24 9411 15925.0557)">
	<stop  offset="0" style="stop-color:#7F6802"/>
	<stop  offset="1" style="stop-color:#000000"/>
</linearGradient>
<polygon class="st77" points="10.7,82.3 25.2,77.5 39.7,89.1 "/>
<linearGradient id="SVGID_78_" gradientUnits="userSpaceOnUse" x1="-156.7777" y1="663.1296" x2="-156.2934" y2="662.6453" gradientTransform="matrix(112 0 0 -94 17575 62412.1016)">
	<stop  offset="0" style="stop-color:#AA890C"/>
	<stop  offset="1" style="stop-color:#71570B"/>
</linearGradient>
<polygon class="st78" points="10.7,82.3 64.9,127.8 39.7,89.1 "/>
<linearGradient id="SVGID_79_" gradientUnits="userSpaceOnUse" x1="-156.8939" y1="660.3055" x2="-156.4097" y2="659.8212" gradientTransform="matrix(36 0 0 -24 5673 15925.0557)">
	<stop  offset="0" style="stop-color:#000000"/>
	<stop  offset="1" style="stop-color:#000000"/>
</linearGradient>
<polygon class="st79" points="25.2,77.5 42.6,88.1 39.7,89.1 "/>
<linearGradient id="SVGID_80_" gradientUnits="userSpaceOnUse" x1="-157.202" y1="661.9631" x2="-156.7177" y2="661.4788" gradientTransform="matrix(54 0 0 -38 8529 25242.4648)">
	<stop  offset="0" style="stop-color:#000000"/>
	<stop  offset="1" style="stop-color:#000000"/>
</linearGradient>
<polygon class="st80" points="42.6,88.1 65.9,106.5 39.7,89.1 "/>
<linearGradient id="SVGID_81_" gradientUnits="userSpaceOnUse" x1="-157.147" y1="663.082" x2="-156.6627" y2="662.5977" gradientTransform="matrix(54 0 0 -80 8529 53130.6914)">
	<stop  offset="0" style="stop-color:#7F6207"/>
	<stop  offset="1" style="stop-color:#000000"/>
</linearGradient>
<polygon class="st81" points="64.9,127.8 65.9,106.5 39.7,89.1 "/>
<linearGradient id="SVGID_82_" gradientUnits="userSpaceOnUse" x1="-158.936" y1="663.188" x2="-158.4517" y2="662.7037" gradientTransform="matrix(34 0 0 -54 5489 35941.7891)">
	<stop  offset="0" style="stop-color:#7F6215"/>
	<stop  offset="1" style="stop-color:#FBBD17"/>
</linearGradient>
<polygon class="st82" points="88.1,124.9 89.1,145.3 104.6,151.1 "/>
<linearGradient id="SVGID_83_" gradientUnits="userSpaceOnUse" x1="-158.8211" y1="663.3332" x2="-158.3369" y2="662.8489" gradientTransform="matrix(34 0 0 -66 5489 43897.2852)">
	<stop  offset="0" style="stop-color:#161100"/>
	<stop  offset="1" style="stop-color:#B08802"/>
</linearGradient>
<polygon class="st83" points="88.1,124.9 94.9,119.1 104.6,151.1 "/>
<linearGradient id="SVGID_84_" gradientUnits="userSpaceOnUse" x1="-157.9008" y1="663.8065" x2="-157.4166" y2="663.3222" gradientTransform="matrix(68 0 0 -80 10829 53246.6914)">
	<stop  offset="0" style="stop-color:#EFAC1B"/>
	<stop  offset="1" style="stop-color:#F0B30E"/>
</linearGradient>
<polygon class="st84" points="89.1,145.3 122,184 104.6,151.1 "/>
<linearGradient id="SVGID_85_" gradientUnits="userSpaceOnUse" x1="-157.6041" y1="663.3872" x2="-157.1199" y2="662.903" gradientTransform="matrix(112 0 0 -118 17749 78371.0859)">
	<stop  offset="0" style="stop-color:#F9CC3D"/>
	<stop  offset="1" style="stop-color:#F4C02C"/>
</linearGradient>
<polygon class="st85" points="94.9,119.1 149.2,93.9 104.6,151.1 "/>
<linearGradient id="SVGID_86_" gradientUnits="userSpaceOnUse" x1="-157.8297" y1="663.6264" x2="-157.3454" y2="663.1421" gradientTransform="matrix(92 0 0 -186 14629 123520.2188)">
	<stop  offset="0" style="stop-color:#FED246"/>
	<stop  offset="1" style="stop-color:#F4C231"/>
</linearGradient>
<polygon class="st86" points="122,184 149.2,93.9 104.6,151.1 "/>
<linearGradient id="SVGID_87_" gradientUnits="userSpaceOnUse" x1="-158.9197" y1="663.6085" x2="-158.4355" y2="663.1243" gradientTransform="matrix(120 0 0 -200 19317 132813.625)">
	<stop  offset="0" style="stop-color:#EDAB0E"/>
	<stop  offset="1" style="stop-color:#A68704"/>
</linearGradient>
<polygon class="st87" points="246,93 285.7,189.8 304.1,155 "/>
<linearGradient id="SVGID_88_" gradientUnits="userSpaceOnUse" x1="-158.7408" y1="663.4399" x2="-158.2565" y2="662.9556" gradientTransform="matrix(130 0 0 -128 20887 85008.6641)">
	<stop  offset="0" style="stop-color:#EDAA0B"/>
	<stop  offset="1" style="stop-color:#AA8902"/>
</linearGradient>
<polygon class="st88" points="246,93 309,131.7 304.1,155 "/>
<linearGradient id="SVGID_89_" gradientUnits="userSpaceOnUse" x1="-161.5548" y1="663.8898" x2="-161.0705" y2="663.4056" gradientTransform="matrix(60 0 0 -72 9979 47955.0313)">
	<stop  offset="0" style="stop-color:#78580F"/>
	<stop  offset="1" style="stop-color:#A5840A"/>
</linearGradient>
<polygon class="st89" points="285.7,189.8 314.8,155 304.1,155 "/>
<linearGradient id="SVGID_90_" gradientUnits="userSpaceOnUse" x1="-170.3789" y1="663.274" x2="-169.8947" y2="662.7898" gradientTransform="matrix(22 0 0 -48 4051 31972.043)">
	<stop  offset="0" style="stop-color:#867001"/>
	<stop  offset="1" style="stop-color:#AA9100"/>
</linearGradient>
<polygon class="st90" points="309,131.7 314.8,155 304.1,155 "/>
</svg>
