<?xml version="1.0" encoding="utf-8"?>
<!-- Generator: Adobe Illustrator 23.0.0, SVG Export Plug-In . SVG Version: 6.00 Build 0)  -->
<svg version="1.1" id="Слой_1" xmlns="http://www.w3.org/2000/svg" xmlns:xlink="http://www.w3.org/1999/xlink" x="0px" y="0px"
	 viewBox="0 0 384 487" style="enable-background:new 0 0 384 487;" xml:space="preserve">
<style type="text/css">
	.st0{fill:url(#triangle36_1_);}
	.st1{fill:url(#SVGID_1_);}
	.st2{fill:url(#SVGID_2_);}
	.st3{fill:url(#SVGID_3_);}
	.st4{fill:url(#SVGID_4_);}
	.st5{fill:url(#SVGID_5_);}
	.st6{fill:url(#SVGID_6_);}
	.st7{fill:url(#SVGID_7_);}
	.st8{fill:url(#SVGID_8_);}
	.st9{fill:url(#SVGID_9_);}
	.st10{fill:url(#SVGID_10_);}
	.st11{fill:url(#SVGID_11_);}
	.st12{fill:url(#SVGID_12_);}
	.st13{fill:url(#SVGID_13_);}
	.st14{fill:url(#SVGID_14_);}
	.st15{fill:url(#SVGID_15_);}
	.st16{fill:url(#SVGID_16_);}
	.st17{fill:url(#SVGID_17_);}
	.st18{fill:url(#SVGID_18_);}
	.st19{fill:url(#SVGID_19_);}
	.st20{fill:url(#SVGID_20_);}
	.st21{fill:url(#SVGID_21_);}
	.st22{fill:url(#SVGID_22_);}
	.st23{fill:url(#SVGID_23_);}
	.st24{fill:url(#SVGID_24_);}
	.st25{fill:url(#SVGID_25_);}
	.st26{fill:url(#SVGID_26_);}
	.st27{fill:url(#SVGID_27_);}
	.st28{fill:url(#SVGID_28_);}
	.st29{fill:url(#SVGID_29_);}
	.st30{fill:url(#SVGID_30_);}
	.st31{fill:url(#SVGID_31_);}
	.st32{fill:url(#SVGID_32_);}
	.st33{fill:url(#SVGID_33_);}
	.st34{fill:url(#SVGID_34_);}
	.st35{fill:url(#SVGID_35_);}
	.st36{fill:url(#SVGID_36_);}
	.st37{fill:url(#SVGID_37_);}
	.st38{fill:url(#SVGID_38_);}
	.st39{fill:url(#SVGID_39_);}
	.st40{fill:url(#SVGID_40_);}
	.st41{fill:url(#SVGID_41_);}
	.st42{fill:url(#SVGID_42_);}
	.st43{fill:url(#SVGID_43_);}
	.st44{fill:url(#SVGID_44_);}
	.st45{fill:url(#SVGID_45_);}
	.st46{fill:url(#SVGID_46_);}
	.st47{fill:url(#SVGID_47_);}
</style>
<linearGradient id="triangle36_1_" gradientUnits="userSpaceOnUse" x1="19.3205" y1="619.721" x2="20.3205" y2="618.721" gradientTransform="matrix(33 0 0 -39 -589 24311.7109)">
	<stop  offset="0" style="stop-color:#C9D3B7"/>
	<stop  offset="1" style="stop-color:#CED4BD"/>
</linearGradient>
<polygon id="triangle36" class="st0" points="44,163 77,187 75,148 "/>
<linearGradient id="SVGID_1_" gradientUnits="userSpaceOnUse" x1="19.0962" y1="619.3708" x2="20.0962" y2="618.3708" gradientTransform="matrix(39 0 0 -39 -678 24311.7109)">
	<stop  offset="0" style="stop-color:#B2BDA4"/>
	<stop  offset="1" style="stop-color:#B9C2A4"/>
</linearGradient>
<polygon class="st1" points="77,187 114,183 75,148 "/>
<linearGradient id="SVGID_2_" gradientUnits="userSpaceOnUse" x1="18.65" y1="618.8588" x2="19.65" y2="617.8588" gradientTransform="matrix(20 0 0 -32 -336 19899.4805)">
	<stop  offset="0" style="stop-color:#C9D9A7"/>
	<stop  offset="1" style="stop-color:#CFDEAB"/>
</linearGradient>
<polygon class="st2" points="37,128 57,96 54,125 "/>
<linearGradient id="SVGID_3_" gradientUnits="userSpaceOnUse" x1="19.1944" y1="618.3845" x2="20.1944" y2="617.3845" gradientTransform="matrix(45 0 0 -30 -781 18645.7012)">
	<stop  offset="0" style="stop-color:#A0BC79"/>
	<stop  offset="1" style="stop-color:#B0C291"/>
</linearGradient>
<polygon class="st3" points="100,88 137,113 92,118 "/>
<linearGradient id="SVGID_4_" gradientUnits="userSpaceOnUse" x1="19.0998" y1="618.2521" x2="20.0998" y2="617.2521" gradientTransform="matrix(38 0 0 -29 -679 18030.8105)">
	<stop  offset="0" style="stop-color:#EEEEDD"/>
	<stop  offset="1" style="stop-color:#CEDDAA"/>
</linearGradient>
<polygon class="st4" points="54,125 57,96 92,118 "/>
<linearGradient id="SVGID_5_" gradientUnits="userSpaceOnUse" x1="19.4276" y1="618.7281" x2="20.4276" y2="617.7281" gradientTransform="matrix(38 0 0 -30 -679 18675.7012)">
	<stop  offset="0" style="stop-color:#F6F5EB"/>
	<stop  offset="1" style="stop-color:#EFF0E1"/>
</linearGradient>
<polygon class="st5" points="54,125 75,148 92,118 "/>
<linearGradient id="SVGID_6_" gradientUnits="userSpaceOnUse" x1="19.5554" y1="618.7734" x2="20.5554" y2="617.7734" gradientTransform="matrix(43 0 0 -30 -776 18645.7012)">
	<stop  offset="0" style="stop-color:#B9D08C"/>
	<stop  offset="1" style="stop-color:#C1D39F"/>
</linearGradient>
<polygon class="st6" points="57,96 100,88 92,118 "/>
<linearGradient id="SVGID_7_" gradientUnits="userSpaceOnUse" x1="18.6089" y1="619.1632" x2="19.6089" y2="618.1632" gradientTransform="matrix(20 0 0 -35 -336 21800.1504)">
	<stop  offset="0" style="stop-color:#C7D7A5"/>
	<stop  offset="1" style="stop-color:#D9E0C6"/>
</linearGradient>
<polygon class="st7" points="37,128 44,163 57,146 "/>
<linearGradient id="SVGID_8_" gradientUnits="userSpaceOnUse" x1="18.8268" y1="616.924" x2="19.8268" y2="615.924" gradientTransform="matrix(20 0 0 -21 -336 13076.6904)">
	<stop  offset="0" style="stop-color:#CBDAA8"/>
	<stop  offset="1" style="stop-color:#ECECDB"/>
</linearGradient>
<polygon class="st8" points="37,128 54,125 57,146 "/>
<linearGradient id="SVGID_9_" gradientUnits="userSpaceOnUse" x1="19.0996" y1="615.2723" x2="20.0996" y2="614.2723" gradientTransform="matrix(31 0 0 -17 -549 10606.1299)">
	<stop  offset="0" style="stop-color:#D2DBBD"/>
	<stop  offset="1" style="stop-color:#EAEBD8"/>
</linearGradient>
<polygon class="st9" points="44,163 75,148 57,146 "/>
<linearGradient id="SVGID_10_" gradientUnits="userSpaceOnUse" x1="18.5217" y1="617.0887" x2="19.5217" y2="616.0887" gradientTransform="matrix(21 0 0 -23 -339 14322.4707)">
	<stop  offset="0" style="stop-color:#F4F2E4"/>
	<stop  offset="1" style="stop-color:#F0EFDF"/>
</linearGradient>
<polygon class="st10" points="54,125 75,148 57,146 "/>
<linearGradient id="SVGID_11_" gradientUnits="userSpaceOnUse" x1="19.369" y1="619.8305" x2="20.369" y2="618.8305" gradientTransform="matrix(42 0 0 -42 -713 26173.3809)">
	<stop  offset="0" style="stop-color:#9BA987"/>
	<stop  offset="1" style="stop-color:#A6B58F"/>
</linearGradient>
<polygon class="st11" points="114,183 142,153 100,141 "/>
<linearGradient id="SVGID_12_" gradientUnits="userSpaceOnUse" x1="19.4024" y1="619.7103" x2="20.4024" y2="618.7103" gradientTransform="matrix(42 0 0 -40 -713 24899.6016)">
	<stop  offset="0" style="stop-color:#93AD6E"/>
	<stop  offset="1" style="stop-color:#A6B58F"/>
</linearGradient>
<polygon class="st12" points="137,113 142,153 100,141 "/>
<linearGradient id="SVGID_13_" gradientUnits="userSpaceOnUse" x1="19.4263" y1="619.9372" x2="20.4263" y2="618.9372" gradientTransform="matrix(39 0 0 -42 -678 26173.3809)">
	<stop  offset="0" style="stop-color:#DEE1CE"/>
	<stop  offset="1" style="stop-color:#B9C3A6"/>
</linearGradient>
<polygon class="st13" points="75,148 114,183 100,141 "/>
<linearGradient id="SVGID_14_" gradientUnits="userSpaceOnUse" x1="18.84" y1="618.51" x2="19.84" y2="617.51" gradientTransform="matrix(25 0 0 -30 -398 18675.7012)">
	<stop  offset="0" style="stop-color:#ECECD5"/>
	<stop  offset="1" style="stop-color:#E3E5D0"/>
</linearGradient>
<polygon class="st14" points="75,148 92,118 100,141 "/>
<linearGradient id="SVGID_15_" gradientUnits="userSpaceOnUse" x1="19.4444" y1="618.3273" x2="20.4444" y2="617.3273" gradientTransform="matrix(45 0 0 -28 -781 17424.9199)">
	<stop  offset="0" style="stop-color:#D7DBC9"/>
	<stop  offset="1" style="stop-color:#B2C494"/>
</linearGradient>
<polygon class="st15" points="92,118 137,113 100,141 "/>
<linearGradient id="SVGID_16_" gradientUnits="userSpaceOnUse" x1="19.8553" y1="621.3428" x2="20.8553" y2="620.3428" gradientTransform="matrix(178 0 0 -83 -3396 51640.8711)">
	<stop  offset="0" style="stop-color:#7CAD2F"/>
	<stop  offset="1" style="stop-color:#B0B062"/>
</linearGradient>
<polygon class="st16" points="137,113 142,153 315,70 "/>
<linearGradient id="SVGID_17_" gradientUnits="userSpaceOnUse" x1="19.8461" y1="621.4301" x2="20.8461" y2="620.4301" gradientTransform="matrix(212 0 0 -90 -4071 56001.1016)">
	<stop  offset="0" style="stop-color:#7CAD2F"/>
	<stop  offset="1" style="stop-color:#B0B062"/>
</linearGradient>
<polygon class="st17" points="142,153 354,160 315,70 "/>
<linearGradient id="SVGID_18_" gradientUnits="userSpaceOnUse" x1="19.7458" y1="621.4296" x2="20.7458" y2="620.4296" gradientTransform="matrix(178 0 0 -95 -3396 59063.5508)">
	<stop  offset="0" style="stop-color:#7CAD2F"/>
	<stop  offset="1" style="stop-color:#B0B062"/>
</linearGradient>
<polygon class="st18" points="137,113 315,70 242,18 "/>
<linearGradient id="SVGID_19_" gradientUnits="userSpaceOnUse" x1="19.6334" y1="621.8037" x2="20.6334" y2="620.8037" gradientTransform="matrix(64 0 0 -113 -1153 70257.5703)">
	<stop  offset="0" style="stop-color:#7CAD2F"/>
	<stop  offset="1" style="stop-color:#B0B062"/>
</linearGradient>
<polygon class="st19" points="100,88 137,113 164,0 "/>
<linearGradient id="SVGID_20_" gradientUnits="userSpaceOnUse" x1="19.703" y1="621.7086" x2="20.703" y2="620.7086" gradientTransform="matrix(105 0 0 -113 -1936 70257.5703)">
	<stop  offset="0" style="stop-color:#7CAD2F"/>
	<stop  offset="1" style="stop-color:#B0B062"/>
</linearGradient>
<polygon class="st20" points="137,113 242,18 164,0 "/>
<linearGradient id="SVGID_21_" gradientUnits="userSpaceOnUse" x1="19.6444" y1="621.4487" x2="20.6444" y2="620.4487" gradientTransform="matrix(71 0 0 -88 -1300 54685.3203)">
	<stop  offset="0" style="stop-color:#7CAD2F"/>
	<stop  offset="1" style="stop-color:#B0B062"/>
</linearGradient>
<polygon class="st21" points="100,88 164,0 93,16 "/>
<linearGradient id="SVGID_22_" gradientUnits="userSpaceOnUse" x1="19.6269" y1="621.1343" x2="20.6269" y2="620.1343" gradientTransform="matrix(66 0 0 -72 -1259 44735.082)">
	<stop  offset="0" style="stop-color:#B9D687"/>
	<stop  offset="1" style="stop-color:#97C243"/>
</linearGradient>
<polygon class="st22" points="93,16 100,88 34,70 "/>
<linearGradient id="SVGID_23_" gradientUnits="userSpaceOnUse" x1="18.7466" y1="620.5864" x2="19.7466" y2="619.5864" gradientTransform="matrix(23 0 0 -58 -399 36068.6211)">
	<stop  offset="0" style="stop-color:#98C251"/>
	<stop  offset="1" style="stop-color:#9EC749"/>
</linearGradient>
<polygon class="st23" points="37,128 57,96 34,70 "/>
<linearGradient id="SVGID_24_" gradientUnits="userSpaceOnUse" x1="19.505" y1="617.8425" x2="20.505" y2="616.8425" gradientTransform="matrix(66 0 0 -26 -1259 16136.1406)">
	<stop  offset="0" style="stop-color:#8ABC3B"/>
	<stop  offset="1" style="stop-color:#96C143"/>
</linearGradient>
<polygon class="st24" points="57,96 100,88 34,70 "/>
<linearGradient id="SVGID_25_" gradientUnits="userSpaceOnUse" x1="19.25" y1="621.4364" x2="20.25" y2="620.4364" gradientTransform="matrix(37 0 0 -90 -713 56001.1016)">
	<stop  offset="0" style="stop-color:#9FC745"/>
	<stop  offset="1" style="stop-color:#9FC44E"/>
</linearGradient>
<polygon class="st25" points="34,70 37,128 0,160 "/>
<linearGradient id="SVGID_26_" gradientUnits="userSpaceOnUse" x1="19.368" y1="619.186" x2="20.368" y2="618.186" gradientTransform="matrix(44 0 0 -35 -853 21800.1504)">
	<stop  offset="0" style="stop-color:#95BF50"/>
	<stop  offset="1" style="stop-color:#A4C65D"/>
</linearGradient>
<polygon class="st26" points="37,128 44,163 0,160 "/>
<linearGradient id="SVGID_27_" gradientUnits="userSpaceOnUse" x1="19.4784" y1="621.6284" x2="20.4784" y2="620.6284" gradientTransform="matrix(58 0 0 -107 -1114 66683.2344)">
	<stop  offset="0" style="stop-color:#9CC366"/>
	<stop  offset="1" style="stop-color:#ADB057"/>
</linearGradient>
<polygon class="st27" points="44,163 77,187 19,270 "/>
<linearGradient id="SVGID_28_" gradientUnits="userSpaceOnUse" x1="19.4875" y1="621.8184" x2="20.4875" y2="620.8184" gradientTransform="matrix(44 0 0 -110 -853 68548.8984)">
	<stop  offset="0" style="stop-color:#98C239"/>
	<stop  offset="1" style="stop-color:#B5B75D"/>
</linearGradient>
<polygon class="st28" points="0,160 44,163 19,270 "/>
<linearGradient id="SVGID_29_" gradientUnits="userSpaceOnUse" x1="19.6297" y1="621.9927" x2="20.6297" y2="620.9927" gradientTransform="matrix(59 0 0 -131 -1134 81656.5938)">
	<stop  offset="0" style="stop-color:#B3AD39"/>
	<stop  offset="1" style="stop-color:#8EB74E"/>
</linearGradient>
<polygon class="st29" points="19,270 77,187 78,318 "/>
<linearGradient id="SVGID_30_" gradientUnits="userSpaceOnUse" x1="19.277" y1="621.9412" x2="20.277" y2="620.9412" gradientTransform="matrix(37 0 0 -135 -636 84144.1484)">
	<stop  offset="0" style="stop-color:#92B55E"/>
	<stop  offset="1" style="stop-color:#80AB3C"/>
</linearGradient>
<polygon class="st30" points="77,187 114,183 78,318 "/>
<linearGradient id="SVGID_31_" gradientUnits="userSpaceOnUse" x1="19.1692" y1="621.9312" x2="20.1692" y2="620.9312" gradientTransform="matrix(41 0 0 -164 -679 102207.9609)">
	<stop  offset="0" style="stop-color:#81A646"/>
	<stop  offset="1" style="stop-color:#85B12B"/>
</linearGradient>
<polygon class="st31" points="114,183 155,347 125,340 "/>
<linearGradient id="SVGID_32_" gradientUnits="userSpaceOnUse" x1="19.4021" y1="622.0449" x2="20.4021" y2="621.0449" gradientTransform="matrix(47 0 0 -157 -835 97847.7344)">
	<stop  offset="0" style="stop-color:#7DB529"/>
	<stop  offset="1" style="stop-color:#7EAB3C"/>
</linearGradient>
<polygon class="st32" points="78,318 114,183 125,340 "/>
<linearGradient id="SVGID_33_" gradientUnits="userSpaceOnUse" x1="19.7961" y1="621.9677" x2="20.7961" y2="620.9677" gradientTransform="matrix(133 0 0 -140 -2519 87228.6016)">
	<stop  offset="0" style="stop-color:#7CAD2F"/>
	<stop  offset="1" style="stop-color:#B0B062"/>
</linearGradient>
<polygon class="st33" points="114,183 142,153 247,293 "/>
<linearGradient id="SVGID_34_" gradientUnits="userSpaceOnUse" x1="19.7064" y1="622.0128" x2="20.7064" y2="621.0128" gradientTransform="matrix(133 0 0 -164 -2519 102207.9609)">
	<stop  offset="0" style="stop-color:#81A746"/>
	<stop  offset="1" style="stop-color:#9CB039"/>
</linearGradient>
<polygon class="st34" points="114,183 155,347 247,293 "/>
<linearGradient id="SVGID_35_" gradientUnits="userSpaceOnUse" x1="19.984" y1="622.0799" x2="20.984" y2="621.0799" gradientTransform="matrix(212 0 0 -140 -4071 87228.6016)">
	<stop  offset="0" style="stop-color:#7CAD2F"/>
	<stop  offset="1" style="stop-color:#B0B062"/>
</linearGradient>
<polygon class="st35" points="142,153 354,160 247,293 "/>
<linearGradient id="SVGID_36_" gradientUnits="userSpaceOnUse" x1="19.7741" y1="621.2144" x2="20.7741" y2="620.2144" gradientTransform="matrix(92 0 0 -74 -1658 46257.8594)">
	<stop  offset="0" style="stop-color:#C1AF42"/>
	<stop  offset="1" style="stop-color:#DBA648"/>
</linearGradient>
<polygon class="st36" points="155,347 212,367 247,293 "/>
<linearGradient id="SVGID_37_" gradientUnits="userSpaceOnUse" x1="19.8174" y1="621.5037" x2="20.8174" y2="620.5037" gradientTransform="matrix(103 0 0 -88 -1786 54918.3203)">
	<stop  offset="0" style="stop-color:#F2CF9A"/>
	<stop  offset="1" style="stop-color:#D3824E"/>
</linearGradient>
<polygon class="st37" points="328,321 350,233 247,293 "/>
<linearGradient id="SVGID_38_" gradientUnits="userSpaceOnUse" x1="19.7477" y1="621.9201" x2="20.7477" y2="620.9201" gradientTransform="matrix(107 0 0 -133 -1866 82875.375)">
	<stop  offset="0" style="stop-color:#7CAD2F"/>
	<stop  offset="1" style="stop-color:#B0B062"/>
</linearGradient>
<polygon class="st38" points="350,233 354,160 247,293 "/>
<linearGradient id="SVGID_39_" gradientUnits="userSpaceOnUse" x1="19.4622" y1="621.5684" x2="20.4622" y2="620.5684" gradientTransform="matrix(52 0 0 -99 -801 61830.1133)">
	<stop  offset="0" style="stop-color:#E69E3E"/>
	<stop  offset="1" style="stop-color:#DDAB4A"/>
</linearGradient>
<polygon class="st39" points="212,367 247,293 264,392 "/>
<linearGradient id="SVGID_40_" gradientUnits="userSpaceOnUse" x1="19.6484" y1="621.5687" x2="20.6484" y2="620.5687" gradientTransform="matrix(81 0 0 -99 -1346 61830.1133)">
	<stop  offset="0" style="stop-color:#DCB85B"/>
	<stop  offset="1" style="stop-color:#EDC485"/>
</linearGradient>
<polygon class="st40" points="247,293 328,321 264,392 "/>
<linearGradient id="SVGID_41_" gradientUnits="userSpaceOnUse" x1="19.7621" y1="619.3655" x2="20.7621" y2="618.3655" gradientTransform="matrix(91 0 0 -36 -1529 22687.041)">
	<stop  offset="0" style="stop-color:#E9AB4F"/>
	<stop  offset="1" style="stop-color:#ECC287"/>
</linearGradient>
<polygon class="st41" points="264,392 293,428 355,395 "/>
<linearGradient id="SVGID_42_" gradientUnits="userSpaceOnUse" x1="19.6393" y1="621.0827" x2="20.6393" y2="620.0827" gradientTransform="matrix(91 0 0 -74 -1529 46285.8594)">
	<stop  offset="0" style="stop-color:#E8AB4E"/>
	<stop  offset="1" style="stop-color:#F4E2C2"/>
</linearGradient>
<polygon class="st42" points="264,392 328,321 355,395 "/>
<linearGradient id="SVGID_43_" gradientUnits="userSpaceOnUse" x1="19.6999" y1="621.2338" x2="20.6999" y2="620.2338" gradientTransform="matrix(62 0 0 -72 -920 45114.082)">
	<stop  offset="0" style="stop-color:#E7A950"/>
	<stop  offset="1" style="stop-color:#F3CF92"/>
</linearGradient>
<polygon class="st43" points="293,428 355,395 350,467 "/>
<linearGradient id="SVGID_44_" gradientUnits="userSpaceOnUse" x1="19.0219" y1="620.9143" x2="20.0219" y2="619.9143" gradientTransform="matrix(34 0 0 -72 -303 45114.082)">
	<stop  offset="0" style="stop-color:#F3D9AB"/>
	<stop  offset="1" style="stop-color:#E3AB55"/>
</linearGradient>
<polygon class="st44" points="355,395 384,448 350,467 "/>
<linearGradient id="SVGID_45_" gradientUnits="userSpaceOnUse" x1="19.2463" y1="620.7304" x2="20.2463" y2="619.7304" gradientTransform="matrix(33 0 0 -58 -369 36390.6211)">
	<stop  offset="0" style="stop-color:#D99138"/>
	<stop  offset="1" style="stop-color:#D58D37"/>
</linearGradient>
<polygon class="st45" points="264,392 293,428 297,450 "/>
<linearGradient id="SVGID_46_" gradientUnits="userSpaceOnUse" x1="19.4028" y1="619.4589" x2="20.4028" y2="618.4589" gradientTransform="matrix(57 0 0 -39 -820 24591.7109)">
	<stop  offset="0" style="stop-color:#D18B38"/>
	<stop  offset="1" style="stop-color:#D79642"/>
</linearGradient>
<polygon class="st46" points="293,428 350,467 297,450 "/>
<linearGradient id="SVGID_47_" gradientUnits="userSpaceOnUse" x1="19.437" y1="619.35" x2="20.437" y2="618.35" gradientTransform="matrix(53 0 0 -37 -736 23367.9297)">
	<stop  offset="0" style="stop-color:#B5732C"/>
	<stop  offset="1" style="stop-color:#DB9A43"/>
</linearGradient>
<polygon class="st47" points="310,487 350,467 297,450 "/>
</svg>
